<svg id="Calque_1" data-name="Calque 1" xmlns="http://www.w3.org/2000/svg" viewBox="0 0 330.01 45.91"><defs><style>.cls-1{fill:#5b281a;}.cls-2,.cls-3{fill:#591c1c;}.cls-3{stroke:#591c1c;stroke-miterlimit:10;stroke-width:2px;}</style></defs><title>domino_wave</title><g id="Calque_1-2" data-name="Calque 1-2"><path class="cls-1" d="M330,45.3V7.47C330,4.82,328.44,3,325.78,3H312.41a4.81,4.81,0,0,0-4.81,4.81V45.3h.63V12.11a4.81,4.81,0,0,0-4.81-4.81H289.28a4.81,4.81,0,0,0-4.81,4.79v0a4.81,4.81,0,0,0-4.81-4.81H265.48a4.82,4.82,0,0,0-4.77,4.87V45.3h.49L261.34,17a4.81,4.81,0,0,0-4.81-4.81H242.39A4.81,4.81,0,0,0,237.58,17V45.3h0V6.91a4.81,4.81,0,0,0-4.81-4.81H218.64a4.81,4.81,0,0,0-4.81,4.81V45.3h0V11.62A4.81,4.81,0,0,0,209,6.81H194.88a4.81,4.81,0,0,0-4.81,4.81V8.53a4.81,4.81,0,0,0-4.81-4.81H171.12a4.81,4.81,0,0,0-4.81,4.81v4.82a4.81,4.81,0,0,0-4.81-4.81H147.36a4.81,4.81,0,0,0-4.81,4.81V8.3a4.81,4.81,0,0,0-4.81-4.81H123.6a4.81,4.81,0,0,0-4.81,4.81v.23A4.83,4.83,0,0,0,114,3.72H99.85A4.81,4.81,0,0,0,95,8.5h0V4.84A4.81,4.81,0,0,0,90.23,0H76.09a4.81,4.81,0,0,0-4.81,4.81v8.37a4.81,4.81,0,0,0-4.81-4.81H52.33a4.81,4.81,0,0,0-4.81,4.81h0V6.91A4.81,4.81,0,0,0,42.71,2.1H28.58a4.81,4.81,0,0,0-4.81,4.81V9.77A4.82,4.82,0,0,0,19,5H4.82A4.81,4.81,0,0,0,0,9.78V45.3H57.92l2.09.45,1.3.16L97,45.8" transform="translate(0 0)"/></g><g id="Calque_2" data-name="Calque 2"><circle class="cls-2" cx="6.56" cy="10.71" r="2.71"/><circle class="cls-2" cx="16.78" cy="11.08" r="2.71"/><circle class="cls-2" cx="17.05" cy="20.08" r="2.71"/><circle class="cls-2" cx="6.05" cy="20.08" r="2.71"/><circle class="cls-2" cx="30.78" cy="8.08" r="2.71"/><circle class="cls-2" cx="41.78" cy="17.08" r="2.71"/><circle class="cls-2" cx="53.78" cy="14.08" r="2.71"/><circle class="cls-2" cx="53.78" cy="21.08" r="2.71"/><circle class="cls-2" cx="53.78" cy="28.08" r="2.71"/><circle class="cls-2" cx="64.78" cy="14.08" r="2.71"/><circle class="cls-2" cx="64.78" cy="21.08" r="2.71"/><circle class="cls-2" cx="64.78" cy="28.08" r="2.71"/><circle class="cls-2" cx="82.78" cy="11.08" r="2.71"/><circle class="cls-2" cx="100.78" cy="10.08" r="2.71"/><circle class="cls-2" cx="106.78" cy="15.08" r="2.71"/><circle class="cls-2" cx="112.78" cy="20.08" r="2.71"/><circle class="cls-2" cx="124.78" cy="8.08" r="2.71"/><circle class="cls-2" cx="136.78" cy="8.08" r="2.71"/><circle class="cls-2" cx="130.78" cy="14.08" r="2.71"/><circle class="cls-2" cx="136.78" cy="21.08" r="2.71"/><circle class="cls-2" cx="125.78" cy="21.08" r="2.71"/><circle class="cls-2" cx="149.46" cy="14.8" r="2.71"/><circle class="cls-2" cx="159.67" cy="15.17" r="2.71"/><circle class="cls-2" cx="159.94" cy="24.17" r="2.71"/><circle class="cls-2" cx="148.94" cy="24.17" r="2.71"/><circle class="cls-2" cx="173" cy="11.08" r="2.71"/><circle class="cls-2" cx="184" cy="20.08" r="2.71"/><circle class="cls-2" cx="197" cy="13.08" r="2.71"/><circle class="cls-2" cx="197" cy="20.08" r="2.71"/><circle class="cls-2" cx="197" cy="27.08" r="2.71"/><circle class="cls-2" cx="208" cy="13.08" r="2.71"/><circle class="cls-2" cx="208" cy="20.08" r="2.71"/><circle class="cls-2" cx="208" cy="27.08" r="2.71"/><circle class="cls-2" cx="225" cy="12.08" r="2.71"/><circle class="cls-2" cx="244" cy="19.08" r="2.71"/><circle class="cls-2" cx="250" cy="24.08" r="2.71"/><circle class="cls-2" cx="256" cy="29.08" r="2.71"/><circle class="cls-2" cx="267" cy="13.08" r="2.71"/><circle class="cls-2" cx="279" cy="13.08" r="2.71"/><circle class="cls-2" cx="273" cy="19.08" r="2.71"/><circle class="cls-2" cx="279" cy="26.08" r="2.71"/><circle class="cls-2" cx="268" cy="26.08" r="2.71"/><circle class="cls-2" cx="291" cy="13.08" r="2.71"/><circle class="cls-2" cx="291" cy="20.08" r="2.71"/><circle class="cls-2" cx="291" cy="27.08" r="2.71"/><circle class="cls-2" cx="302" cy="13.08" r="2.71"/><circle class="cls-2" cx="302" cy="20.08" r="2.71"/><circle class="cls-2" cx="302" cy="27.08" r="2.71"/><circle class="cls-2" cx="313.69" cy="8.58" r="2.71"/><circle class="cls-2" cx="324.69" cy="17.58" r="2.71"/><line class="cls-3" x1="95.05" y1="25.95" x2="118.81" y2="26.42"/><line class="cls-3" x1="142.33" y1="26.88" x2="119.02" y2="26.88"/><line class="cls-3" x1="142.55" y1="29.85" x2="166.31" y2="29.85"/><line class="cls-3" x1="166.31" y1="26.88" x2="190.07" y2="26.88"/><line class="cls-3" x1="190.07" y1="33.01" x2="213.83" y2="32.87"/><line class="cls-3" x1="213.82" y1="25.37" x2="237.58" y2="25.87"/><line class="cls-3" x1="237.89" y1="34.82" x2="260.71" y2="35.24"/><line class="cls-3" x1="284.47" y1="32.38" x2="260.71" y2="32.51"/><line class="cls-3" x1="307.6" y1="33.21" x2="284.47" y2="33.21"/><line class="cls-3" x1="307.6" y1="24.71" x2="329.87" y2="25.1"/><circle class="cls-2" cx="52.73" cy="40.22" r="2.71"/><path class="cls-2" d="M60,45.9" transform="translate(0 0)"/><path class="cls-2" d="M57.91,45.49" transform="translate(0 0)"/><path class="cls-2" d="M61.44,45.3a2.82,2.82,0,0,0-2-2.74h0a2.72,2.72,0,0,0-3.29,2h0a1.87,1.87,0,0,0-.14.74" transform="translate(0 0)"/><circle class="cls-2" cx="77.16" cy="28.94" r="2.71"/><circle class="cls-2" cx="89.16" cy="28.94" r="2.71"/><circle class="cls-2" cx="83.16" cy="34.94" r="2.71"/><circle class="cls-2" cx="89.16" cy="41.94" r="2.71"/><circle class="cls-2" cx="78.16" cy="41.94" r="2.71"/><circle class="cls-2" cx="130.67" cy="37.57" r="2.71"/><circle class="cls-2" cx="219.5" cy="33.07" r="2.71"/><circle class="cls-2" cx="230.5" cy="42.07" r="2.71"/><circle class="cls-2" cx="30.04" cy="31.56" r="2.71"/><circle class="cls-2" cx="30.04" cy="38.56" r="2.71"/><path class="cls-2" d="M32.71,45.3a2.71,2.71,0,0,0-5.3-.4,2.76,2.76,0,0,0-.06.4" transform="translate(0 0)"/><circle class="cls-2" cx="41.04" cy="31.56" r="2.71"/><circle class="cls-2" cx="41.04" cy="38.56" r="2.71"/><path class="cls-2" d="M43.77,45.3a2.7,2.7,0,0,0-5.36-.4,2.13,2.13,0,0,0-.07.44" transform="translate(0 0)"/><circle class="cls-2" cx="101.79" cy="32.89" r="2.71"/><circle class="cls-2" cx="112" cy="33.26" r="2.71"/><circle class="cls-2" cx="112.28" cy="42.26" r="2.71"/><circle class="cls-2" cx="101.28" cy="42.26" r="2.71"/><circle class="cls-2" cx="148" cy="35.53" r="2.71"/><circle class="cls-2" cx="154" cy="40.53" r="2.71"/><path class="cls-2" d="M157.29,45.3a2.71,2.71,0,0,1,5.42,0h0" transform="translate(0 0)"/><circle class="cls-2" cx="172.19" cy="33.68" r="2.71"/><circle class="cls-2" cx="184.19" cy="33.68" r="2.71"/><circle class="cls-2" cx="178.19" cy="39.68" r="2.71"/><path class="cls-2" d="M181.86,45.3a2.71,2.71,0,0,1,3.71-.95,2.79,2.79,0,0,1,1,.95" transform="translate(0 0)"/><path class="cls-2" d="M170.86,45.3A2.69,2.69,0,0,1,173.19,44a2.79,2.79,0,0,1,2.29,1.33" transform="translate(0 0)"/><circle class="cls-2" cx="197.03" cy="39.32" r="2.71"/><circle class="cls-2" cx="207.24" cy="39.69" r="2.71"/><circle class="cls-2" cx="272.59" cy="41.94" r="2.71"/><circle class="cls-2" cx="313.97" cy="33.22" r="2.71"/><circle class="cls-2" cx="313.97" cy="40.22" r="2.71"/><path class="cls-2" d="M312,45.3a2.72,2.72,0,0,1,3.83,0" transform="translate(0 0)"/><circle class="cls-2" cx="324.97" cy="33.22" r="2.71"/><circle class="cls-2" cx="324.97" cy="40.22" r="2.71"/><path class="cls-2" d="M323,45.3a2.72,2.72,0,0,1,3.77-.06" transform="translate(0 0)"/><circle class="cls-2" cx="11.67" cy="36.95" r="2.71"/><circle class="cls-2" cx="291.04" cy="40.87" r="2.71"/><circle class="cls-2" cx="301.26" cy="41.24" r="2.71"/><circle class="cls-2" cx="242.89" cy="42.15" r="2.71"/><circle class="cls-2" cx="254.89" cy="42.15" r="2.71"/><line class="cls-3" x1="0.01" y1="26.77" x2="23.77" y2="26.94"/><line class="cls-3" x1="23.77" y1="24.23" x2="47.52" y2="24.41"/><line class="cls-3" x1="47.52" y1="34.15" x2="71.28" y2="34.15"/><line class="cls-3" x1="71.28" y1="22.8" x2="95.04" y2="22.8"/></g></svg>