<svg id="Calque_1" data-name="Calque 1" xmlns="http://www.w3.org/2000/svg" viewBox="0 0 358.64 389.36"><defs><style>.cls-1{fill:#fefefe;}.cls-2{fill:#742953;}.cls-3{fill:#8d245f;}.cls-4{fill:#010101;}.cls-5{fill:#cac277;}.cls-6{fill:#919253;}.cls-7{fill:#8c245e;}.cls-8{fill:#efe9ac;}.cls-9{fill:#dc0023;}.cls-10{fill:#4296b6;}.cls-11{fill:#fefbdb;}.cls-12{fill:#752953;}.cls-13{fill:#c8c6ad;}.cls-14{fill:#b1ab79;}.cls-15{fill:#732952;}.cls-16{fill:#fdfada;}.cls-17{fill:#8f9051;}.cls-18{fill:#c3bc74;}.cls-19{fill:#812257;}</style></defs><title>masto_meeple</title><g id="Calque_2" data-name="Calque 2"><g id="Calque_1-2" data-name="Calque 1-2"><path class="cls-1" d="M43.64,389.3H-25c-.82,0-1-.17-1-1Q-26,194.66-26,1c0-.84.16-1,1-1H331.64c.82,0,1,.16,1,1V388.36c0,.82-.17,1-1,1H234.2a7.83,7.83,0,0,1-.55-2.79,5,5,0,0,1,0-.95c-.11-4.4,0-8.79-.19-13.19a125.16,125.16,0,0,1,.59-15c.2-3,.33-6,.57-9,.26-3.35.19-6.71.41-10.06a26.07,26.07,0,0,0-1.8-11.52c-.51-1.26-.85-2.58-1.4-3.83-.29-.63-.13-1,.58-1.26a7.39,7.39,0,0,0,3.57-2.71,38.37,38.37,0,0,0,6.4-12.25,171.27,171.27,0,0,0,5.78-22.15,58.91,58.91,0,0,0,.79-14.34A114.75,114.75,0,0,0,244,243.38c-1.59-4.87-2.88-9.83-4.38-14.72-2.59-8.44-6.18-16.47-9.71-24.53-1.28-2.93-2.66-5.82-4.09-8.68-.75-1.51-.57-1.87,1.12-2.14a49.63,49.63,0,0,0,15.63-5.23c3.31-1.76,6.81-3.21,10-5.26,8.66-5.63,15.25-13.21,20.43-22.07,3.62-6.18,5.63-13,7.14-19.9a123.73,123.73,0,0,0,2.42-14.3,95.54,95.54,0,0,0,.29-10.43A75.89,75.89,0,0,1,285.22,95a16.36,16.36,0,0,0-.31-9.91,6.65,6.65,0,0,0-5.53-4.55c-2.83-.54-5.75-.39-8.55-1.12-.63-.17-1.35-.17-1.83-.76.31-.54.84-.42,1.29-.51,1.29-.23,1.61-.58,1.76-1.86a29.08,29.08,0,0,0,.25-3.23,8.46,8.46,0,0,1,.34-2c.11-.45.16-1.11.72-1.12s.5.7.6,1.12a20.68,20.68,0,0,1,.5,2.72,6.34,6.34,0,0,0,1.71,3.36,2.35,2.35,0,0,0,2,.81c2.68-.08,5.35.07,8-.17,2-.18,4.14.09,6.21,0,1.61-.11,2.14-.64,1.72-2.2-.79-2.94-2.15-5.68-3.2-8.53A22.52,22.52,0,0,0,287,60.41a13.08,13.08,0,0,1-1-1.35c-.52-.83-.45-1.13.49-1.37a19.31,19.31,0,0,0,2.93-1,6,6,0,0,0,2.73-2.27,2,2,0,0,0,.17-2.16c-2.39-3.63-4.85-7.29-9.25-8.67-1.87-.59-2.64-1.39-2.66-3.34-.05-4.09-4.81-6.85-7.74-7.18-5.33-.59-9.46,3.2-10.87,6.86a6.88,6.88,0,0,0-.51,2.69,1.49,1.49,0,0,1-1.22,1.67c-3.35.89-5.8,3.13-8.13,5.51A13.72,13.72,0,0,0,249.2,55a2.46,2.46,0,0,0,1.54,3.11h0a20.14,20.14,0,0,0,5.74,1.67c2.47.34,2.6.7,1.09,2.68-1,1.37-2,2.82-2.94,4.24a2.49,2.49,0,0,1-2.29,1.21,6.54,6.54,0,0,0-6.5,6.52,23.63,23.63,0,0,0,2.78,12c2.84,5.31,5.38,10.73,6,16.85.62,6.57.35,13-2.59,19.11-2.18,4.51-5.73,7.74-9.88,10.37s-8.68,3.38-13.35,3.92a37.38,37.38,0,0,1-7.17.26,7.68,7.68,0,0,1-1.65-.27c-2-.57-2-.64-2.17-2.71-.12-1.75-.66-3.43-.77-5.21s-.15-3.59-.16-5.39c0-2.6-.08-5.2,0-7.8a23.42,23.42,0,0,0-5.77-16.34,54.5,54.5,0,0,0-10.23-9.55,7.59,7.59,0,0,1-3-4.14c-.65-2-1.32-4-2-6.06a136.11,136.11,0,0,0-7.24-18.27,69.21,69.21,0,0,0-11.73-17.48,45.07,45.07,0,0,0-14-9.69,70.71,70.71,0,0,0-9-3.5,16.67,16.67,0,0,0-10.15-.17,41.92,41.92,0,0,0-10.44,4.76c-4.17,2.68-6.84,6.65-9.31,10.8-.31.51-.53,1.08-.84,1.59a2,2,0,0,1-1.88,1.09c-6.22-.32-12.11,1.46-18,2.87S91,54,84.9,55a35.73,35.73,0,0,0-17.56,8.25c-.68.57-1.42,1-2.12,1.57a5.47,5.47,0,0,1-4,.93c-6.06-.48-12.11-.88-18.09.87a27.2,27.2,0,0,0-16.3,12.3,67.1,67.1,0,0,0-9.31,23.51c-1.14,6.64-1.46,13.26.38,19.86A29.9,29.9,0,0,0,22,130.94,115.59,115.59,0,0,0,35.7,148,50.29,50.29,0,0,1,44,158.25c.83,1.46.74,2-.75,2.77a76.83,76.83,0,0,0-15,10.34,47,47,0,0,0-9.93,12.55,15.75,15.75,0,0,0-1.42,5.8c-.67,5.27-1.25,10.54-2.44,15.74A108.41,108.41,0,0,0,12.25,220c-.35,4-.42,7.89-.47,11.85,0,3.44,0,6.88.08,10.3a97.21,97.21,0,0,0,1.46,12.38A105.41,105.41,0,0,0,20.48,279a9.3,9.3,0,0,0,1,1.93,3.46,3.46,0,0,1,.39,3.4,29.36,29.36,0,0,0-1.59,10.39,67.54,67.54,0,0,0,3.33,18.95,20.16,20.16,0,0,0,3.15,6,5.3,5.3,0,0,1,1.14,4.71c-.55,2.23-.49,4.52-.83,6.77a54.91,54.91,0,0,0-.81,11.23,34.12,34.12,0,0,0,8.07,21.09c1.56,1.82,3.16,3.62,4.7,5.46a14.48,14.48,0,0,1,2.38,4.78c1.64,4.75,1.4,9.79,2.44,14.62A1,1,0,0,1,43.64,389.3Z" transform="translate(26)"/><path d="M43.64,389.3c-.86-4.39-.94-8.91-1.9-13.27a15.72,15.72,0,0,0-3.84-7.86,56.08,56.08,0,0,1-5.1-5.89A36,36,0,0,1,26,337.07c.31-3.58,1-7.12,1.15-10.72.07-1.4.66-2.77.41-4.24a2,2,0,0,0-.31-1c-4-5-5.29-11-6.4-17.08a47.65,47.65,0,0,1-.77-13,31.64,31.64,0,0,1,1.49-7,3,3,0,0,0-.21-2.58,89.53,89.53,0,0,1-7.26-21.09c-2.75-12-3.16-24.13-2.48-36.36a153.13,153.13,0,0,1,3.49-23.43,103.51,103.51,0,0,0,1.42-10.67,19.09,19.09,0,0,1,2.74-8.42C25,172.58,33,166.37,42,161.3c2.6-1.46,2.62-1.42,1.07-3.91-2.61-4.22-6.16-7.65-9.54-11.21a107.3,107.3,0,0,1-12.58-16.3c-4-6.31-5-13.37-4.59-20.7.69-11,4.46-20.93,10.08-30.26,4.6-7.54,11.37-11.75,19.94-13.4,3.38-.65,6.76-.43,10.16-.4a20.46,20.46,0,0,1,4.42.3,4.86,4.86,0,0,0,4.7-1.26,47.31,47.31,0,0,1,8.51-5.93,31.34,31.34,0,0,1,10.39-3.48c8.31-1.41,16.57-3,24.72-5.16a45.39,45.39,0,0,1,12-1.4,1.51,1.51,0,0,0,1.58-.93,56.36,56.36,0,0,1,3.42-5.61,25.85,25.85,0,0,1,11.63-9.47c3.17-1.41,6.37-2.75,9.93-2.9a19.86,19.86,0,0,1,7,1.2A58.14,58.14,0,0,1,174.29,40.8a50.86,50.86,0,0,1,9.4,11.13c6.15,9.23,9.94,19.51,13.31,30,.6,1.86,1.3,3.68,1.91,5.53.17.53.6.72,1,1A62.44,62.44,0,0,1,212.12,100a24.24,24.24,0,0,1,5.08,15.25c0,4.59-.16,9.19.14,13.79a20.51,20.51,0,0,0,.64,3.89,2.48,2.48,0,0,1,.16,1.52c-.49,1.1.19,1.31,1,1.61a14.34,14.34,0,0,0,6,.56,43.19,43.19,0,0,0,11-1.7c9.49-3.06,15.81-9.24,17.69-19.2a37.35,37.35,0,0,0-3-24.17c-1-1.92-1.89-3.87-2.84-5.79a21.16,21.16,0,0,1-2.24-12.55,6.48,6.48,0,0,1,7.16-5.62A1.15,1.15,0,0,0,254,67c1.5-2.11,3-4.25,4.47-6.43a11,11,0,0,0-3-.66,17.15,17.15,0,0,1-4.89-1.52c-1.75-.74-2.16-2.28-1.54-4.06,1.35-3.92,4.21-6.5,7.43-8.81a11.18,11.18,0,0,1,3.95-1.65c.6-.15.74-.38.71-1-.33-6.18,7-12,13.2-9.89,2.42.82,4.66,2.09,5.87,4.59a10,10,0,0,1,.81,4.18c0,.63.18.81.85,1a13.33,13.33,0,0,1,6.21,3.42,36.06,36.06,0,0,1,4.57,5.66c.91,1.22.26,3-1.41,4.19a12,12,0,0,1-5.45,2.14c.6.78,1.11,1.49,1.67,2.16,3.62,4.39,5.07,9.79,7,15a3.37,3.37,0,0,1,.18,1.41,1.35,1.35,0,0,1-1.29,1.41h0c-4.86.09-9.73,0-14.58.26-2.52.12-3.71-1.61-4.38-3.69a36.46,36.46,0,0,1-.9-4.86,8.24,8.24,0,0,0-.79,3c-.14,1.14-.17,2.3-.2,3.46a1.94,1.94,0,0,1-1.63,2.19,2.08,2.08,0,0,1-.43,0,9.39,9.39,0,0,0-1.19.08,23.46,23.46,0,0,0,5.8,1.13,27.45,27.45,0,0,1,5.56.75c3.17.94,4.55,3.31,5.21,6.34a20.23,20.23,0,0,1-.58,9.83,57.62,57.62,0,0,0-2,15.4c0,5.4.18,10.81-.57,16.17-1.6,11.29-3.59,22.51-9.35,32.59-5.25,9.19-12,17.11-21.19,22.57-6.63,4-13.45,7.7-21.11,9.46-1.51.34-3.05.62-4.58.87-.72.12-1.09.17-.64,1.06a261.91,261.91,0,0,1,18.6,48.64A147,147,0,0,1,249,267a67.69,67.69,0,0,1-1.2,21.34,182.74,182.74,0,0,1-5.95,21.05,35.23,35.23,0,0,1-6.46,10.95,6.1,6.1,0,0,1-3.49,1.94c.66,1.86,1.3,3.7,2,5.53a25.3,25.3,0,0,1,1.46,9.64c-.23,8.19-.7,16.37-1.32,24.55-.54,7.07,0,14.15,0,21.22a51.73,51.73,0,0,0,.19,6.1h-4.8a2,2,0,0,1-.34-1.48v-4.2c.07-4.55-.1-9.1-.23-13.65-.13-4.24.39-8.45.64-12.68.19-3.3.37-6.61.57-9.92.22-3.82.21-7.66.45-11.48a13.55,13.55,0,0,0-.54-4c-1.7-6.93-5.18-13-9.42-18.58A22,22,0,0,0,214.3,308c-1.16-.72-2.34-1.39-3.49-2.11a15,15,0,0,0-3-1.35c-.46-.15-.92-.29-1.37-.45a6,6,0,0,0-4.52.12c-3.53,1.43-6.87,3.24-10.27,4.92-4.11,2-8.55,3.14-12.84,4.65-4.51,1.59-9.25,2.24-13.84,3.48a56.05,56.05,0,0,1-11.17,1.39c-5.46.33-10.93.59-16.41.46-4.39-.11-8.77-.53-13.15-.86-3.14-.23-6.29-.45-9.43-.75-5.22-.49-10.38-1.39-15.57-2.11-7.37-1-14.65-2.56-21.89-4.27a22.53,22.53,0,0,0-2.31-.48c-7-1.71-14-3.4-20.7-6.08a111.65,111.65,0,0,1-25-13.34A26.58,26.58,0,0,1,27,289.06c-.37-.34-.69-.89-1.3-.67s-.44.79-.52,1.25c-.86,5.1-.2,10.13.78,15.12a34.39,34.39,0,0,0,2.54,9c2.53,5,5.81,9.36,11.36,11.47A76.1,76.1,0,0,0,50,328.34c3.47.8,6.92,1.66,10.31,2.76a37.87,37.87,0,0,0,8.25,1.46c3.82.35,7.63.76,11.45,1.09a116.94,116.94,0,0,0,18.43.42c2.11-.16,4.23-.2,6.35-.27,3-.11,6-.43,9-.66,1.33-.11,2.72-.42,3.93.53a2.53,2.53,0,0,1,.64,1.08c.28,2.38-.61,3.38-3,3.56s-4.93.37-7.39.62c-2.1.12-4.21.13-6.3.32-3.8.13-7.59.32-11.39.25-5.12-.1-10.2-.64-15.3-1-10.23-.76-20.06-3.56-29.94-6a37.56,37.56,0,0,1-12.22-5.15c-.78-.54-.73,0-.76.53-.18,2.71-.6,5.4-1,8.09v.41a33.18,33.18,0,0,0,1,13.3,28.59,28.59,0,0,0,7.22,12.54,22.63,22.63,0,0,1,3.5,4.7,3.61,3.61,0,0,0,2,1.64,58,58,0,0,0,15.57,3.18c3.08.26,6.15.16,9.22.2a101.63,101.63,0,0,0,11.83-.83c8.79-.89,17.52-2.22,26.29-3.25.88-.11,1.75-.24,2.62-.37a2.87,2.87,0,0,1,2.89,1,2.44,2.44,0,0,1,.37.76c.22,2-.49,3.07-2.47,3.39-3.51.58-7,.94-10.58,1.4-1.62.21-3.24.46-4.87.61-.6.12-1.22.11-1.82.26-1.9.22-3.81.46-5.71.72-1.52.19-3,.33-4.56.55a136.22,136.22,0,0,1-18.5,1,76.35,76.35,0,0,1-16.83-2.06c-1.48-.37-1.46-.37-1.3,1.15.25,2.3.7,4.57.87,6.88a3.15,3.15,0,0,1,.1.81,23.43,23.43,0,0,0,.61,4,2.25,2.25,0,0,1,0,1.31Z" transform="translate(26)"/><path class="cls-2" d="M88,375.36a41.79,41.79,0,0,1,5.8-.73c.89,1,1.21.93,1.65-.23,2.23-.31,4.46-.64,6.69-.93,3.07-.42,6.14-.78,9.21-1.22,1.41-.21,2-1.3,1.81-3.09a81.5,81.5,0,0,0,8.43-2.19,115.05,115.05,0,0,0,18.33-6.32c10.73-4.95,21.3-10.17,30.75-17.37a22.13,22.13,0,0,0,2.59-2.14c1-1,.82-1.68-.44-2.13a29.32,29.32,0,0,0-10.18-2,177.6,177.6,0,0,0-29.55,3c-6,1-12,2.08-18,2.88-4,.54-8.11.77-12.17,1.14s-8.2.6-12.3.91a145.56,145.56,0,0,1-15.35.23A115.82,115.82,0,0,1,53,342.74a129.66,129.66,0,0,1-19.41-6.2,5.56,5.56,0,0,0-2.89-.54c.29-3.24,1-6.43,1-9.85,4.75,3.53,10.1,5.21,15.55,6.57,6.78,1.7,13.57,3.39,20.46,4.63,2.46.44,5,.55,7.48.79a177,177,0,0,0,19.94,1c2.12,0,4.22-.39,6.34-.22.42,1.07,1.25,1.21,2.24,1a5.9,5.9,0,0,1,1.78-.14,2.48,2.48,0,0,0,2.45-1.14,33.29,33.29,0,0,1,4.11-.43c1.29-.2,2.6-.17,3.9-.29,1.61-.14,2.25-1.21,2-3.33a1.07,1.07,0,0,1,.87-.29,127.67,127.67,0,0,0,21.94-3,52.22,52.22,0,0,0,12.59-4.2,4.61,4.61,0,0,0,.85-.45c.3-.22.58-.48.45-.89s-.49-.37-.81-.4a5.92,5.92,0,0,0-1.19,0c-5.46.4-10.93.33-16.39.66a85,85,0,0,1-15.78-.72c-6.39-.81-12.74-1.83-19-3.24A53.73,53.73,0,0,1,91,318.2c-3.45-1.59-6.88-3.22-10.19-5.08-.83-.48-1.75-.78-2.62-1.18-.46-.21-1-.41-.9-1.1l9.58,2c5.57,1.16,11.2,2,16.84,2.8,3.94.56,7.87,1.17,11.84,1.57,2,.2,4,.42,6,.52,5.66.27,11.29,1,17,1a189.25,189.25,0,0,0,21.16-1c3.09-.33,6.08-1.2,9.11-1.82a150.17,150.17,0,0,0,18-5.15c4.22-1.4,8-3.73,12-5.59a26.05,26.05,0,0,1,4.65-1.89c1.62-.4,3.19.3,4.67,1-.08.64-.09,1.24.61,1.62a1.77,1.77,0,0,0,2-.42c5,2.52,9.37,5.7,12.4,10.57s5.8,10,7.24,15.68a22.7,22.7,0,0,1,.46,6.42c-.11,3.11-.24,6.22-.42,9.33-.28,4.7-.53,9.39-.89,14.09a107.18,107.18,0,0,0-.16,12.8c.21,4.95.08,9.91.09,14.86H196.52a2.6,2.6,0,0,1-.6-1.53c-.83-4.19-1.53-8.41-2.7-12.53-.09-.31-.15-.63-.25-.93-.48-1.55-1.08-1.8-2.44-.86a109.42,109.42,0,0,1-13.42,7.89,95.57,95.57,0,0,1-16.1,6.15c-1.43.42-3,.53-4.09,1.81h-24c0-.3.16-.44.37-.55,1.56-.8,3-1.84,4.56-2.63a119.81,119.81,0,0,0,21.17-14l.18-.15c1.62-1.38,1.51-2.25-.4-3.14a26.32,26.32,0,0,0-8.86-2.43,4.69,4.69,0,0,0-2.64.61A169,169,0,0,1,131.16,374,135.6,135.6,0,0,1,99,382.2c-5.43.74-10.9.8-16.37,1-6.07.23-12.14.65-18.2.39-5.67-.25-11.35-.09-17-.26l-.93-6.47c-.09-.63-.16-1.26-.25-1.89s.14-.7.67-.54a53.88,53.88,0,0,0,9,1.78,95.62,95.62,0,0,0,18.14.43c3.13-.22,6.26-.51,9.39-.77.48,1.09,1.44,1,2.32.81S87.78,376.64,88,375.36Z" transform="translate(26)"/><path class="cls-3" d="M48.15,388.13a13.27,13.27,0,0,1-.65-4.1,1.83,1.83,0,0,1,1.36-.34c5.56-.18,11.11.1,16.66.31a112.78,112.78,0,0,0,13-.26c2.07-.16,4.15-.27,6.22-.26a125.15,125.15,0,0,0,28-3.35,145.07,145.07,0,0,0,32.63-11.82,11,11,0,0,1,8.07-.94,29.45,29.45,0,0,1,5.3,1.92c1.36.65,1.44,1.22.3,2.16a115.81,115.81,0,0,1-20.56,13.83,59.94,59.94,0,0,1-5.67,3.12c-.94.36-1.92.53-2.85.9H55.16c-.16-.28.2-.51.06-.84H49.76A2.45,2.45,0,0,1,48.15,388.13Z" transform="translate(26)"/><path class="cls-3" d="M195.32,389.3H158.6c.09-1,1-.93,1.6-1.12,3.48-1.06,7-2.14,10.35-3.45a90.74,90.74,0,0,0,10.49-5c3.31-1.8,6.5-3.77,9.62-5.86,1.18-.8,1.57-.66,2,.69,1.25,4.47,2.12,9,2.93,13.59A1.24,1.24,0,0,1,195.32,389.3Z" transform="translate(26)"/><path class="cls-2" d="M130,389.3c.67-.79,1.73-.71,2.56-1.16,3.39-1.83,6.88-3.52,10.18-5.53a137.49,137.49,0,0,0,12.46-8.43c1.38-1.07,2.76-2.15,4.09-3.29,1-.87-.19-1.08-.56-1.26a28.68,28.68,0,0,0-6.43-2.18,8.94,8.94,0,0,0-6.09.86,157.51,157.51,0,0,1-23.47,9.51,147.61,147.61,0,0,1-18.32,4.3,103.19,103.19,0,0,1-13,1.45c-4.21.22-8.44.17-12.65.49a89.38,89.38,0,0,1-11.57.41q-9.87-.5-19.73-.44v-.69a1.23,1.23,0,0,1,1.2-.36,40.2,40.2,0,0,0,4.91.07c6.71-.07,13.42.45,20.13.25,4.7-.15,9.38-.55,14.1-.53a79.78,79.78,0,0,0,10-.71c3.38-.41,6.74-1.07,10.1-1.67a117.3,117.3,0,0,0,19.23-5.14,138.66,138.66,0,0,0,18.38-7.77,9.75,9.75,0,0,1,7.32-1,25.28,25.28,0,0,1,7,2.57c1.26.75,1.34,1.58.23,2.57a94,94,0,0,1-7.9,6.16c-5.66,4.11-11.82,7.39-17.88,10.84-.44.25-.91.46-1.37.69Z" transform="translate(26)"/><path class="cls-2" d="M195.32,389.3a82.6,82.6,0,0,0-1.54-8.54c-.39-2-.93-4-1.44-6-.34-1.33-.41-1.36-1.5-.59a111.3,111.3,0,0,1-14.57,8.45,94.88,94.88,0,0,1-15.55,5.76c-.74.22-1.6.21-2.12.94h-1.68c0-.71.35-1,1-1.22a149.06,149.06,0,0,0,14.24-4.83,106.78,106.78,0,0,0,17.57-9.66c2.56-1.71,2.89-1.54,3.72,1.4,1.32,4.71,2.1,9.53,3,14.31Z" transform="translate(26)"/><path class="cls-2" d="M48.15,388.13H56.5c-.58.56-1.17.64-1.34,1.17H48.44A2.5,2.5,0,0,1,48.15,388.13Z" transform="translate(26)"/><path d="M273.8,24.07v1.2a2.3,2.3,0,0,1-2.44,2.11c-1.47-.07-2.62-1.1-2.41-2.41.49-3.17-.23-6.27-.31-9.4,0-1.47-.2-2.94-.25-4.42a2.28,2.28,0,0,1,2-2.55h.13a2.25,2.25,0,0,1,2.44,2c0,.1,0,.2,0,.3Q273.37,17.5,273.8,24.07Z" transform="translate(26)"/><path d="M310.09,42.43a2.18,2.18,0,0,1-1.8,2.22,68.53,68.53,0,0,0-11.81,4.11c-1.56.65-2.89.31-3.44-1s0-2.54,1.61-3.21a71.51,71.51,0,0,1,12.48-4.35A2.27,2.27,0,0,1,310,41.67,2.19,2.19,0,0,1,310.09,42.43Z" transform="translate(26)"/><path d="M247.76,46.39a2.28,2.28,0,0,1-2.21,2.33,2.15,2.15,0,0,1-.62-.07c-3.06-.72-6.12-1.47-9.18-2.21a8.58,8.58,0,0,0-2.47-.36A2.16,2.16,0,0,1,231,44v0a2.23,2.23,0,0,1,1.8-2.46,5.7,5.7,0,0,1,2.5.07l10.45,2.53A2.24,2.24,0,0,1,247.76,46.39Z" transform="translate(26)"/><path class="cls-4" d="M303.5,66a8.9,8.9,0,0,1-2.47-.19,2.24,2.24,0,0,1-1.58-2.49,2.12,2.12,0,0,1,2.21-1.92,16.13,16.13,0,0,0,4.49-.4A2.25,2.25,0,0,1,309,62.43a1.67,1.67,0,0,1,.08.3,2.33,2.33,0,0,1-1.84,2.72l-.16,0A11.08,11.08,0,0,1,303.5,66Z" transform="translate(26)"/><path d="M258.07,33.55a2.18,2.18,0,0,1-1.12,2,2.09,2.09,0,0,1-2.37,0c-1.23-.88-2.57-1.57-3.86-2.36a2.3,2.3,0,0,1-1-3.08s0-.05,0-.08a2.23,2.23,0,0,1,3-.91,1,1,0,0,1,.17.1,33.33,33.33,0,0,1,4.16,2.55A2.38,2.38,0,0,1,258.07,33.55Z" transform="translate(26)"/><path d="M283.12,31c0-1,3.21-5.05,4.56-5.3a2.18,2.18,0,0,1,2.39,1,2.11,2.11,0,0,1-.16,2.67,30.49,30.49,0,0,0-2.74,3.47,2,2,0,0,1-2.56.74A2.33,2.33,0,0,1,283.12,31Z" transform="translate(26)"/><path class="cls-4" d="M239.43,63.61A2.19,2.19,0,0,1,237.34,62a2.07,2.07,0,0,1,.95-2.59,12,12,0,0,1,3.88-1.47,2.3,2.3,0,0,1,2.68,1.8,2.21,2.21,0,0,1-1.66,2.65l-.11,0a7.91,7.91,0,0,0-2,.75A4,4,0,0,1,239.43,63.61Z" transform="translate(26)"/><path class="cls-5" d="M20.13,265.22a83,83,0,0,1-2.65-11.53c-1.83-9.86-1.75-19.8-1.25-29.76A115.81,115.81,0,0,1,21.56,195a20.25,20.25,0,0,1,5.57-8.52,19.63,19.63,0,0,1,9.37-3.37,34.13,34.13,0,0,1,18,2.69,63.69,63.69,0,0,1,11.32,7c5.76,4.19,11.26,8.71,17.11,12.77a180.71,180.71,0,0,0,27.13,16c6.77,3.11,13.8,5.64,21.31,6.24,3,.23,5.84.91,8.79,1.12,1.51.1,2.87.94,4.37,1.25a39.12,39.12,0,0,1,12.82,4.9,10.17,10.17,0,0,1,4.34,5.54,25.62,25.62,0,0,1,1.16,9.8,45,45,0,0,1-3.13,13.48,31.34,31.34,0,0,0-2,6.9,1.42,1.42,0,0,1-.37.87c-1.1.46-2.2.89-3.29,1.37a14.4,14.4,0,0,0-5.08,4.25,2.65,2.65,0,0,1-1.62.91c-1.72.32-3.37.95-5.11,1.16a43.33,43.33,0,0,1-10.36-.54,68.35,68.35,0,0,1-22-7.7c-1.66-.88-3.36-1.69-5-2.53a48.85,48.85,0,0,1-13.24-9.81A66.41,66.41,0,0,1,83.32,248a146,146,0,0,1-9-15.45,23.17,23.17,0,0,0-1-2.36,2.75,2.75,0,0,0-2.25-2.56,2.26,2.26,0,0,0-2.64,2.66c1.07,3.36,1.52,6.85,2.33,10.26A78.92,78.92,0,0,0,83,268.32c5.25,7.39,12,12.86,21,15.24a71.14,71.14,0,0,0,12.67,1.74,90.05,90.05,0,0,0,10.89.54,99.47,99.47,0,0,0,21.15-3.25l1-.24c.59-.12.9.32,1.14.7s-.29.56-.48.83a114.59,114.59,0,0,1-23.81,12,86.68,86.68,0,0,1-21.5,4.27c-2.2.19-4.39.17-6.58.19-3.87,0-7.74.09-11.61,0-9.07-.14-18-1-26.66-4A70.38,70.38,0,0,1,43,287.83a90.93,90.93,0,0,1-14.82-12.3,57.33,57.33,0,0,1-6.92-8.08C20.84,266.74,20.54,266,20.13,265.22Z" transform="translate(26)"/><path class="cls-6" d="M157.4,271.7a21.72,21.72,0,0,1,1.31-5.79c1-3.18,2.5-6.23,3.09-9.53.86-4.83,1.35-9.66,0-14.53a11.18,11.18,0,0,0-5.78-7.23,42.33,42.33,0,0,0-12-4.21,2,2,0,0,1-.35-.07c-3.89-1.37-8-1.69-12-2.11a65.15,65.15,0,0,1-15.91-4c-8.65-3.17-16.44-7.92-24.25-12.67S76.6,201.21,69.36,195.73c-4.55-3.44-9.08-6.91-14.29-9.34a34.54,34.54,0,0,0-12.43-3.07,26.8,26.8,0,0,0-11.37,1.46c-1.38.52-2.71,1.15-4.06,1.73,3.54-4.46,8.26-6.7,13.75-8,7.94-1.9,15.1.25,22.19,3.3a103.91,103.91,0,0,1,22,13.34c3.08,2.34,6.35,4.44,9.61,6.54,4,2.56,7.84,5.23,11.55,8.16A59.38,59.38,0,0,0,118.5,217c5.52,2.52,11,5.18,16.67,7.29,2.35.88,4.83.94,7.26,1.37a10.54,10.54,0,0,0,7.35-1.43c1.22-.7,2.43-1.4,3.62-2.13,2.69-1.64,5.66-6.33,4-10.26a7.52,7.52,0,0,0-1.9-2.73,38.37,38.37,0,0,0-9.69-6.33c-4.26-1.95-8.79-3.11-13.14-4.78a80.4,80.4,0,0,1-21-11.88c-6.3-5-11.08-11.2-12.68-19.33a20.59,20.59,0,0,1,.78-9.7,40,40,0,0,1,7.41-14.38,34,34,0,0,1,9.75-8.23,71.21,71.21,0,0,1,26.94-9.06A73.9,73.9,0,0,1,155,124.9c.64,0,1,.15,1,.86a1.28,1.28,0,0,0,.26.78,37.26,37.26,0,0,1,3.35,10.17,37.07,37.07,0,0,0,2.82,10.48,8,8,0,0,0,2.14,3,4.15,4.15,0,0,0,5.8-.92,4.47,4.47,0,0,0,.5-.91,8.17,8.17,0,0,0,.6-6c-.61-1.86-3-12.41-4-15.72-.67-2.22-.71-2.21,1.63-2.51a42.56,42.56,0,0,0,14.66-4.95c2.3-1.22,4.65-2.31,7-3.51.63-.33.86-.23,1.24.4a94.15,94.15,0,0,1,5.17,9.59,29.28,29.28,0,0,1,1.65,5,18.4,18.4,0,0,1-5.24-2.94,3.86,3.86,0,0,0-2.25-1,2.27,2.27,0,0,0-2.39,1.61,2.22,2.22,0,0,0,1.13,2.64,19.86,19.86,0,0,1,2.66,1.82c-1.13.6-2.38.88-3.47,1.57a22.78,22.78,0,0,0-8.46,9.87,33.21,33.21,0,0,0-2,5,22.54,22.54,0,0,0,1.71,17.43c2,3.7,5.24,6.19,8.7,8.39,6.34,4,13.42,5.89,20.74,7.06a42.32,42.32,0,0,0,12,.1,21.48,21.48,0,0,1,3-.09,106.12,106.12,0,0,0,14.58-.82,2.76,2.76,0,0,1,3.28,1.85,46.88,46.88,0,0,1-18.44,6.26,126.73,126.73,0,0,1-21.78.08c-4.3-.26-8.62-.33-12.92-.58-4-.24-8.06-.28-12.1-.22-.81,0-1.14-.2-1.35-1.06-.65-2.71-1.47-5.38-2.19-8.07-.46-1.73-.91-3.46-1.24-5.22s-.8-3.13-2.52-3.85c-2.34-3.71-4.58-7.5-7.09-11.1a48.38,48.38,0,0,0-3.49-4.57c-1.52-1.7-2.68-3.68-4.05-5.5a62.71,62.71,0,0,0-4.08-5,12.44,12.44,0,0,0-9.06-4,25.36,25.36,0,0,0-9.83,1.11c-3.37,1.19-5.49,3.34-6,7-.43,3.07.24,5.95,1,8.87A45.69,45.69,0,0,0,132,168.65a31.57,31.57,0,0,0,9.37,10.11c1.19.87,2.29,1.87,3.52,2.7a2.15,2.15,0,0,1,.9.94,26.12,26.12,0,0,0,1.5,7.15c-1.3-1.31-2.54-2.22-3.15-3.76-.72-1.82-2.45-2-4.09-2.14-2.47-.18-5,.14-7.42-.19a2.26,2.26,0,0,0-2.3,2,2.33,2.33,0,0,0,1.71,2.45,17.69,17.69,0,0,0,4.65.25,9.73,9.73,0,0,0,1.08,0,3.39,3.39,0,0,1,3.48,1.63c2.39,3.18,5.71,5.32,9.14,7.23a4.91,4.91,0,0,1,1.72,1.58c4.05,5.88,8.48,11.49,14.26,15.74a78.3,78.3,0,0,0,11.9,7.66,35.94,35.94,0,0,0,6.53,2.31,3.38,3.38,0,0,0,2.57-.21,2.22,2.22,0,0,0,1-2.78,31.8,31.8,0,0,0-2.31-4.59c-.35-.63-.29-.93.36-1.28a46.66,46.66,0,0,0,5.17-3A93.82,93.82,0,0,0,203,203.19a30.92,30.92,0,0,1,11.35-7,7.14,7.14,0,0,1,3.17-.46,2.34,2.34,0,0,0,1.66-.55c.91-.74,1.29-.69,1.86.39q1.5,2.91,3,5.88c.68,1.39,1.29,2.82,1.94,4.24a7.16,7.16,0,0,1-1.19,1.79,41.89,41.89,0,0,0-6.29,10.15,48.39,48.39,0,0,0-3.7,17.48,56.69,56.69,0,0,0,1.27,13.56,14.06,14.06,0,0,0,2.7,6.07,5.59,5.59,0,0,0,5.6,1.88c1.07-.17,2.12-.44,3.16-.71a1.32,1.32,0,0,1,1.69.79.83.83,0,0,1,.06.21,3.41,3.41,0,0,1-1.33,3.92c-1.66,1.25-3.35,2.46-4.95,3.79-1,.86-1.05,1-.08,1.94a96.1,96.1,0,0,1,7.23,8,26.6,26.6,0,0,1,5.33,12.54,5.74,5.74,0,0,0,.21,1A56.84,56.84,0,0,0,242,277.49a5.24,5.24,0,0,1,1.41-2.06c.38-.32.77-.74,1.37-.42a57,57,0,0,1-1.52,12.81,181,181,0,0,1-5.7,20.18,20.2,20.2,0,0,1-3.64,6.41c-1.25,1.52-2.12,1.4-3-.38-1.65-3.4-4.1-6.28-6-9.5a4.87,4.87,0,0,1-.79-2.45c-.1-3.22.27-6.48-.44-9.68a10.53,10.53,0,0,0-1.78-4.4,5.45,5.45,0,0,0-6.25-1.82,12.52,12.52,0,0,0-1.69.59c-1.33.55-1.34.57-1.81-.86-.86-2.64-2.39-4.63-5.25-5.19a7.21,7.21,0,0,0-5.76,1.61,42.17,42.17,0,0,1,3.87-7.75c2.57-3.9,6.26-6.44,10.2-8.7.52-.3,1.07-.56,1.59-.86a2.28,2.28,0,0,0,1.09-3.22,2.3,2.3,0,0,0-3.14-.86l-.08.05a59.42,59.42,0,0,0-6.93,4.27c-.46.3-.9.61-1.48,1-.11-1.52-.21-2.85-.31-4.19-.51-6.77-.91-13.55-1.55-20.31-.52-5.56-1.52-11.06-2.44-16.57-.19-1.14-.41-2.28-.68-3.41a2.35,2.35,0,0,0-2.73-1.9h0a2.29,2.29,0,0,0-1.75,2.71c0,.05,0,.1,0,.15,1.32,6.3,2.23,12.66,3,19,.51,4.2.75,8.43,1,12.66.33,5.3.9,10.58,1,15.9a1.62,1.62,0,0,1-.19,1.14c-2.57,3.43-4,7.42-5.82,11.26a110.23,110.23,0,0,0-5.19,12.09c-1.18,3.57-3,6.89-3.85,10.55-.09.36-.17.78-.6.74-.63-.06-.24-.6-.23-.85.2-4-1.71-7.58-2.79-11.31-.13-.42-.27-.84-.46-1.41a12.56,12.56,0,0,0,5.62-.26,4.53,4.53,0,0,0,2.68-1.89,1.71,1.71,0,0,0,.25-1.39c-1.22-4.37-2.49-8.79-6.4-11.6a2.54,2.54,0,0,1-1.16-3.31c1.12-3.94-1-6.8-3.82-9-3.11-2.34-6.62-2.41-10.19-.73a11.34,11.34,0,0,0-4.09,3,6.77,6.77,0,0,0-1.38,2.74c-.1.42-.15.92-.79.82A12.54,12.54,0,0,0,157.4,271.7Z" transform="translate(26)"/><path class="cls-5" d="M82.74,170.86c-5.7.06-11.41.56-17.1-.39-3.36-.56-6.09-2.3-8.89-4a21,21,0,0,1-7.32-7.64c-3.76-6.52-8.9-11.86-14-17.3a90,90,0,0,1-11-14.76c-3.23-5.33-3.89-11.26-3.51-17.34.64-10.12,4.12-19.3,9.29-27.91C35.13,73.32,42.68,69.89,52,69.58c10.27-.34,19.82,2.28,29,6.69,5.08,2.44,8.85,6.34,12.56,10.38a39.66,39.66,0,0,1,7.72,12.87,10.18,10.18,0,0,1,.54,1.7,2.2,2.2,0,0,0,2,1.94,2.92,2.92,0,0,0,2.57-1.28c.24-.29.07-.61,0-.92a32.41,32.41,0,0,0-1.58-4.89c.14-.36.48-.19.71-.24,1-.22,2.43-.73,3-.07.79.94.81,2.43.82,3.78,0,3.35-1.48,6-3.29,8.77-2.8,4.24-6.33,7.82-9.52,11.7-.15.17-.26.41-.66.41a55.06,55.06,0,0,0-2.48-9.54A101.13,101.13,0,0,0,73.83,77.09a3.89,3.89,0,0,0-2.38-1.48c-1.76-.26-2.58.2-3.13,1.93a2,2,0,0,0,.22,1.94A95.46,95.46,0,0,1,77.8,102.8c1.08,4,2.45,7.87,3.16,11.93a42.94,42.94,0,0,1,.89,9.53,45.63,45.63,0,0,1-1.56,9.57,46.32,46.32,0,0,0-1.24,8.52c-.09,1.19-.24,2.38-.29,3.58-.28,6.72,1,13.19,2.83,19.61.38,1.34.85,2.66,1.13,4A1.82,1.82,0,0,1,82.74,170.86Z" transform="translate(26)"/><path class="cls-5" d="M242.85,183.13c-1.1-1.81-2.81-1.64-4.55-1.42a75.35,75.35,0,0,1-11.91.7c-3.68-.14-7.31.62-11,.49a60.38,60.38,0,0,1-14.19-2.34,45.61,45.61,0,0,1-14.83-7,20.65,20.65,0,0,1-8.77-14.88,24.91,24.91,0,0,1,2.19-13.18,27.7,27.7,0,0,1,5.07-8,17,17,0,0,1,6.75-4.6,4.79,4.79,0,0,1,1.07-.09,94.75,94.75,0,0,0,9.2,4.28c-.73.82-1.44,1.55-2.06,2.35a22,22,0,0,0-4,10.39,53.39,53.39,0,0,0-.28,9.46,2.33,2.33,0,0,0,2.1,2.54h.17a2.37,2.37,0,0,0,2.31-2.43,1.79,1.79,0,0,0,0-.23,50,50,0,0,1,.26-8.74c.7-4.36,2-8.38,6-10.94a2,2,0,0,1,1.9-.27A51.27,51.27,0,0,0,219,141.5c.7.08.83.39.7,1-1.41,7.08,1.13,12.9,5.78,18,.24.27.47.54.71.8a2.29,2.29,0,0,0,3.13.32,2.16,2.16,0,0,0,.52-3l-.07-.09c-.83-1.11-2-2-2.72-3.17-2.15-3.46-3.86-7.12-3-11.37.5-2.48,1.32-3.09,3.85-3.11a39,39,0,0,0,11.71-2.26c.8-.26,1-.12,1.38.58a11.2,11.2,0,0,0,8.15,6.59,2.33,2.33,0,0,0,2.89-1.59v0a2.19,2.19,0,0,0-1.52-2.7l-.16,0a7.28,7.28,0,0,1-5.2-4,1.26,1.26,0,0,1,.19-1.77,1.49,1.49,0,0,1,.3-.18A28.31,28.31,0,0,0,258.59,115,44.25,44.25,0,0,0,256,92v-.23a2.22,2.22,0,0,1,1.93.38,9.33,9.33,0,0,1,3.69,3.16,50.13,50.13,0,0,0,4.68,6.37c2,2.4,2.92,5.32,3.88,8.19,1.58,4.76,2.68,9.66,2.24,14.71s-.38,10.29-1.32,15.38c-.53,2.87-.7,5.8-1.48,8.62a62.54,62.54,0,0,1-3.08,9.3,19,19,0,0,0-1.39,4c-.34,1.72-1.49,3.17-2.34,4.69a22.45,22.45,0,0,0-1.46,3,48.88,48.88,0,0,1-15,11.83Z" transform="translate(26)"/><path class="cls-2" d="M113.65,103.44c.27-2.93.5-5.84-.39-8.76-.7-2.32-2.16-3.68-4.63-3.69-1.85,0-3.77-.31-5.39,1-.36.29-.47-.12-.58-.35a51,51,0,0,0-3.37-5.22c.45-.41.91-.17,1.35,0a37.4,37.4,0,0,0,14.55,1.82A34.8,34.8,0,0,0,129,84.59a43.78,43.78,0,0,0,10.53-8.17,11.68,11.68,0,0,0,1.43-1.92,46.16,46.16,0,0,0,5.19-9.7,21.53,21.53,0,0,0,.81-11,2.7,2.7,0,0,1-.07-1.64,41.73,41.73,0,0,1,18.55,9.23c2.81,2.42,6,4.5,8.19,7.52,2.68,3.65,5.82,6.9,8.63,10.43,2.18,2.73,5,4.83,7.61,7.11,3.82,3.3,8.09,6,11.9,9.29A40.6,40.6,0,0,1,210.62,106a15.86,15.86,0,0,1,2,7.58c.12,3.63,0,7.28,0,10.92a64.84,64.84,0,0,0,.5,8,26.13,26.13,0,0,1-3.7-3.88c-.5-.63-.91-1.32-1.38-2-.64-.88-1.23-1.63-.11-2.71.77-.74.26-1.9.13-2.88a17.34,17.34,0,0,0-3.62-8.62c-2.62-3.28-6.95-4.31-11.17-2.81a74.31,74.31,0,0,0-10.65,4.9,42.58,42.58,0,0,1-16.75,5.29c-4,.36-8,.41-12,.4a77.61,77.61,0,0,0-35.78,8.36,44.84,44.84,0,0,0-14.29,10.9,42.53,42.53,0,0,0-5.37,8.34,40.59,40.59,0,0,0-4.07,12.7A23.76,23.76,0,0,0,96.47,174a45.37,45.37,0,0,0,17,18.91,106.63,106.63,0,0,0,20.47,10.36c.06,0,.09.11.18.24a10.18,10.18,0,0,0-2.94,3.32,6.2,6.2,0,0,0-2.49-1.42,99.28,99.28,0,0,1-21.18-11.83c-2.93-2.22-6-4.2-8.83-6.59-1.55-1.31-2.62-3-4-4.41a49.18,49.18,0,0,0-6-5.16c-.34-.24-.77-.43-.91-.9,2.18-.61,2.75-1.31,2.67-3.67a87.43,87.43,0,0,0-.89-12.63c.28-2.92,1.68-5.48,2.74-8.14a25,25,0,0,0,1.07-3.05A28.71,28.71,0,0,1,100,136.71a89.25,89.25,0,0,1,8-7.92,28.92,28.92,0,0,1,8.27-5.26c5.86-2.34,11.51-5.26,17.75-6.55q6.81-1.42,13.7-2.4a120,120,0,0,1,12.4-1.24c3.56-.14,7-1.1,10.53-1.71a9.19,9.19,0,0,1,1.29-.25c3.33-.16,6.19-1.74,9.18-2.94a3.48,3.48,0,0,0,1.11-.7,1.59,1.59,0,0,0,.42-1.86A1.52,1.52,0,0,0,181,105a3.91,3.91,0,0,0-1.16.31A46,46,0,0,1,166,107.92c-3.07.19-6.14.19-9.21.37a35.58,35.58,0,0,1-13.46-1.92l-4.44-1.49c-.52-.18-1.08-.33-1.28-1,.58-.94,1.5-.53,2.27-.48q3.81.24,7.64.44a20.94,20.94,0,0,0,8.52-1.65c3.25-1.21,6.42-2.65,9.66-3.91a69.44,69.44,0,0,1,8.3-2.73c1.54-.39,2.35-1.36,2.09-2.43s-1.54-1.7-3.12-1.32a87.86,87.86,0,0,0-13.53,4.83c-1.91.81-3.88,1.47-5.8,2.27-3.06,1.28-6.24,1.13-9.44.87a33.46,33.46,0,0,0-9.89.19,2.24,2.24,0,0,0-2,1.75,1.48,1.48,0,0,1-.39.86,2.43,2.43,0,0,1-1.64,0,46.3,46.3,0,0,0-6.75-.74,26.24,26.24,0,0,0-8.43,1.4C114.65,103.44,114.18,103.75,113.65,103.44Z" transform="translate(26)"/><path class="cls-3" d="M113,368.7c-1.25-1.49-2.86-.86-4.35-.68-4.83.59-9.64,1.24-14.47,1.85-5.06.63-10.11,1.31-15.19,1.83a104.07,104.07,0,0,1-18,.39,58.93,58.93,0,0,1-16.14-3.16A4,4,0,0,1,42.34,367c-1.28-2.47-3.32-4.37-5.1-6.47a29.78,29.78,0,0,1-6.58-15.66,32.09,32.09,0,0,1,.06-8.59c.77-.48,1.39.07,2,.33a134.26,134.26,0,0,0,18,6A96.52,96.52,0,0,0,67,345.09q6.81.59,13.63.62c4.39,0,8.78-.33,13.16-.59,4.75-.29,9.48-.75,14.22-1.07,5.74-.4,11.43-1.32,17.1-2.29,7.06-1.21,14.1-2.49,21.21-3.33,3.72-.44,7.47-.74,11.23-.86a53.16,53.16,0,0,1,8.37,0,28.37,28.37,0,0,1,6.47,1.73c1.16.43,1.22,1,.26,1.8a73,73,0,0,1-9.62,6.95,185.77,185.77,0,0,1-32.93,16.07,20.23,20.23,0,0,1-4.1,1.18c-3,.42-5.68,1.9-8.61,2.54C115.91,368.16,114.51,368.84,113,368.7Z" transform="translate(26)"/><path class="cls-3" d="M117.53,333.93a2.87,2.87,0,0,0-2-.56c-4.18.31-8.36.68-12.54.87-5.39.26-10.78.48-16.18.21s-10.66-.9-16-1.33a54.62,54.62,0,0,1-12.67-2.32c-5-1.65-10.33-2.41-15.35-4.14-4.37-1.51-8.42-3.44-11.23-7.36a28.62,28.62,0,0,1-4.82-9.81,64.81,64.81,0,0,1-2.21-15.36c0-1.79.26-3.58.41-5.37a1,1,0,0,1,.7-.87,1,1,0,0,1,1.16.42c4.36,4.56,9.85,7.5,15.32,10.36a125.4,125.4,0,0,0,31.25,11.19c.58.13,1.15.32,1.72.48,3.66,2,7.21,4.14,11,5.93a113.31,113.31,0,0,0,11,4.85A76.87,76.87,0,0,0,109,323.9a140.64,140.64,0,0,0,17.94,2.33,97.16,97.16,0,0,0,13.65-.1,15.46,15.46,0,0,1,1.8-.05c3.32.12,6.62-.22,9.94-.3.42,0,1-.22,1.15.32s-.4.73-.78.93a35.17,35.17,0,0,1-7.16,2.71,121.51,121.51,0,0,1-20.73,3.76A41,41,0,0,1,117.53,333.93Z" transform="translate(26)"/><path class="cls-7" d="M146.85,52.15a20.82,20.82,0,0,1-.94,14c-2.26,5.19-5.1,10-9.49,13.75a26.88,26.88,0,0,1-5.13,3.87c-2,1-4,2.1-6.13,2.92a41.5,41.5,0,0,1-8.1,1.68,38.35,38.35,0,0,1-5.25.21,35.43,35.43,0,0,1-11-1.78,3.71,3.71,0,0,0-1.5-.36c-1.23-1.42-2.41-2.88-3.69-4.25a51.21,51.21,0,0,0-5.06-4.93c-.43-.36-.6-.59-.15-1.13a38.5,38.5,0,0,1,8.22-8,33.18,33.18,0,0,0,3.51-2.86,2.22,2.22,0,0,0,.48-2.93,2.35,2.35,0,0,0-2.94-.85c-3.07,1.24-5.36,3.57-7.82,5.64a42.14,42.14,0,0,0-5.27,5.58,1.35,1.35,0,0,1-1.82.54l-.18-.12C80,70.91,75.44,68.47,70,67.35a42.52,42.52,0,0,1,3.4-2.89,26.34,26.34,0,0,1,9.72-3.88c1.61-.33,3.14-.88,4.71-1.32,6.22-1.75,12.61-2.75,18.87-4.29A63.23,63.23,0,0,1,117,53a32.74,32.74,0,0,1,4.43-.12c4.23.23,8.35-.54,12.5-1.08a38.76,38.76,0,0,1,11.58.2Z" transform="translate(26)"/><path class="cls-6" d="M20.13,265.22a3.27,3.27,0,0,1,.47.51c2.92,4.88,6.91,8.88,11,12.69a83.2,83.2,0,0,0,20.52,14.31,70.27,70.27,0,0,0,21.06,6.35c2.92.4,5.86.49,8.79.77a91.38,91.38,0,0,0,9.79.28c4.29,0,8.6.07,12.91-.3a91.21,91.21,0,0,0,18.63-3.17A94,94,0,0,0,141.2,289c2.69-1.47,5.37-3,8-4.63a2.09,2.09,0,0,1,1.22-.44,28.1,28.1,0,0,0-2.12,3.74c-1.73,4.24-.61,7.12,3.81,9.49a16.24,16.24,0,0,0-3.88,4.65,6.37,6.37,0,0,0,1.24,8.18,11.48,11.48,0,0,0,5.26,3c.3.07.66,0,.9.36a1.24,1.24,0,0,1-1,.36,170.43,170.43,0,0,1-27.3-.12c-4.81-.48-9.64-.64-14.44-1.25-6-.77-12-1.58-17.88-2.62a312.1,312.1,0,0,1-30.68-6.95,128.89,128.89,0,0,1-19.11-7.6c-4-1.87-7.84-4.11-11.71-6.28a17.67,17.67,0,0,1-6.72-7c-3-5.13-4.82-10.69-6.59-16.28A1,1,0,0,1,20.13,265.22Z" transform="translate(26)"/><path class="cls-5" d="M244.73,275.05a3.37,3.37,0,0,0-2.33,2.23c-1.69,4.17-4.22,7.84-6.86,11.68-.3-1.52-.55-2.89-.85-4.25A25.58,25.58,0,0,0,229,273.65a84.08,84.08,0,0,0-6.7-7.17c-.92-.86-.64-1.29.17-1.88,1.83-1.34,3.64-2.71,5.44-4.09a3.14,3.14,0,0,0,1-3.65c-.26-.59-.56-.85-1.29-.64a24.09,24.09,0,0,1-3.84.82c-3.7.43-5.6-1.57-7-5a35.36,35.36,0,0,1-2-9.53,66.93,66.93,0,0,1-.19-8.73,47.58,47.58,0,0,1,2.58-13.3c1.64-5.32,4.8-9.75,8.16-14.08a5.33,5.33,0,0,1,.71-.63c5.91,12.52,10.21,25.61,14,38.91a133,133,0,0,1,4.43,22.63A45.5,45.5,0,0,1,244.73,275.05Z" transform="translate(26)"/><path class="cls-7" d="M137.69,103.92a35.27,35.27,0,0,0,6.38,2.32A33.8,33.8,0,0,0,156.53,108c6.93-.39,13.94-.07,20.71-2.1.92-.28,1.8-.63,2.69-1,1.34-.52,2.51-.24,3,.77a2.12,2.12,0,0,1-1,2.81l-.3.11c-3.26,1.42-6.48,2.89-10.11,3.31s-7,1.25-10.55,1.82c-1.61.26-3.25.07-4.89.24-2.88.3-5.76.6-8.62,1-4,.61-7.9,1.31-11.85,2a57.17,57.17,0,0,0-12.67,4.16c-3,1.3-6.18,2.35-9.1,3.93a35.69,35.69,0,0,0-5.76,4c-2.06,1.71-3.9,3.66-5.79,5.55a31.43,31.43,0,0,0-8.85,15.16,39.26,39.26,0,0,1-2.56,6.44c-.58,1.31-.58,2.8-1.37,4-.84-4.82-1.72-9.64-1.15-14.59a30,30,0,0,1,2.06-8.44,29,29,0,0,1,3.51-5.56c2.44-3.35,4.49-7,7.29-10.08a75.23,75.23,0,0,0,6.88-8.13c1.22-1.83,2.48-3.62,3.72-5.44a15.85,15.85,0,0,0,1.82-4.64,25.35,25.35,0,0,1,11.45-1.87c2.29.18,4.56.62,6.84.94.07,0,.18,0,.22.07,1.09,1.5,2.6,1.42,4.18,1.14A1.45,1.45,0,0,1,137.69,103.92Z" transform="translate(26)"/><path class="cls-5" d="M145.84,182.4c-2.1-1.25-3.87-2.92-5.83-4.36a28.58,28.58,0,0,1-7.59-8.17,44.94,44.94,0,0,1-5-12.35,28.94,28.94,0,0,1-1.18-7.39,9.32,9.32,0,0,1,2.52-6.86,10.3,10.3,0,0,1,4.37-2.36,27.12,27.12,0,0,1,12.28-.54c3.36.55,5.62,2.68,7.69,5.1s3.85,5.38,6,7.92a122.49,122.49,0,0,1,9.18,13.09c.72,1.15,1.39,2.33,2.08,3.49.11.18.25.33,0,.5a17.31,17.31,0,0,0-8.83-2.93,12.78,12.78,0,0,0-9.74,3.42A15.63,15.63,0,0,0,145.84,182.4Z" transform="translate(26)"/><path class="cls-8" d="M261.34,169.59a2.93,2.93,0,0,1,.5-2.05c1-1.41,1.55-3.07,2.56-4.46.78-1.07.29-2.43,1-3.52,1.69-2.7,2.25-5.85,3.3-8.8a36.1,36.1,0,0,0,1.77-8.85c.19-2,.71-4,.86-6,.07-.9.28-1.85.28-2.72,0-4.35,1-8.67.49-13a57,57,0,0,0-2.71-11.81c-1.31-3.89-3.66-7-6.17-10.13a6.67,6.67,0,0,1-.77-1.06A10,10,0,0,0,256,91.73c-1.55-3.19-3.16-6.36-4.64-9.58a17.17,17.17,0,0,1-1.25-7.63c0-2.07,1.72-2.93,3.49-1.9a13.2,13.2,0,0,1,3.8,3.26c4.38,5.6,10.35,7.9,17.22,8.38.87.06,1.75.09,2.63.16a4.58,4.58,0,0,1,4.5,4.64c0,.14,0,.29,0,.43a36.87,36.87,0,0,1-1.41,8,58,58,0,0,0-1.62,14.73c0,5.19.18,10.4-.57,15.57-1.54,10.73-3.41,21.38-8.88,31A56.28,56.28,0,0,1,261.34,169.59Z" transform="translate(26)"/><path class="cls-9" d="M286.41,73.92c-1.53-.13-3.27.29-5,.24a6.24,6.24,0,0,1-1.06-.1,1.94,1.94,0,0,1-1.87-1.92,31.35,31.35,0,0,0-2.13-8.68,3.14,3.14,0,0,0-4.14-1.6,3.06,3.06,0,0,0-1,.7,5.14,5.14,0,0,0-1.34,2.5c-.74,2.73-1.7,5.41-1.78,8.28,0,.46-.18.63-.63.63H262.3a1.44,1.44,0,0,1-1.07-.68,17.82,17.82,0,0,0-3-3c-.56-.44-.47-.78-.11-1.28,1.87-2.63,3.72-5.29,5.57-7.94.78-1.1.91-2.45,1.39-3.67.23-.55-.33-.51-.66-.54a53.18,53.18,0,0,1-9.28-1.7c-1.34-.35-1.44-.54-.67-1.73,1.26-1.93,3.16-3.15,5-4.44,1.65-1.17,3.26-2.45,5.45-2.58.83,0,1.35-1.34,1.11-2.35-.87-3.76,2.55-7.6,6.36-6.86,3.16.61,5.8,3.27,3.57,7.18-.31.55-.33.77.38,1a40.31,40.31,0,0,1,5.82,2.17,12,12,0,0,1,5.1,4.72c.35.56.12.66-.34.8A54.44,54.44,0,0,1,280.12,55c-1.08.19-1.35.52-.88,1.5A24.6,24.6,0,0,0,282,60.71a103.59,103.59,0,0,1,7.16,9.89c.57,1,1.45,2.11.95,3s-1.85.26-2.82.31C287,73.93,286.85,73.92,286.41,73.92Z" transform="translate(26)"/><path class="cls-5" d="M159.08,51.62a44.18,44.18,0,0,0-28.78-4c-.87.14-1.74.24-2.84.39,2.48-3.66,4.59-7.33,8.36-9.6a38.71,38.71,0,0,1,10-4.3,10.12,10.12,0,0,1,5.46,0,53.74,53.74,0,0,1,20.08,10.08C175.83,48,179,52.85,182,57.78a85.35,85.35,0,0,1,6.94,15c-.75.2-.93-.45-1.24-.86-1.55-2-3-4.14-4.47-6.22A27.28,27.28,0,0,0,174,57.92,80,80,0,0,0,159.08,51.62Z" transform="translate(26)"/><path class="cls-6" d="M82.74,170.86A130.79,130.79,0,0,1,79,155.74a59.83,59.83,0,0,1-.39-12.26c.27-5,1.47-9.73,2.36-14.56a31.3,31.3,0,0,0,.19-10.31C79.58,108,76.27,98,72.44,88.06a54.06,54.06,0,0,0-4.1-8.24,1.73,1.73,0,0,1,0-2.28A2.29,2.29,0,0,0,70,80a2,2,0,0,1,.9.76,94.29,94.29,0,0,1,19.81,37.6,24.09,24.09,0,0,1,.84,5.78,1.76,1.76,0,0,0,.06.59c1,1.36,0,2.23-.73,3.18-2.63,3.63-5.22,7.26-6.23,11.76a42.32,42.32,0,0,0-.42,17.68,65,65,0,0,1,1.39,12.36c0,1-.25,1.37-1.24,1.23A11.33,11.33,0,0,0,82.74,170.86Z" transform="translate(26)"/><path class="cls-6" d="M73.32,230.23c.53.2.59.73.78,1.14a137.25,137.25,0,0,0,11.34,19.25,54.28,54.28,0,0,0,21.35,18.63c5.1,2.46,10.09,5.13,15.46,7a62.69,62.69,0,0,0,10.66,2.47c3.12.47,6.26.43,9.39.71a78.86,78.86,0,0,1-10,1.61c-7.89.86-15.73-.05-23.52-1.1-8.08-1.09-14.52-5.15-19.82-11.32-4.63-5.4-7.62-11.67-10.32-18.13S74.61,237.1,73.32,230.23Z" transform="translate(26)"/><path class="cls-10" d="M163.16,275.05a8.55,8.55,0,0,1,2.14.22,2.53,2.53,0,0,0,2.91-2.08,2.49,2.49,0,0,0,0-.77,2.85,2.85,0,0,1,.63-1.88c1.33-1.78,4.76-3.37,7.17-2.34,3.1,1.33,4.66,4.72,1.82,7.82a1.6,1.6,0,0,0,.46,2.73c1.51.88,3,1.73,4.47,2.73a10.85,10.85,0,0,1,3.77,4.55c.73,1.64.36,2.21-1.45,2.11a40.69,40.69,0,0,1-6.8-.45,1.16,1.16,0,0,0-1.35.43,1.13,1.13,0,0,0,0,1.33,39.29,39.29,0,0,1,4.18,13,44.84,44.84,0,0,1,.2,4.78c0,.65-1.06,1.18-1.9.86-2.06-.78-4.24-1.14-6.32-1.84-1.7-.57-2-1.12-1.78-2.87.4-2.92,1.06-5.83.65-8.82a2.8,2.8,0,0,0-.68-1.74c-1-1-2.2-1-2.93.27-.52.88-.83.81-1.26,0a58.77,58.77,0,0,0-3.39-5.79,1.83,1.83,0,0,1-.21-1.59c.44-1.54.2-2-1.33-2.18a3.63,3.63,0,0,1-2.42-1.34,30.55,30.55,0,0,0-4.06-3.9c-.32-.25-.75-.51-.08-.85A17.89,17.89,0,0,1,163.16,275.05Z" transform="translate(26)"/><path class="cls-11" d="M177,216a59.88,59.88,0,0,1-24.61-26.37c-1.49-3.11-2.79-6.37-1.49-9.91a12.13,12.13,0,0,1,7.77-7.59,4.16,4.16,0,0,1,1.79,0c.63.24.49.85.64,1.32,1.25,3.85,1.78,7.86,2.78,11.77a97.2,97.2,0,0,0,6.69,19.33c.64,1.29,1.3,2.57,1.89,3.88a22.26,22.26,0,0,0,3.69,5.43,5.79,5.79,0,0,1,1.09,1.71C177.37,215.77,177.51,216.09,177,216Z" transform="translate(26)"/><path class="cls-3" d="M131,215.54c.27.68,1,1.63.56,2s-1.26-.51-1.94-.74a65.83,65.83,0,0,1-7-2.92c-4.64-2.18-9.32-4.28-13.42-7.44a107.42,107.42,0,0,0-9.44-6.84c-3.29-2-6.34-4.39-9.57-6.49-4.7-3.05-9-6.72-13.83-9.53-7-4-14.21-7.67-22.16-9.64a30.81,30.81,0,0,0-14.1.16c-4.13.87-8.13,2-11.52,4.71-1.48,1.17-2.8,2.5-4.18,3.83-.21-.43.14-.6.3-.83,4.26-6.24,10.09-10.74,16.41-14.67,1.66-1,3.43-1.88,5.1-2.91.85-.52,1.3-.29,1.85.43,3.72,4.75,8.71,7.65,14.27,9.71a15.12,15.12,0,0,0,1.73.44,15.24,15.24,0,0,0,2.85,1.51c8.55,3.48,16.16,8.53,23.68,13.78a142.84,142.84,0,0,1,11.87,8.9,78,78,0,0,0,11,8.11,72,72,0,0,0,16.34,7.7A1.58,1.58,0,0,1,131,215.54Z" transform="translate(26)"/><path class="cls-12" d="M131,215.54A78.59,78.59,0,0,1,120,211.07a85.85,85.85,0,0,1-16.12-10.61C98.56,195.83,92.71,192,87,188a136.41,136.41,0,0,0-17.5-10.29c-1.36-.68-2.88-.95-4.15-1.82-.45-.31-1-.46-1.25-1a57.22,57.22,0,0,0,12.4.78,4.67,4.67,0,0,1,4.38,1.59,16.17,16.17,0,0,0,3.78,3.11,38.68,38.68,0,0,1,7.23,6.59,67,67,0,0,0,10.67,8.85c2.37,1.68,4.63,3.53,7.11,5.07A111.94,111.94,0,0,0,128,210.23c.33.12.75.33,1,.23,1.49-.51,1.33.48,1.25,1.34A12.56,12.56,0,0,0,131,215.54Z" transform="translate(26)"/><path class="cls-13" d="M177,216a4.59,4.59,0,0,0-1.58-2.5,29.46,29.46,0,0,1-4-6.49,91.24,91.24,0,0,1-6.09-15.29c-1.63-5.33-2.72-10.78-3.92-16.2-.25-1.15-.64-2.27-1-3.41a11.51,11.51,0,0,1,4.24.56,4.89,4.89,0,0,1,3.57,3.42c2.44,7.8,4.14,15.8,6.54,23.61,1.94,6.32,3.69,12.71,6.88,18.65A17.63,17.63,0,0,1,177,216Z" transform="translate(26)"/><path class="cls-2" d="M113,368.7c2.52-.72,5-1.46,7.56-2.17a127.24,127.24,0,0,0,21.11-7.46c8.74-4.22,17.47-8.43,25.42-14.06,2-1.38,3.81-2.88,5.7-4.32.53-.4.58-.74-.12-1a28.47,28.47,0,0,0-13.82-1.81c-1.89.23-3.82.11-5.73.28-4,.36-8.06.67-12.06,1.36-4.18.72-8.38,1.34-12.57,2s-8.6,1.5-12.91,2.1c-2.83.4-5.7.52-8.54.77-3.4.31-6.8.64-10.2.93-1.39.12-2.79.16-4.17.21a77,77,0,0,1-7.89.31c-1.07-.06-2.12.29-3.21.25-5.76-.23-11.52-.44-17.27-.93-11-.93-21.44-4.15-31.62-8.29a4.45,4.45,0,0,0-1.91-.63V336a1.66,1.66,0,0,1,2-.2,133.85,133.85,0,0,0,19,6.3,95.34,95.34,0,0,0,11,1.87,153.84,153.84,0,0,0,23.51.87c4.36-.14,8.73-.38,13.08-.88,2.48-.28,5-.28,7.49-.52,4.78-.45,9.55-.91,14.28-1.76,4.18-.75,8.38-1.39,12.56-2.07,3.88-.62,7.75-1.27,11.64-1.84,1.84-.26,3.7-.42,5.56-.55,4.61-.32,9.23-.63,13.86-.49,3.15.1,6.07,1.22,9,2.23.8.27.82,1.32.09,2.1a32.74,32.74,0,0,1-4.45,3.6c-7.39,5.44-15.49,9.66-23.71,13.67a100,100,0,0,1-17.13,7c-4.63,1.28-9.16,2.9-13.86,4-.56.12-1-.15-1.52-.13Z" transform="translate(26)"/><path class="cls-6" d="M159.08,51.62c1.34-.18,2.45.55,3.63,1A58,58,0,0,1,179.16,61a28.93,28.93,0,0,1,5.61,6.33c1.16,1.56,2.25,3.18,3.36,4.78a1.49,1.49,0,0,0,.79.69,58.07,58.07,0,0,1,3.22,9.5,43.39,43.39,0,0,1-6.69-6.16c-3.18-3.89-6.21-7.94-9.68-11.56A66.88,66.88,0,0,0,159.08,51.62Z" transform="translate(26)"/><path class="cls-2" d="M117.53,333.93c.23-.38.62-.3,1-.31a122.21,122.21,0,0,0,16.07-1.85A83.76,83.76,0,0,0,148,328.55a17.31,17.31,0,0,0,5.21-2.42c-1.62.23-3.24-.09-4.86.15a5,5,0,0,1-.94.13c-6.67,0-13.33.5-20,.22-2.84-.12-5.68-.5-8.52-.87-3.78-.49-7.53-1.11-11.28-1.73a66.09,66.09,0,0,1-18.79-6c-4.32-2.15-8.62-4.34-12.77-6.8a2,2,0,0,1-1-.85,5.56,5.56,0,0,1,2.16.47c.23.62.82.73,1.33.92a51.66,51.66,0,0,1,5.67,2.83,115.12,115.12,0,0,0,14,6.22,56.71,56.71,0,0,0,8.81,2c3.08.56,6.17,1.08,9.27,1.53,2.51.36,5,.62,7.55.92a73.94,73.94,0,0,0,11.33.42c5-.17,10-.44,15-.51,1.29,0,2.61-.18,3.92-.19.44,0,.92,0,1.06.54a1.25,1.25,0,0,1-.44,1.28,3.66,3.66,0,0,1-1.07.52,60.31,60.31,0,0,1-16.64,5.1c-4.56.83-9.14,1.55-13.77,1.95a41,41,0,0,1-5.2.21Z" transform="translate(26)"/><path class="cls-11" d="M159.75,308.88c-2.08-.09-4.34,0-6.28-1.45s-2-2.21-.85-4.2c1.65-2.81,4.3-3.6,7.27-3.91a30.2,30.2,0,0,0,3.9-.64c.73-.17,1,.07,1.22.69a23.17,23.17,0,0,1,1.5,6.51v.48c.24,1.9.24,1.87-1.74,2.1C163.17,308.65,161.54,308.84,159.75,308.88Z" transform="translate(26)"/><path class="cls-9" d="M134.9,211.65v-.72c.13-1.34.29-2.54,2.07-2.79a11.15,11.15,0,0,0,3-1.15,2.8,2.8,0,0,1,2.85.1c2,1.26,4.19,2.35,5.1,4.84a2.89,2.89,0,0,1-.68,3.25,10,10,0,0,1-6.37,3.23c-2,.28-3.45-.93-4.54-2.4A7.85,7.85,0,0,1,134.9,211.65Z" transform="translate(26)"/><path class="cls-14" d="M220,305.86c-1.82-1.15-3.47-2.27-5.19-3.29-3.21-1.9-6.53-3.54-10.33-3.89a3.55,3.55,0,0,0-1.65.09,94.74,94.74,0,0,0-10.17,4.47c-.1.05-.21.07-.51.18a12.82,12.82,0,0,1,7.16-7,10.89,10.89,0,0,1,10.42.75,45.67,45.67,0,0,1,9.54,7.58A2,2,0,0,1,220,305.86Z" transform="translate(26)"/><path class="cls-11" d="M162.36,293.91a28.45,28.45,0,0,1-8.11-.9c-2.16-.66-2.62-1.7-1.68-3.79a7.4,7.4,0,0,1,3-3.73c.51-.29.75-.3,1.16.15A44.69,44.69,0,0,1,162.36,293.91Z" transform="translate(26)"/><path class="cls-9" d="M190.44,205.92c0,1.29-1.61,3.11-3.22,3.69a3.11,3.11,0,0,1-4.38-2.78,11.8,11.8,0,0,0-.3-3.08c-.2-.49.23-.35.46-.42a2.51,2.51,0,0,0,2-2.09c.07-.57.35-.64.8-.59C187.7,200.88,190.47,204,190.44,205.92Z" transform="translate(26)"/><path class="cls-15" d="M195,204.29c-.39-.95-.7-1.72-1-2.49a1,1,0,0,1,.41-1.24c2.64-1.94,5.26-3.91,7.92-5.81a4.68,4.68,0,0,1,2.62-.56,10.5,10.5,0,0,1,2.44.14C202.53,196.74,199.16,201,195,204.29Z" transform="translate(26)"/><path class="cls-16" d="M208.56,291.62c-2.87-1.12-5.65-.7-8.53-.24a13.11,13.11,0,0,1,4.51-5.74c1.21-.86,2.35-.47,3,1A18.47,18.47,0,0,1,208.56,291.62Z" transform="translate(26)"/><path class="cls-16" d="M219.5,298.54A54.93,54.93,0,0,0,213,293.9c-.66-.39-.28-.73,0-1a8.61,8.61,0,0,1,3.6-2.26c1.22-.39,1.81.1,2.15,1.18A18.84,18.84,0,0,1,219.5,298.54Z" transform="translate(26)"/><path class="cls-15" d="M195.16,194.08c-1.61,1.25-3.09,2.39-4.55,3.54-.29.23-.52.11-.76-.05a7.25,7.25,0,0,0-5-1.47,13.52,13.52,0,0,1,1.3-2.54.55.55,0,0,1,.6-.29l8,.63A3,3,0,0,1,195.16,194.08Z" transform="translate(26)"/><path class="cls-2" d="M108,338.64c.06,1-.62,1.39-1.4,1.42-1.22.07-2.45.09-3.66.28s-1.57-.3-1.41-1.4A46.65,46.65,0,0,1,108,338.64Z" transform="translate(26)"/><path class="cls-2" d="M88,375.36c.52.59.32,1-.35,1.23a9.07,9.07,0,0,1-3.47.48c-.94,0-.64-.7-.7-1.19A25.45,25.45,0,0,1,88,375.36Z" transform="translate(26)"/><path class="cls-17" d="M178.92,196.62a1.09,1.09,0,0,1-.44-.84c-.16-.68-.81-1.65-.39-2a3.63,3.63,0,0,1,2.87-.51,6.28,6.28,0,0,1-.27.59Z" transform="translate(26)"/><path class="cls-2" d="M210.68,305.55a1.34,1.34,0,0,1-1.61,1,1.4,1.4,0,0,1-.53-.27c-.75-.45-1.43-1-.5-1.91A6.34,6.34,0,0,1,210.68,305.55Z" transform="translate(26)"/><path class="cls-18" d="M204.66,129.93l2.66,3.41c-1.32.7-2,.44-2.12-.92C205.13,131.63,204.83,130.91,204.66,129.93Z" transform="translate(26)"/><path class="cls-19" d="M152.83,212.85c.91,2,0,4.17-2.19,5.46A8,8,0,0,0,152.83,212.85Z" transform="translate(26)"/><path class="cls-2" d="M95.45,374.4a.61.61,0,0,1,.13.87.53.53,0,0,1-.13.13c-.35.34-.83.23-1.25.17-.59-.08-.37-.6-.43-1C94.31,374.26,94.9,374.47,95.45,374.4Z" transform="translate(26)"/><path d="M220.56,350a47.11,47.11,0,0,1-.27,5.57,2.33,2.33,0,0,1-2.38,2.22,2.36,2.36,0,0,1-2.16-2.43,59.92,59.92,0,0,0,.22-6.7,51,51,0,0,0-1.29-10.3c-1.36-5.66-4.88-9.81-9.58-13a10.28,10.28,0,0,0-9.2-1l-6,1.76c-.31.09-.66.4-1,0a.91.91,0,0,1,0-1c1.54-3.42,4.3-5.06,7.9-5.65,5.43-.87,10,.86,13.9,4.53,3.36,3.15,6.24,6.64,7.68,11.11a44.57,44.57,0,0,1,1.83,9.85A40.59,40.59,0,0,1,220.56,350Z" transform="translate(26)"/><path class="cls-2" d="M196,334.94c0,.85-.32,1.3-1.06,1.31s-1.12-.55-1.11-1.33.19-1.27.92-1.26a1.24,1.24,0,0,1,1.25,1.23Z" transform="translate(26)"/><path class="cls-2" d="M214.33,317.07c-.65-.11-1-.44-1-1s.24-.9.84-.88,1.07.36,1,1A1,1,0,0,1,214.33,317.07Z" transform="translate(26)"/><path class="cls-2" d="M176.75,337.45c-.37,0-.6-.11-.62-.53s.16-.66.62-.65.57.21.57.59S177.16,337.46,176.75,337.45Z" transform="translate(26)"/><path class="cls-2" d="M195.29,315.44a.55.55,0,0,1-.47.62h-.1a.5.5,0,0,1-.55-.45v-.05a.52.52,0,0,1,.41-.61h.14A.56.56,0,0,1,195.29,315.44Z" transform="translate(26)"/><path d="M137.69,103.92c-.95.1-1.9.18-2.84.3a2.48,2.48,0,0,1-2.91-1.71c.09-2,.78-2.5,2.74-2.9,4.11-.85,8.19-.14,12.27.07a19.18,19.18,0,0,0,7.91-1.51c4.29-1.63,8.45-3.57,12.78-5.09,2-.71,4-1.23,6.07-1.79A2.36,2.36,0,0,1,176.49,93a2.25,2.25,0,0,1-1.59,2.71c-6.58,1.47-12.61,4.46-18.83,6.9a26,26,0,0,1-12.1,1.44C141.9,103.88,139.79,103.4,137.69,103.92Z" transform="translate(26)"/></g></g></svg>