<svg id="Calque_1" data-name="Calque 1" xmlns="http://www.w3.org/2000/svg" viewBox="0 0 338.61 402.19"><defs><style>.cls-1{fill:#fefefe;}.cls-2{fill:#080606;}.cls-3{fill:#e17b70;}.cls-4{fill:#f68c7e;}.cls-5{fill:#f88c7e;}.cls-6{fill:#fea69b;}</style></defs><title>tiny_masto_deÌ</title><path class="cls-1" d="M338.61,402.19H0V0H338.61ZM174.09,391.37c2.38-.22,4.78-.32,7.13-.7,10.18-1.65,19.95-4.44,28.86-9.87s12.82-13.73,14.47-23.47a72.81,72.81,0,0,0,.52-8.11c.06-.94.56-1.35,1.26-1,2.58,1.43,5.16,2.89,7.75,4.3a1.92,1.92,0,0,1,1.09,1.92c0,6.64,0,13.28,0,19.91,0,.56,0,1.13,0,1.68a2.67,2.67,0,0,0,2.9,2.69h2.52c9.51,0,19,0,28.54,0a4.87,4.87,0,0,0,4.72-2.64c1.44-2.76,3.18-5.36,4.7-8.08a5.41,5.41,0,0,0,.67-2.48c0-3-.08-6,0-9a2.57,2.57,0,0,1,.76-1.7c3.09-2.71,6.38-5.21,9.32-8.06a29.86,29.86,0,0,0,7.47-11.33,15.58,15.58,0,0,0,1.33-5.78,90.68,90.68,0,0,0-1.51-10.3,2.59,2.59,0,0,0-.67-1.34c-2.44-2.41-4.87-4.84-7.42-7.14-3.62-3.26-7.29-6.49-11-9.6-9.9-8.21-19.55-16.73-30.58-23.46C242.2,275,238,271.48,233,269.27a12.35,12.35,0,0,1-1.57-1c.25-.17.31-.24.38-.25l1.07-.09a20.08,20.08,0,0,0,8-2c4.54-2.25,8.18-5.7,12-8.95a1.82,1.82,0,0,0,.44-1.28c-.06-2.56-.07-5.13-.34-7.66-.83-7.79-1.65-15.59-2.72-23.35s-2.45-15.39-3.72-23.08c-.11-.68.13-1,.67-1.32,4-2.75,5.38-5.76,2.78-10.27-.42-.73-.22-1.11.28-1.64,2-2.11,2.58-5,1.52-7.06-2.16-4.21-5.32-6.73-10.34-6.12l-1.66.2a1.43,1.43,0,0,1-1.71-.94c-.53-1.29-1.24-2.51-1.71-3.82-1.54-4.37-4.68-8-5.82-12.55-.44-1.77-1.66-3.35-2.59-5-1.66-2.91-3.49-5.73-5.06-8.68a81.2,81.2,0,0,0-9.91-14.25,3.31,3.31,0,0,1-1-3.08c.16-.78.31-1.57.53-2.33.75-2.56,1.66-5.08,2.27-7.67,1.64-7,1.77-14.09,1.61-21.23a45.7,45.7,0,0,1,.52-8.59,86.79,86.79,0,0,0-.13-29.47C214.32,44,207.63,32.74,197.1,23.62c-7.5-6.49-16.41-9.3-26.14-10-2.94-.29-5.69.64-8.41,1.5-5.7,1.83-9.86,5.93-14.09,9.91-2.27,2.12-4.57,4.2-6.88,6.28a1.39,1.39,0,0,1-.87.3c-6.25,0-11.46,2.71-16.16,6.47-3,2.41-5.73,5.21-8.6,7.81-.28.26-.86.58-1.06.47a19.41,19.41,0,0,1-4.51-2.89A56.35,56.35,0,0,0,92.05,30.84,30.21,30.21,0,0,0,75.2,28.26,118.31,118.31,0,0,0,60.91,31.8c-9.66,2.81-16.83,9.16-23,16.77a61.93,61.93,0,0,0-12.9,29,52.08,52.08,0,0,0-.3,18.71,71.08,71.08,0,0,0,10.4,25c5.31,8.27,11.71,15.67,18.24,23,2,2.29,2.1,2.43.33,4.93l-.3.38-8.88,11.76c-7.68,10.17-13.29,21.48-17.94,33.25a91.78,91.78,0,0,0-6.2,22.23c-.48,3.84-1.22,7.64-1.68,11.48-.4,3.29-.5,6.62-.86,9.91-.46,4.13-1.1,8.23-1.58,12.35-.33,2.9-.5,5.81-.82,8.71-.71,6.32-1.53,12.64-2.15,19-.25,2.45-.08,4.95-.09,7.43V291a3.8,3.8,0,0,0-.06.59c.21,3,.31,6,.66,9,.38,3.24,1,6.47,1.56,9.68a2.22,2.22,0,0,0,1.19,1.3c1.26.6,2.59,1,3.9,1.53,2.21.81,4.36,2,6.64,2.34,3.54.55,7.15.55,10.74.77.41,0,.82,0,1.44,0-.3.59-.46.94-.65,1.28a29,29,0,0,0-3.34,20.72,31.86,31.86,0,0,0,12.35,19.28,115.8,115.8,0,0,0,11.61,7.19,6.73,6.73,0,0,1,3.41,4.07c.2.69.26,1.41.46,2.1a17.24,17.24,0,0,0,6.48,9.53c5.7,4.16,11.91,6.22,19,4.83a57.26,57.26,0,0,0,12.44-3.9c6.38-2.86,12.9-3.88,19.74-2a3.74,3.74,0,0,0,1,.1c2,.06,3.63-.81,4.22-2.36s-.18-3-1.39-4c-2-1.6-4.1-3-6.2-4.49a2.16,2.16,0,0,1-1.22-1.87,4.66,4.66,0,0,0-.74-2.11,24.32,24.32,0,0,0-6-6.45,38.9,38.9,0,0,0-15-7.74,40.54,40.54,0,0,0-15.24-.74c-4.24.53-8.07,2.06-10.91,5.42-.86,1-1.54,2.2-2.36,3.4-.34-.31-.66-.59-1-.9-2.32-2.32-4.67-4.61-6.92-7-5.63-5.95-8-12.94-6.56-21.11a14.54,14.54,0,0,1,6.4-9.86,46,46,0,0,1,17-7c2.34-.48,2.49-.3,3.45,1.87,1.86,4.23,3.5,8.57,6.22,12.39,4.28,6,8.23,12.29,13.92,17.17,4.09,3.51,8,7.31,12.25,10.56,7.38,5.6,14.94,11,22.56,16.23a154.45,154.45,0,0,0,20.66,12.15c5.94,2.86,12,5.54,18,8.27A4.43,4.43,0,0,0,174.09,391.37Z"/><path class="cls-2" d="M13.19,291v-5.3c.06-.14.18-.27.19-.41.25-2.9.43-5.8.73-8.7q1.75-17,3.56-34.09c.7-6.67,1.32-13.35,2.17-20A103.81,103.81,0,0,1,22,210.21a144.5,144.5,0,0,1,7-20.62A150,150,0,0,1,50.54,154c1.57-2,3-4.06,4.41-6.13a2,2,0,0,0-.3-2.75c-4.94-5.76-9.92-11.51-14.63-17.46a79.4,79.4,0,0,1-14-27A46.64,46.64,0,0,1,24.8,82.06a65.14,65.14,0,0,1,5.68-20.84A61.93,61.93,0,0,1,41.76,44.77a48,48,0,0,1,10.68-8.84c5.6-3.17,11.73-4.83,17.9-6.41a30.87,30.87,0,0,1,13-.79c8.81,1.49,16.29,5.76,23,11.47,2.54,2.16,4.67,4.81,7.81,6.27a1.55,1.55,0,0,0,2.09-.22c2.68-2.56,5.31-5.22,8.19-7.55,4.78-3.85,10.06-6.7,16.45-6.69a1.49,1.49,0,0,0,.88-.28c1.62-1.36,3.25-2.71,4.81-4.14,2.11-2,4.09-4.05,6.24-6,4-3.54,8.36-6.3,13.76-7.11,1.48-.22,3-.57,4.42-.86,9.73.67,18.64,3.48,26.14,10,10.53,9.12,17.22,20.36,19.65,34.21a86.79,86.79,0,0,1,.13,29.47,45.7,45.7,0,0,0-.52,8.59c.16,7.14,0,14.25-1.61,21.23-.61,2.59-1.52,5.11-2.27,7.67-.22.76-.37,1.55-.53,2.33a3.31,3.31,0,0,0,1,3.08,81.2,81.2,0,0,1,9.91,14.25c1.57,3,3.4,5.77,5.06,8.68.93,1.62,2.15,3.2,2.59,5,1.14,4.59,4.28,8.18,5.82,12.55.47,1.31,1.18,2.53,1.71,3.82a1.43,1.43,0,0,0,1.71.94l1.66-.2c5-.61,8.18,1.91,10.34,6.12,1.06,2,.47,4.95-1.52,7.06-.5.53-.7.91-.28,1.64,2.6,4.51,1.25,7.52-2.78,10.27-.54.37-.78.64-.67,1.32,1.27,7.69,2.65,15.36,3.72,23.08s1.89,15.56,2.72,23.35c.27,2.53.28,5.1.34,7.66a1.82,1.82,0,0,1-.44,1.28c-3.79,3.25-7.43,6.7-12,8.95a20.08,20.08,0,0,1-8,2l-1.07.09c-.07,0-.13.08-.38.25a12.35,12.35,0,0,0,1.57,1c5,2.21,9.23,5.72,13.87,8.55,11,6.73,20.68,15.25,30.58,23.46,3.75,3.11,7.42,6.34,11,9.6,2.55,2.3,5,4.73,7.42,7.14a2.59,2.59,0,0,1,.67,1.34,90.68,90.68,0,0,1,1.51,10.3,15.58,15.58,0,0,1-1.33,5.78,29.86,29.86,0,0,1-7.47,11.33c-2.94,2.85-6.23,5.35-9.32,8.06a2.57,2.57,0,0,0-.76,1.7c0,3,.09,6,0,9a5.41,5.41,0,0,1-.67,2.48c-1.52,2.72-3.26,5.32-4.7,8.08a4.87,4.87,0,0,1-4.72,2.64c-9.51.07-19,0-28.54,0h-2.52a2.67,2.67,0,0,1-2.9-2.69c0-.55,0-1.12,0-1.68,0-6.63,0-13.27,0-19.91a1.92,1.92,0,0,0-1.09-1.92c-2.59-1.41-5.17-2.87-7.75-4.3-.7-.39-1.2,0-1.26,1-.15,2.71,1.72,6.64,1.27,9.29-1.65,9.74-5.41,18.64-14.28,24s-13.57,8.35-23.75,10c-2.35.38-11,.05-14.21-1.18l-5.3-2.47c-6.14-2.9-12.44-5.52-18.39-8.78a264.76,264.76,0,0,1-43.75-30.2c-5.15-4.35-10.36-8.68-14.37-14.23-3.48-4.82-7.28-9.43-9.8-14.89-1.12-2.43-2.2-4.88-3.28-7.33-.76-1.73-.76-1.79-2.67-1.45a44.45,44.45,0,0,0-18.77,7.82,12.42,12.42,0,0,0-4.37,5.31C50.18,333,51.25,340.5,56,347.36c2,2.84,4.63,5.17,7,7.72,1.29,1.39,2.61,2.77,4,4.22a4,4,0,0,0,.46-.6,13.33,13.33,0,0,1,9.8-8.07,36.45,36.45,0,0,1,23.37,1.91,36.07,36.07,0,0,1,15,11.4,13.56,13.56,0,0,1,1.22,3.27,3,3,0,0,0,.7,1.14c.51.43,1.17.69,1.71,1.09a47.25,47.25,0,0,1,5.56,4.33c2,2.06.93,4.77-2,5.11a10.8,10.8,0,0,1-3.42-.35,27.48,27.48,0,0,0-15.66,1.3c-3.95,1.52-7.94,3-12,4.23a22.89,22.89,0,0,1-19.38-2.29c-4.87-2.93-8.17-6.89-9.24-12.63a5.28,5.28,0,0,0-2.47-4.06c-1.9-1-3.7-2.22-5.57-3.29-4.33-2.45-8.51-5.08-11.83-8.89A32.07,32.07,0,0,1,35.62,338a29.08,29.08,0,0,1,3.7-21c.21-.36.37-.74.57-1.14a2.16,2.16,0,0,0-.5-.17c-.4,0-.8.06-1.19.08A36.81,36.81,0,0,1,25,314.5c-2.81-.9-5.51-2.15-8.24-3.28a1.83,1.83,0,0,1-1-.89,21.19,21.19,0,0,1-1-4.19c-.36-3.53-.51-7.09-.83-10.63C13.78,294,13.44,292.48,13.19,291Zm137-245.41-.65-.06-2,0-.42,0-1,0h-1l-2.68.44-.45,0c-1.59-.56-1.82-1.09-1.38-3.16l.41-.41,3.34-1.5.27-.27.23-.42.05-1c0-2.42-.6-2.33-2.43-1.93h-.72l-2.09.17-.77.06a4.12,4.12,0,0,0-1.37.09q-2.91,1.2-5.76,2.53a6.59,6.59,0,0,0-1.25,1l-.25.17-.47.31-.25.17-.72.55-.23.18-1,.77-.24.2-2.63,2.45-1.21,1.12-3.85,3.66-.75.72c-.33.2-.67.39-1,.62a3.72,3.72,0,0,1-4.84.16c-.57-.37-1.14-.73-1.73-1.06-2.8-1.61-5.61-3.18-7.7-5.75a8.44,8.44,0,0,0-1.54-1.22l-.22-.19a9,9,0,0,0-1.11-1.2,51,51,0,0,0-10.82-6.6,25,25,0,0,0-11-2.55c-8.05.32-15.56,2.78-22.69,6.33-5.33,2.66-9.29,7-13,11.55a54.78,54.78,0,0,0-11.42,23.9,54.65,54.65,0,0,0-1.09,18.69c.76,5.67,2.93,10.87,5.26,16,3.29,7.23,8,13.55,13,19.66,1.26,1.53,2.61,3,3.92,4.48l.19.21c.56.74,1.08,1.52,1.7,2.21,1.1,1.22,2.26,2.38,3.39,3.57l.2.22,2.44,2.67.2.21c1,1.14,2,2.24,2.86,3.44,2.44,3.37,5.44,5.79,9.77,6.12a13.33,13.33,0,0,1,1.5.41,54.29,54.29,0,0,0,23.66-.63c1.37-.32,2.75-.67,4.51-1.11l-3.61-3.18-.91-.93c-1.23-1.5-2.47-3-3.68-4.49a82.43,82.43,0,0,1-11.52-19.28c-.75-1.76.16-3.23,2-3.28a2.6,2.6,0,0,1,2.58,1.92,77.07,77.07,0,0,0,14.37,22.22c1,1.06,2.14,2,3.21,3l.22.18a1.52,1.52,0,0,0,.31.49c2.32,1.81,4.64,3.63,7,5.38.22.16.81,0,1.14-.18a39.86,39.86,0,0,1,4.29-2.35c5.42-2,10.83-3,16,.88a.9.9,0,0,0,.34.1h0l.94.75.23.22L138,155l.18.23.54.72,0,0c.16.14.29.35.47.39,1,.23,1.93.42,2.89.62l.24.19,1.2,1,1.46,1.34a2,2,0,0,0,.28.5q4.55,4.53,9.11,9a3.21,3.21,0,0,0,.67.4l1.7,1.6,1.18,1,.74.64,1.19,1,.24.19.71.56.49.4,1.67,1.26.25.18,1.19.79.25.16a9.17,9.17,0,0,0,1,.82,55.12,55.12,0,0,0,20.11,7.71c2.22.38,4.48.56,6.72.84l.42.05a30.27,30.27,0,0,0,3.09.64c2.27.23,4.56.35,6.84.52l.77,0,3.76.21.41,0c1.28.25,2.54.56,3.82.73,2.88.36,5.78.6,8.66,1,1.25.17,2.47.56,3.7.85l.64.3a1.92,1.92,0,0,0,.43.38c2.87,1.37,5.74,2.76,8.64,4.08A15.1,15.1,0,0,0,240,197a6.21,6.21,0,0,0,4.32-2,1.43,1.43,0,0,0,.17-2c-.78-1.22-1.53-2.46-2.3-3.69v-1.32l.75-1.53.62-.61c.28-.13.57-.23.84-.37a2.07,2.07,0,0,0,1.35-2.49,2.42,2.42,0,0,0-2.54-2.07q-3.1-.18-6.21-.43c-1.72-.14-3.45-.32-5.17-.49l-.4,0-5.36-.89-.41-.07a7.44,7.44,0,0,0-.85-.33c-2.2-.58-4.42-1.05-6.58-1.73s-4.07-1.52-6.11-2.29l-.25-.14-1-.57-.23-.16-.49-.31-.25-.16-.47-.33-.25-.15-.47-.3-.26-.18L208,172l-.24-.17-.48-.32-.22-.17-1-.76-.24-.19-1-.78-.23-.18-4.08-4-.9-1-1-1.22-.17-.23-.56-.71-.19-.24-.53-.73-.16-.24-.33-.46-.17-.25L194.37,157l-.16-.25c-1.2-2.28-2.35-4.59-3.6-6.84-.84-1.51-1.81-3-2.73-4.42l-.16-.26-3.19-4.8-.17-.24-.55-.72-.17-.24-.55-.72-.17-.23-.55-.73-.19-.23c-.7-2-.46-2.83,1-3.46.25-.11.49-.24.74-.36h.33a13,13,0,0,1,2.4,1.84c1.32,1.6,2.45,3.34,3.67,5,.22.31.47.6.8,1a15.88,15.88,0,0,1,15.65-5.69c-.43-2.12-.84-4.08-1.25-6V129c.54-3,.93-6.06,1.65-9a37.85,37.85,0,0,0-.25-18.26c-1.72-6.91-4.82-13.28-8.17-19.53A64.93,64.93,0,0,0,174.5,56.7c-3.72-2.23-7.83-3.79-11.77-5.65a.85.85,0,0,0-.4,0A20,20,0,0,1,161,54.18a22.39,22.39,0,0,1-2.35,2.62l.94.77a8.89,8.89,0,0,1,3.26,4.33,3.74,3.74,0,0,1-4.19,4.95c-.42,0-.85-.16-1.27-.24l-.63-.63a2.39,2.39,0,0,1,1-3c.11-.07,0-.55-.06-.83l-.19-.24-.8-.79-.24-.19a7.71,7.71,0,0,0-5.82-2.15,35.73,35.73,0,0,1-3.73,0c-.32-.11-.54-.46-.75-.67-.38-1.27-.48-1.73,0-2.45l.4-.42c.75-.32,1.72-.44,2.47-.76l1-.06a2.39,2.39,0,0,0,1.13-.13c1.61-.4,3-.8,4.56-1.27l.25-.17c1.55-.47,1.27-1.76,1.29-2.91A3.76,3.76,0,0,0,155,46.59m127.5,267-.17-.2-.07.07.18.19c.59,2,.77,2.2,2.24,1.56ZM46,349l.54.64a22.58,22.58,0,0,0,3.29,3.4c3.7,2.51,7.53,4.82,11.32,7.19.09.06.25,0,.58.06-.41-.45-.65-.75-.93-1-1.88-1.91-3.79-3.78-5.64-5.72-6.51-6.86-9.4-14.91-7.9-24.36a18.24,18.24,0,0,1,6.85-12.13,47.63,47.63,0,0,1,22.1-9.25c.76-.12,1-.44.78-1.13-.38-1.34-.71-2.71-1.18-4a1.47,1.47,0,0,0-1-.76,3.91,3.91,0,0,0-1.55.11c-6.75,1.41-13.3,3.23-19.19,7.12-2.81,1.86-5.69,3.6-7.92,6.12a26,26,0,0,0-2.84,30c.12.21.38.34.58.51l1,1.73.41.58.29.4ZM236.47,252.7l-.1-.74v-1a12.22,12.22,0,0,1,.53-2.53c.61-1.36,1.42-2.63,2.15-3.94l1.19-1.16a1,1,0,0,0,.32-.13,10.37,10.37,0,0,1,5.82-2.79.94.94,0,0,0,.58-.68,10.42,10.42,0,0,0-.25-1.74l-.05-.47c-.06-.7-.09-1.41-.19-2.11-.31-2.18-.64-4.35-1-6.53l0-.48c-.23-1.76-.46-3.52-.68-5.29l0-.47c-.07-.87-.07-1.75-.21-2.6-.91-5.51-1.86-11-2.77-16.51-.16-.93-.58-1.37-1.56-1l-.71,0-1.69-.21-.95,0a8.79,8.79,0,0,0-1.48-1.13c-2.88-1.38-5.78-2.7-8.68-4-2-.9-3.88-1.88-5.9-2.59a38.47,38.47,0,0,0-4.8-1.05c-.12.3-.18.38-.17.44.24,1.17.45,2.36.74,3.52A112.87,112.87,0,0,1,220,225.91c-.09,11.87-.4,23.72-2.6,35.44-.15.8.05,1.18.91,1.26q2.69.28,5.35.68c.94.13,1.35-.16,1.47-1.16a38,38,0,0,1,.81-4.36,5.55,5.55,0,0,1,4.84-4.53,39.57,39.57,0,0,1,4.63-.18l.75.15.26-.25ZM200,332.81l.83,1.05c1.69-2.34,1.69-2.65.07-4.51-.39-.46-.8-.9-1.22-1.32q-6.13-6.16-12.28-12.3c-3.88-3.86-7.64-7.84-11.68-11.53-5.32-4.87-11.82-7.86-18.39-10.61a162,162,0,0,0-22.47-7.23c-3.86-1-7.77-1.79-11.66-2.7a2.11,2.11,0,0,1-1.88-1.9,2.06,2.06,0,0,1,1.46-2.22c.26-.1.5-.23.75-.34l.93,0c1.77.43,3.55.84,5.32,1.3,11.35,2.92,22.68,5.88,33.4,10.78,6.25,2.86,12.32,6.08,17.38,10.69,4.46,4.07,9.17,8,12.62,13.08a27.76,27.76,0,0,0,3.6,3.68c5,5,9.91,10.11,15,15.06a19.62,19.62,0,0,0,4.57,3.24c5.46,2.83,11,5.51,16.51,8.26.74.37,1.45.78,1.9,1,.71-1,1.28-1.86,1.9-2.69a14,14,0,0,1,1.05-1.13l4.31-4.27.54-.51.39-.27.65-.38c1.07-1,2.4-.78,3.68-.8.47,0,.95,0,1.42,0,.11-.19.35-.43.3-.54-.26-.58-.63-1.12-.9-1.69-2.57-5.36-.24-10.45,5.47-11.95a21.34,21.34,0,0,1,2.12-.37c.57-.08,1.14-.14,1.73-.21-1-2-2-3.78-2.81-5.69a7.89,7.89,0,0,1,2.45-9.58,10.38,10.38,0,0,1,10.15-1.3c2,.79,3.79,1.88,5.68,2.82.26.14.53.25,1,.44-.17-1.43-.27-2.62-1.34-3.51-9.12-7.58-18.3-15.05-28.31-21.51-8.81-5.68-17.58-11.35-27.2-15.58-.86-.38-1.26-.34-1.61.58a50.46,50.46,0,0,1-8.53,14.09c-1.89,2.26-3.95,4.39-6,6.52a2.57,2.57,0,0,1-3.67.05c-.92-1-.8-2,.42-3.23.75-.77,1.58-1.48,2.28-2.3,1.48-1.76,2.89-3.57,4.34-5.36a.15.15,0,0,0,.12-.16,4.46,4.46,0,0,0,.61-.53c3.84-5.3,6.86-11,7.93-17.51.75-4.59,1.17-9.25,1.66-13.88.18-1.7.14-3.42.2-5.12l0-.5a2.64,2.64,0,0,0,.17-.67c.09-6,.2-12,.22-18.06,0-1.66-.25-3.32-.39-5l0-.5c0-.67,0-1.35,0-2-.64-6.71-2.28-13.22-3.74-19.78a1.59,1.59,0,0,0-1.75-1.49,124.47,124.47,0,0,1-19.06-1.91c-4.66-.92-9.42-1.55-13.94-3a59.06,59.06,0,0,1-23.61-14.25c-3.75-3.61-7.43-7.28-11.14-10.92-.32-.31-.68-.58-1.07-.91a24.64,24.64,0,0,1-1.43,3.73,28.32,28.32,0,0,1-12.58,11.44c-5.63,2.68-11.68,4.1-17.77,5.29-3.73.73-5.17-.72-4.06-4.38,1-3.32,2.35-6.54,3.61-9.78,1.16-3,2.43-5.91,3.58-8.9a1.46,1.46,0,0,0-.25-1.31,23.55,23.55,0,0,0-3.15-2.18,2,2,0,0,0-1.35-.22c-2.11.43-4.22.91-6.31,1.43a61.58,61.58,0,0,1-22.5,1.42c-3.44-.42-6.87-1-10.29-1.56a9.21,9.21,0,0,1-3-1c-1.85-1.07-3.59-2.31-5.51-3.57-.12.16-.41.47-.67.81-1.09,1.43-2.19,2.85-3.26,4.3-3,4.09-6.2,8.05-8.94,12.31A116.64,116.64,0,0,0,37.94,185c-2.92,6.56-6.4,12.89-8.21,19.91-.81,3.17-1.82,6.3-2.46,9.51-.74,3.71-1.2,7.48-1.71,11.24-.33,2.37-.51,4.75-.76,7.13l0,.74c-.07.46-.16.92-.21,1.38-.16,1.78-.27,3.57-.47,5.35-.55,4.87-1.15,9.73-1.71,14.6-.49,4.27-1,8.54-1.4,12.81-.31,3.25-.51,6.5-.75,9.76l0,.73c-.05.07-.13.13-.13.2-.06,4.55-.14,9.11-.15,13.66,0,.25.5.67.81.71,5.28.76,9.37,3.24,11.86,8.08.19.37.43.72.66,1.1a6,6,0,0,0,.54-.3c2.7-2.1,5-2.22,8-.54a11.78,11.78,0,0,1,4.82,5.79c.35.77.7,1,1.43.43A55.33,55.33,0,0,1,60.55,301a2.64,2.64,0,0,0,1.7-1.65c4.92-12.82,9-25.89,12.75-39.1a13.29,13.29,0,0,0,.68-4.94c-.31-3.35-.5-6.7-.62-10.06a123.73,123.73,0,0,1,2.36-28.73c1.66-8.37,3.38-16.7,6.46-24.68.79-2.05,1.66-4.08,2.3-6.18a2.52,2.52,0,0,1,1.77-2,2.73,2.73,0,0,1,2.83.87c.76.79.51,1.65.17,2.57-1.54,4.07-3.16,8.12-4.52,12.26-2.49,7.62-3.75,15.53-5.16,23.4a109.19,109.19,0,0,0-1.08,27c.37,5.32,1.18,10.62,1.84,15.93.69,5.59.94,11.17-.49,16.68a36.76,36.76,0,0,0,.12,18.86c.89,3.4,2,6.73,3.15,10.06,3.27,9.66,9.08,17.86,15.85,25.21,5.08,5.53,11.07,10.27,16.93,15,5.12,4.14,10.56,7.9,16,11.63,9.79,6.74,19.87,13,30.84,17.72.38.16.78.29,1.21.44.07-.25.15-.37.12-.47a9.45,9.45,0,0,0-.31-1.16,17.69,17.69,0,0,1-.25-10.51,2,2,0,0,0-.5-2.15,18.36,18.36,0,0,1-4.38-8.94c-.8-4.31.06-8.23,3.29-11.36,3-2.93,6.83-3.62,10.89-3.3.74.05,1.47.19,2.43.33-.27-.66-.46-1.08-.61-1.52a56.28,56.28,0,0,1-1.81-5.46,9.72,9.72,0,0,1,10.75-11.93,19.49,19.49,0,0,1,9.8,3.86c1.68,1.27,3.25,2.69,4.86,4ZM175.34,20l-.85-.1-1.78-.18-2.74,0-2,.18-.38.06-.82.17-.37.08-1.31.37-.38.1a14.72,14.72,0,0,0-2.29.9A54.4,54.4,0,0,0,149,33.67a2,2,0,0,0-.13,1.48,42.07,42.07,0,0,1,1.08,4.14c.13,1,.47,1.35,1.4,1.52,3.14.6,6.13,1.53,8.37,4a4.7,4.7,0,0,0,1.77.94c6.85,2.8,13.7,5.5,19.75,10A72.68,72.68,0,0,1,195.64,69,96.48,96.48,0,0,1,209,92.66c.17.41.39.79.58,1.19l.31-.08c.09-1.14.14-2.28.28-3.41.51-4.09,1.13-8.16,1.57-12.25.75-7.07-.22-14-1.49-21-2.22-12.06-8.38-21.75-17.62-29.56A62.69,62.69,0,0,0,185.5,23,12.49,12.49,0,0,0,183,21.68c-2.27-.61-4.59-1.06-6.89-1.58Zm28.9,325.1v0c-.52,0-1,0-1.56,0A33.91,33.91,0,0,0,186,350.69a37.59,37.59,0,0,0-15.18,17,15.46,15.46,0,0,0,2.87,17.05,2.57,2.57,0,0,0,2.33.93c2-.28,4-.39,5.94-.76,9-1.65,17.69-4.13,25.38-9.25a19.54,19.54,0,0,0,5.19-4.72c4-5.71,6.43-12,6-19.18a2.24,2.24,0,0,0-.51-1.4c-2.65-2.53-5.6-4.51-9.4-4.82C207.19,345.4,205.72,345.26,204.24,345.12Zm-95.48,19.47-2-1.68a31.8,31.8,0,0,0-23.94-7.78c-6,.49-10.2,3.51-13.18,8.51a3.9,3.9,0,0,0-.6,2,13.65,13.65,0,0,0,1.7,6.89c3,4.9,10.33,8.19,16.13,6.95a92.94,92.94,0,0,0,10.76-3.23c3.84-1.34,7.53-3.15,11.67-3.48,1.16-.09,2.32-.22,3.49-.33l.07-.34a8,8,0,0,0-1-.62c-.85-.35-1.73-.63-2.58-1-2.78-1.08-3.2-3.39-1-5.33C108.36,365.12,108.44,365,108.76,364.59Zm149.64-28.4c.78,0,1.2.07,1.62.07,4.72,0,9.43,0,14.15.1a4,4,0,0,1,2.72,1.14c1.23,1.45,2.38,3,2.07,5.24a25.89,25.89,0,0,0,0,4.31,6.76,6.76,0,0,0,.15,1,5.67,5.67,0,0,0,.79-.52c2-1.92,4-3.76,5.87-5.81,4.41-4.91,6.79-10.56,6-17.32-.24-2.22-1.91-3.3-3.23-4.7-.12-.13-.46-.12-.68-.1a47,47,0,0,0-12.41,2.52c-5.59,2.11-9.91,5.93-13.88,10.21C260.58,333.49,259.62,334.74,258.4,336.19ZM240.21,348.5v25.06h1.71c-1.63-3.21-1.53-5.11.29-6.69a4,4,0,0,1,5.09-.2,5.73,5.73,0,0,1,1.63,2.28c.64,1.66,0,3.18-1.14,4.62h12.29c-2.68-2.32-3.17-4.8-1.44-6.92a4.16,4.16,0,0,1,5.9-.54,4.32,4.32,0,0,1,1.51,3.85,5,5,0,0,1-2.47,3.64h3.56V348.5ZM109.54,177.34a6.33,6.33,0,0,0,1.14-.08c4.35-1.33,8.8-2.42,13-4.11a22.86,22.86,0,0,0,10.41-8.93,5.31,5.31,0,0,0,1-4.43c-.86-3.18-5-6.33-8.27-6a40.14,40.14,0,0,0-6.29,1.38c-1.8.48-2.72,1.84-3.36,3.55-1.16,3.06-2.48,6.06-3.73,9.08S110.92,174,109.54,177.34ZM223.12,156.9c-.5-.71-.87-1.35-1.34-1.91-2.5-3-5.11-5.84-7.52-8.88a20.94,20.94,0,0,0-5.67-4.9c-5.09-3.08-12-1.13-14.27,4.1a1.61,1.61,0,0,0-.09,1.21c.78,1.58,1.63,3.12,2.52,4.64a2.46,2.46,0,0,0,.93.69c4,2.23,8.49,3.24,12.88,4.45a36.83,36.83,0,0,0,11.79.82A4.25,4.25,0,0,0,223.12,156.9Zm-21.8,1.54a13.22,13.22,0,0,0,.88,1.36c1,1.23,2,2.49,3.12,3.63,4.33,4.43,9.2,8.08,15.3,9.66,3.24.84,6.54,1.43,9.83,2.09,1.5.3,1.86-.09,1.62-1.6a3.36,3.36,0,0,0-.37-1c-1.43-2.82-2.89-5.61-4.27-8.44a4.22,4.22,0,0,0-4.52-2.68,59.71,59.71,0,0,1-6.69.12c-4.52-.14-8.8-1.5-13.1-2.74C202.65,158.71,202.16,158.63,201.32,158.44Zm-1.15,182.3a4.46,4.46,0,0,0-.48-.8c-1.83-2.06-3.59-4.19-5.56-6.11a16.9,16.9,0,0,0-7.15-4.24c-2.39-.69-4.66-.5-6.5,1.26s-1.72,3.86-.95,5.92c1.06,2.84,2.31,5.61,3.62,8.33.7,1.46.86,1.34,2.32.67,2.61-1.19,5.22-2.42,7.92-3.37A66.58,66.58,0,0,1,200.17,340.74Zm77.55-24.1a7.71,7.71,0,0,0-.68-.6c-2.41-1.65-4.76-3.4-7.27-4.88a18.55,18.55,0,0,0-5.76-2.53c-3.36-.6-6.21,1.5-4.9,5.62a6.45,6.45,0,0,0,.6,1.43c1.42,2.23,2.87,4.43,4.3,6.64.38.59.76.66,1.37.23A36,36,0,0,1,276.87,317,6.1,6.1,0,0,0,277.72,316.64Zm-110,46.28a47.72,47.72,0,0,1,11.82-13.48,15,15,0,0,0-8.22-1.62,7.22,7.22,0,0,0-4.75,2.51C164.1,353.47,164.6,359.94,167.73,362.92ZM30.21,310.24l.38-.46c-.74-2.1-1.48-4.19-2.2-6.29-1.07-3.1-3.5-4.75-6.34-6-.7-.3-1.17-.19-1.31.64a18.54,18.54,0,0,0-.14,6c.61,3.88-.27,3.07,3.65,4.48C26.17,309.38,28.22,309.73,30.21,310.24Zm212-50.78c.56-.38.89-.57,1.19-.81,1.28-1,2.52-2.1,3.82-3.1a2.06,2.06,0,0,0,.92-1.93c-.2-2.51-.36-5-.5-7.54-.06-1-.63-1.32-1.44-1-2.05,1-3.92,2.33-4.42,4.6C241.11,252.88,241.94,256.05,242.23,259.46ZM69,298.34c1.41-.25,2.85-.58,4.3-.74,1-.1,1.37-.42,1.2-1.49a33.13,33.13,0,0,1,.37-11.66c.22-1.13.36-2.27.52-3.29Q72.25,289.62,69,298.34Zm184.8,35.91,6.6-7.62a9.14,9.14,0,0,0-6.53-.15,2.65,2.65,0,0,0-1.81,2.31A6.61,6.61,0,0,0,253.79,334.25Zm-16-72.22c-.79-1.27-1.48-2.54-2.33-3.68s-3.87-1.32-4.26-.23a41.93,41.93,0,0,0-1.21,5.15A13,13,0,0,0,237.81,262ZM35.54,310.55l6.83-.66c-.78-2.22-1.55-4.07-3.47-5.16-.62-.35-1.2-.47-1.68.2A9.24,9.24,0,0,0,35.54,310.55ZM206,334.78c-.83,1.41-.84,4.73-.13,5.75a.75.75,0,0,0,.48.3c2.23.31,4.46.59,7,.92Zm65.95,14.57c2.07-.61,2.55-2,1.87-4.82C272.22,345.75,272,347.45,271.94,349.35Zm-23.34-7.52c-2.57-.33-3.27-.39-4.15,1.54a21.09,21.09,0,0,1,2.39,0C248.07,343.53,248.59,343,248.6,341.83Zm25.93,22.94-2.32-.28v3.94l.23.1C273.1,367.36,273.75,366.19,274.53,364.77Zm-5-23H267.3c.13.6.23,1.09.42,2Zm-8.67,1.38.28.3,1.7-1.79C261.39,341.55,261.28,342.56,260.84,343.18Z"/><path class="cls-3" d="M13.19,291c.25,1.51.59,3,.72,4.54.32,3.54.47,7.1.83,10.63a21.19,21.19,0,0,0,1,4.19,1.83,1.83,0,0,0,1,.89c2.73,1.13,5.43,2.38,8.24,3.28a36.81,36.81,0,0,0,13.18,1.28c.39,0,.79-.07,1.19-.08a2.16,2.16,0,0,1,.5.17c-.2.4-.36.78-.57,1.14a29.08,29.08,0,0,0-3.7,21,32.07,32.07,0,0,0,7.62,14.88c3.32,3.81,7.5,6.44,11.83,8.89,1.87,1.07,3.67,2.27,5.57,3.29a5.28,5.28,0,0,1,2.47,4.06c1.07,5.74,4.37,9.7,9.24,12.63a22.89,22.89,0,0,0,19.38,2.29c4-1.25,8-2.71,12-4.23a27.48,27.48,0,0,1,15.66-1.3,10.8,10.8,0,0,0,3.42.35c2.9-.34,4-3.05,2-5.11a47.25,47.25,0,0,0-5.56-4.33c-.54-.4-1.2-.66-1.71-1.09a3,3,0,0,1-.7-1.14,13.56,13.56,0,0,0-1.22-3.27,36.07,36.07,0,0,0-15-11.4,36.45,36.45,0,0,0-23.37-1.91,13.33,13.33,0,0,0-9.8,8.07,4,4,0,0,1-.46.6c-1.37-1.45-2.69-2.83-4-4.22-2.36-2.55-5-4.88-7-7.72-4.72-6.86-5.79-14.35-2.57-22.21a12.42,12.42,0,0,1,4.37-5.31A44.45,44.45,0,0,1,76.54,312c1.91-.34,1.91-.28,2.67,1.45,1.08,2.45,2.16,4.9,3.28,7.33,2.52,5.46,6.32,10.07,9.8,14.89,4,5.55,9.22,9.88,14.37,14.23a264.76,264.76,0,0,0,43.75,30.2c6,3.26,12.25,5.88,18.39,8.78l5.3,2.47a4.45,4.45,0,0,1-1.28-.19c-6-2.73-12-5.41-18-8.27a154.45,154.45,0,0,1-20.66-12.15c-7.62-5.26-15.18-10.63-22.56-16.23-4.29-3.25-8.16-7-12.25-10.56-5.69-4.88-9.64-11.15-13.92-17.17-2.72-3.82-4.36-8.16-6.22-12.39-1-2.17-1.11-2.35-3.45-1.87a46,46,0,0,0-17,7,14.54,14.54,0,0,0-6.4,9.86c-1.48,8.17.93,15.16,6.56,21.11,2.25,2.38,4.6,4.67,6.92,7,.3.31.62.59,1,.9.82-1.2,1.5-2.38,2.36-3.4,2.84-3.36,6.67-4.89,10.91-5.42a40.54,40.54,0,0,1,15.24.74,38.9,38.9,0,0,1,15,7.74,24.32,24.32,0,0,1,6,6.45,4.66,4.66,0,0,1,.74,2.11,2.16,2.16,0,0,0,1.22,1.87c2.1,1.45,4.21,2.89,6.2,4.49,1.21,1,2,2.32,1.39,4s-2.2,2.42-4.22,2.36a3.74,3.74,0,0,1-1-.1c-6.84-1.84-13.36-.82-19.74,2a57.26,57.26,0,0,1-12.44,3.9c-7.13,1.39-13.34-.67-19-4.83a17.24,17.24,0,0,1-6.48-9.53c-.2-.69-.26-1.41-.46-2.1a6.73,6.73,0,0,0-3.41-4.07,115.8,115.8,0,0,1-11.61-7.19,31.86,31.86,0,0,1-12.35-19.28,29,29,0,0,1,3.34-20.72c.19-.34.35-.69.65-1.28-.62,0-1,0-1.44,0-3.59-.22-7.2-.22-10.74-.77-2.28-.36-4.43-1.53-6.64-2.34-1.31-.49-2.64-.93-3.9-1.53a2.22,2.22,0,0,1-1.19-1.3c-.6-3.21-1.18-6.44-1.56-9.68-.35-3-.45-6-.66-9A3.8,3.8,0,0,1,13.19,291Z"/><path class="cls-3" d="M171,13.65c-1.47.29-2.94.64-4.42.86-5.4.81-9.79,3.57-13.76,7.11-2.15,1.92-4.13,4-6.24,6-1.56,1.43-3.19,2.78-4.81,4.14a1.49,1.49,0,0,1-.88.28c-6.39,0-11.67,2.84-16.45,6.69-2.88,2.33-5.51,5-8.19,7.55a1.55,1.55,0,0,1-2.09.22c-3.14-1.46-5.27-4.11-7.81-6.27-6.72-5.71-14.2-10-23-11.47a30.87,30.87,0,0,0-13,.79c-6.17,1.58-12.3,3.24-17.9,6.41a48,48,0,0,0-10.68,8.84A61.93,61.93,0,0,0,30.48,61.22,65.14,65.14,0,0,0,24.8,82.06a46.64,46.64,0,0,0,1.27,18.55,79.4,79.4,0,0,0,14,27c4.71,6,9.69,11.7,14.63,17.46a2,2,0,0,1,.3,2.75c-1.43,2.07-2.84,4.17-4.41,6.13a150,150,0,0,0-21.48,35.62,144.5,144.5,0,0,0-7,20.62,103.81,103.81,0,0,0-2.17,12.26c-.85,6.65-1.47,13.33-2.17,20q-1.8,17-3.56,34.09c-.3,2.9-.48,5.8-.73,8.7,0,.14-.13.27-.19.41,0-2.48-.16-5,.09-7.43.62-6.33,1.44-12.65,2.15-19,.32-2.9.49-5.81.82-8.71.48-4.12,1.12-8.22,1.58-12.35.36-3.29.46-6.62.86-9.91.46-3.84,1.2-7.64,1.68-11.48a91.78,91.78,0,0,1,6.2-22.23c4.65-11.77,10.26-23.08,17.94-33.25l8.88-11.76.3-.38c1.77-2.5,1.72-2.64-.33-4.93-6.53-7.3-12.93-14.7-18.24-23a71.08,71.08,0,0,1-10.4-25A52.08,52.08,0,0,1,25,77.61a61.93,61.93,0,0,1,12.9-29c6.16-7.61,13.33-14,23-16.77A118.31,118.31,0,0,1,75.2,28.26a30.21,30.21,0,0,1,16.85,2.58A56.35,56.35,0,0,1,110.38,43.5a19.41,19.41,0,0,0,4.51,2.89c.2.11.78-.21,1.06-.47,2.87-2.6,5.59-5.4,8.6-7.81,4.7-3.76,9.91-6.48,16.16-6.47a1.39,1.39,0,0,0,.87-.3c2.31-2.08,4.61-4.16,6.88-6.28,4.23-4,8.39-8.08,14.09-9.91C165.27,14.29,168,13.36,171,13.65Z"/><path class="cls-4" d="M53.2,134.58l-.19-.21a1.78,1.78,0,0,0-.19-.55c-3.26-4.17-6.68-8.22-9.76-12.52A89.44,89.44,0,0,1,37,111.18c-1.37-2.59-2.3-5.43-3.42-8.15a39.19,39.19,0,0,1-2.75-15.89,66,66,0,0,1,1.15-9.57,54.29,54.29,0,0,1,5.22-15.82A58.41,58.41,0,0,1,50,45.17a26.25,26.25,0,0,1,8.47-5.72c4.37-1.6,8.8-3.05,13.26-4.36a24,24,0,0,1,14.23.07,45.44,45.44,0,0,1,12.92,6.67L102,44.11l.22.19c.21.28.42.56.65.83a27.15,27.15,0,0,0,8.34,6.39c1.59.84,2.93,2.25,5,2,.37,1.12,1.4,1.15,2.25,1.13,2.06,0,4.11-.33,6.17-.37,1,0,2.13-.58,3,.44s1.71,2,2.66,2.9a9.26,9.26,0,0,0,6.13,2.55,2.05,2.05,0,0,1,2,1.26,9.56,9.56,0,0,0,7,5.27c2.68.47,5.39.87,8.1,1.18a23,23,0,0,0,3.89,0c.27,0,.53-.44.79-.67h1.08c3,0,4.65-2.17,4.05-5.08-.43-2.14-1.87-3.47-3.4-4.76-.44-.37-.73-.66-.18-1.12a6.73,6.73,0,0,0,2.69-4.66,3.21,3.21,0,0,1,1,.13,97.13,97.13,0,0,1,9.94,4.7c6,3.63,11.65,7.69,16.12,13.16a72,72,0,0,1,6,7.91,141.41,141.41,0,0,1,6.9,12.84A105.42,105.42,0,0,1,206.34,101c1.4,4,1.09,8.25,1.45,12.4a5.84,5.84,0,0,1,0,1.67c-.65,3.19-1.41,6.36-2,9.56a35.4,35.4,0,0,0-.27,4.38v.6c.18,1.79.36,3.57.54,5.43a16.75,16.75,0,0,0-14.92,5.59l-5.37-7c1-.75,1-1.9-.21-2.68q-3.33-2.21-6.75-4.26a2.68,2.68,0,0,0-3.58.9c-.62,1.08-.26,2.09,1.07,3s2.55,1.78,3.88,2.58a10.72,10.72,0,0,0,2,.71l-.74,2.41a3,3,0,0,0-3.09,2,2.89,2.89,0,0,0,.58,3.31,35.69,35.69,0,0,1,3,4c4.23,6.41,8.34,12.91,12.67,19.26a33,33,0,0,0,12.36,11,1.87,1.87,0,0,1,1.23,1.58,2.57,2.57,0,0,0,.9,1.6c1.23.92,2.58,1.67,3.87,2.52a15.3,15.3,0,0,1,1.3,1.07L195,180.4c.31-.7.94-1.43.87-2.09a1.74,1.74,0,0,1,1.15-2.14,2.08,2.08,0,0,0,1.27-2.74,2.51,2.51,0,0,0-2.85-1.44,5.65,5.65,0,0,0-4.31,7.65c-.82-.13-1.64-.33-2.46-.39-5.17-.37-10-2.09-14.65-4.09-4.08-1.74-7.28-4.83-10.77-7.46-5.52-4.18-11-8.38-16.6-12.47-2.53-1.86-5.23-3.49-7.87-5.2-1.66-1.08-4.2-.62-4.91.87a13.65,13.65,0,0,0-6.44-1.9,22.53,22.53,0,0,0-13,4.09,1.23,1.23,0,0,1-1.12.14c-1.71-1.21-3.37-2.51-5-3.77l-2.26-1.66-.22-.18-.82-1c-2.94-3.5-6.08-6.85-8.77-10.54A64.19,64.19,0,0,1,88.45,122a2.87,2.87,0,0,0-3.76-1.65A2.54,2.54,0,0,0,83.35,124c.37.89.76,1.76,1.18,2.62a83,83,0,0,0,9.09,15c1.63,2.1,3.52,4,5.29,6l.91.93c.47.56.92,1.14,1.42,1.68s.81.78,1.36,1.3c-1,.27-1.81.47-2.58.65A60.47,60.47,0,0,1,87.67,154,56.8,56.8,0,0,1,73,152.57c-3.11-.74-5.74-2-7.66-4.73a38.39,38.39,0,0,0-4.19-4.38l-.2-.21-2.44-2.67-.2-.22C56.6,138.43,54.9,136.51,53.2,134.58ZM96.92,68.9c-.09-1.87-.15-3.62-.28-5.37a16.2,16.2,0,0,0-.42-2.6C93.28,49.4,85.65,42.26,74.79,38.23a5.57,5.57,0,0,0-2.81,0,2.13,2.13,0,0,0-1.8,2.33,2.52,2.52,0,0,0,2.24,2,11.84,11.84,0,0,1,3.51,1A42,42,0,0,1,82,47.37c6,4.75,9.64,10.93,9.71,18.69,0,4.62-.57,9.24-1,13.86-.16,1.84.4,2.83,2,3.08a2.4,2.4,0,0,0,2.91-2.28C96.15,76.76,96.52,72.78,96.92,68.9ZM133.12,111A13.83,13.83,0,0,0,119,121.32a2.1,2.1,0,0,0,1.33,2.52,2.52,2.52,0,0,0,3.54-1.59,12.22,12.22,0,0,1,3-5,6.2,6.2,0,0,1,5.46-1.82,10.69,10.69,0,0,1,7.24,4.48c.8,1,1.49,2.18,2.32,3.2a2.62,2.62,0,0,0,3.66.43c1-.77,1.09-2,.18-3.29-.75-1.09-1.49-2.18-2.31-3.21C140.39,113.22,136.4,111.17,133.12,111ZM183,107.41A12.68,12.68,0,0,0,171,115.55a12.14,12.14,0,0,1-.81,1.71,2.07,2.07,0,0,0,.47,2.7c1.39,1.09,4.31,1.1,4.69-1.51a7.27,7.27,0,0,1,.35-1.27,7.1,7.1,0,0,1,5.52-5.11c2.69-.56,4.82.68,6.54,2.67,1.1,1.26,2.12,2.6,3.25,3.84a2.62,2.62,0,0,0,3.59.19,2.08,2.08,0,0,0,.08-3.18c-1.43-1.71-2.86-3.44-4.45-5A12.27,12.27,0,0,0,183,107.41Zm-5.73,43.85c-5.21,0-8.77,2.53-11.27,6.85-.49.85-.79,1.85,0,2.54a3.46,3.46,0,0,0,2.39.93,3.67,3.67,0,0,0,2.09-1.51c1.26-1.72,2.37-3.63,4.72-3.9a14.17,14.17,0,0,1,4.11.15c1.51.26,2.86-.17,3.33-1.4s-.12-2.3-1.65-2.85A30,30,0,0,0,177.23,151.26Zm-35.65-11.94a5.22,5.22,0,0,0,1.47-.6c1.43-1.15,1.29-2.5-.39-3.85-3.12-2.52-6.23-5.05-9.43-7.47-1.2-.91-2.37-2.05-4.11-1.93a2.19,2.19,0,0,0-2.11,1.65,2.09,2.09,0,0,0,1,2.37c3.34,2.55,6.65,5.15,10,7.64C139.11,137.92,139.87,139.34,141.58,139.32Zm53.53-8.65a3.43,3.43,0,0,0-.56-1,23.4,23.4,0,0,0-2.4-1.94c-3.35-2.42-6.7-4.85-10.09-7.21a2.87,2.87,0,0,0-4,.85c-.61,1,0,2.43,1.42,3.27,1.71,1,3.44,2.07,5.09,3.22,2.18,1.53,4.25,3.21,6.43,4.73C192.83,133.82,195,132.93,195.11,130.67Zm-9,33.57a22.27,22.27,0,0,0-3.45.6c-2.65.85-4.71,2.38-5.35,5.29a2.29,2.29,0,0,0,1.69,3,2.4,2.4,0,0,0,3.06-1.6c.45-1.86,1.68-2.5,3.4-2.61a15.45,15.45,0,0,0,1.67-.13,2.38,2.38,0,0,0,2.06-2.18,2.29,2.29,0,0,0-1.92-2.15C186.92,164.33,186.56,164.31,186.11,164.24Zm-62.37-33.45a2.48,2.48,0,0,0-2.5,1.73,1.94,1.94,0,0,0,.87,2.39c2.15,1.42,4.26,2.91,6.46,4.26a5.88,5.88,0,0,0,2.43.68,2,2,0,0,0,2.11-1.47,1.93,1.93,0,0,0-1-2.33c-2.06-1.36-4-2.87-6.07-4.24A12.94,12.94,0,0,0,123.74,130.79Zm73.79-1.53a2.69,2.69,0,0,0,2.47-1.49,2.27,2.27,0,0,0-.59-2.63c-1.21-1.26-2.44-2.52-3.72-3.72-.88-.82-1.92-1.6-3.2-1.18a3.24,3.24,0,0,0-1.83,1.43,2.35,2.35,0,0,0,.48,2c1.51,1.63,3.16,3.14,4.81,4.64A8.45,8.45,0,0,0,197.53,129.26Zm-55.32-3.84-.18.3a2.14,2.14,0,0,0-2.35,1.26c-.49,1.06.07,2.2,1.39,3s2.37,1.6,3.57,2.38a14.05,14.05,0,0,0,2.23,1.32,2.4,2.4,0,0,0,2.83-1.23,1.75,1.75,0,0,0-.56-2.43c-1-.85-2.12-1.66-3.24-2.41S143.44,126.16,142.21,125.42Z"/><path class="cls-5" d="M24.78,233.51l0-.74c.13-.18.34-.35.36-.54.42-3.11.78-6.22,1.22-9.32.48-3.34.9-6.69,1.57-10A72.38,72.38,0,0,1,30,205.46a98,98,0,0,1,3.35-9.83c2.42-5.52,5-11,7.8-16.31a126.29,126.29,0,0,1,7.23-11.66c2.91-4.31,6.06-8.47,9.12-12.69.59-.82,1.26-1.59,1.89-2.38,1,.78,1.86,1.45,2.7,2.17,2.29,2,5.63,1.9,7.86,4a2.29,2.29,0,0,0,1.08.5c2.79.59,5.59,1.2,8.4,1.71,4.19.75,8.39,1.39,12.31,3.18,2.51,1.14,5.19,2.11,6.94,4.31,2,2.45,3.58,5.16,5.34,7.76a.46.46,0,0,1,.08.35,12.35,12.35,0,0,0,0,5.92c.23,1.14.41,1.75,1.66,1.76a42.31,42.31,0,0,1,5,.06,17,17,0,0,0,7.18-.55c4.34-1.31,8.63-2.82,12.83-4.52,2.83-1.14,5.44-2.16,8.54-.77s6.46,2.48,9.74,3.61c3.62,1.25,7.28,2.37,10.9,3.6,1.16.39,2.27,1,3.39,1.44-1.3.09-2.62.14-3.92.26-2.49.24-5,.41-7.46.81a55.17,55.17,0,0,0-18.66,7,55.13,55.13,0,0,0-10.17,7.09,49.43,49.43,0,0,0-9,10.92,38.21,38.21,0,0,0-5.41,13.71,76.12,76.12,0,0,0-.85,14.72,100.82,100.82,0,0,0,1.51,14.09,58.67,58.67,0,0,0,9.3,23,28.75,28.75,0,0,0,2,2.31c0,1.87.52,2.58,2.32,3.1.72.2,1.5.18,2.23.37,3.23.81,6.46,1.65,9.69,2.48a160.05,160.05,0,0,1,25.44,8.53,62.43,62.43,0,0,1,19.32,13c3.11,3.14,6.08,6.43,9.17,9.6,2.87,2.95,5.81,5.83,8.73,8.73,1.41,1.41,2.83,2.8,4.32,4.26-.74.65-.61,2-2,1.74l0,0a7.79,7.79,0,0,0-1.13-1.6,31,31,0,0,0-4.6-3.6c-3.79-2.13-7.72-4-12.31-2.88a16.6,16.6,0,0,0-2.34.9c-5,2-6.43,6.42-5.59,11a55.68,55.68,0,0,0,2,6.53c-.3,0-.6,0-.91,0a34.66,34.66,0,0,0-5.1.07c-6.56,1-10.41,5.78-10.38,12.36a18.43,18.43,0,0,0,3.26,9.95c.48.74,1,1.45,1.66,2.45-1.91-.49-3.48-.87-5-1.29-5.82-1.57-11.61-3.32-16.87-6.27a144,144,0,0,1-13.23-8.54c-4.27-3-8.32-6.41-12.41-9.69q-4.84-3.89-9.58-7.9c-2.64-2.23-5.34-4.43-7.79-6.86-3-3-6-6.19-8.75-9.48a38,38,0,0,1-6.73-10.47,42.5,42.5,0,0,1-3.19-16.77c.11-3.43,1-6.82,1.5-10.24a41.63,41.63,0,0,0,.75-6.73c-.1-3.81-.57-7.61-.89-11.41a38.33,38.33,0,0,0-.39-4.15,72.4,72.4,0,0,1-1.51-14.08c0-3.9,0-7.8.26-11.69.19-3.23.56-6.47,1.06-9.66.55-3.48,1.26-6.93,2.05-10.35,1.13-4.91,2.24-9.83,3.66-14.66,1-3.5,2.55-6.87,3.86-10.3.46-1.18.7-2.3-.37-3.3a3.55,3.55,0,0,0-3.7-1c-3.24,1.24-5.52,3.83-8,6.15a2.93,2.93,0,0,0-.71,1.23c-.66,2.18-1.25,4.37-1.88,6.55-1.06,3.7-2.27,7.38-3.18,11.13-1.3,5.4-2.42,10.85-3.55,16.29-1.28,6.18-2.54,12.37-3.72,18.57-1.09,5.77-2.09,11.56-3.09,17.35-.69,4-1.29,8.07-1.93,12.11q-.61,3.87-1.2,7.76c-.62,4.12-1.31,8.23-1.79,12.36-.34,2.9-1.79,5.79-.16,8.68l-10.86,5.65c-.22-.41-.43-.83-.66-1.24a12,12,0,0,0-4.09-4.73c-3.14-1.94-5.72-2-8.73.12-.08.06-.22,0-.44.08-2.47-5.49-7.14-7.92-12.88-9.12v-1.2c0-3.8,0-7.6,0-11.4a11.22,11.22,0,0,0-.17-1.28l0-.73c.2-1.13.48-2.25.6-3.38.37-3.47.64-6.95,1-10.42q.9-8.51,1.89-17c.26-2.2.7-4.39.87-6.59S24.73,235.68,24.78,233.51Z"/><path class="cls-6" d="M120.7,281a28.75,28.75,0,0,1-2-2.31,58.67,58.67,0,0,1-9.3-23,100.82,100.82,0,0,1-1.51-14.09,76.12,76.12,0,0,1,.85-14.72,38.21,38.21,0,0,1,5.41-13.71,49.43,49.43,0,0,1,9-10.92,55.13,55.13,0,0,1,10.17-7.09,55.17,55.17,0,0,1,18.66-7c2.46-.4,5-.57,7.46-.81,1.3-.12,2.62-.17,3.92-.26h1.2l.49.22,1.65,0,.73.23H168l.49.22,6,.5,1.21.23a9.67,9.67,0,0,1,1.43,0c4.63.88,9.26,1.79,13.89,2.68,2.33.46,4.66.9,7,1.35.15.16.27.4.45.47A25.16,25.16,0,0,1,211,203.57a17,17,0,0,0,1.83,2.08c.48,2.94.95,5.89,1.44,8.83.08.5.26,1,.39,1.49l0,.5a7.47,7.47,0,0,0-.17,1.14c.07,2.91.24,5.82.23,8.73,0,4.19-.16,8.38-.23,12.56a7.75,7.75,0,0,0,.17,1.27l0,.5c-.12.18-.33.35-.35.54-.18,2.22-.31,4.45-.51,6.66-.31,3.29-.52,6.59-1,9.85a40.56,40.56,0,0,1-7,17.36,28.43,28.43,0,0,0-1.51,2.63.15.15,0,0,1-.12.16,5,5,0,0,0-.94.68c-2.06,2.26-4.09,4.55-6.14,6.83a7.53,7.53,0,0,0-.71.8,16.65,16.65,0,0,1-8.46,6.54,100.27,100.27,0,0,1-11.24,3.07c-1.37.32-2.8.68-4.29-.14a123.91,123.91,0,0,0-12-6.14c-10.88-4.5-22.28-7.4-33.7-10.15a13.57,13.57,0,0,0-2.22-.18l-.93,0C122.15,279,121.54,279.41,120.7,281Z"/><path class="cls-5" d="M242.86,337.41l-.39.27-.54.51-4.31,4.27a2.69,2.69,0,0,1-.79-.21c-1.67-1.08-3.37-2.13-5-3.31-2.53-1.86-4.93-3.9-7.5-5.71s-3.64-5.12-6.54-6.6c-.14-.07-.22-.23-.32-.36l-2.17-2.84c-3.15-4.16-6.25-8.36-7.88-13.4-1.54-4.77-2.33-9.63-1.32-14.66.69-3.46,1.71-6.51,4.89-8.74a30.17,30.17,0,0,0,6.23-6.38,88,88,0,0,0,5.24-8.26c.39-.64.69-1,1.47-.57,3.16,1.79,6.38,3.45,9.47,5.35,3.56,2.18,7,4.56,10.48,6.85,3,2,6.18,3.78,9,6C259.06,294.3,265,299.18,271,304c.95.78,2.14,1.54,2.13,3.23-.59-.3-1.09-.53-1.55-.81-3-1.82-6.24-3-9.87-2.66-3.41.35-7.33,2.79-8.09,6.57a10.6,10.6,0,0,0,.92,6.69c.59,1.3,1.31,2.53,2,3.78-1.7.45-3.34.76-4.9,1.3a6.94,6.94,0,0,0-4.8,5.73,12.08,12.08,0,0,0,1.81,8.32c-.47,0-1,0-1.42,0-1.28,0-2.61-.2-3.68.8Z"/><path class="cls-4" d="M165.06,20.62l1.31-.37.37-.08.82-.17.38-.06,2-.18,2.74,0,1.78.18.85.1.81.08a14.06,14.06,0,0,0,2.43,1.2c2.29.63,4.61,1.14,6.92,1.7a62.69,62.69,0,0,1,7.09,4.58c9.24,7.81,15.4,17.5,17.62,29.56,1.27,6.94,2.24,13.9,1.49,21-.44,4.09-1.06,8.16-1.57,12.25-.14,1.13-.19,2.27-.28,3.41l-.31.08c-.19-.4-.41-.78-.58-1.19A96.48,96.48,0,0,0,195.64,69a72.68,72.68,0,0,0-14.41-13.27c-6-4.46-12.9-7.16-19.75-10a4.7,4.7,0,0,1-1.77-.94c-2.24-2.51-5.23-3.44-8.37-4-.93-.17-1.27-.51-1.4-1.52a42.07,42.07,0,0,0-1.08-4.14,2,2,0,0,1,.13-1.48,54.4,54.4,0,0,1,13.4-12,14.72,14.72,0,0,1,2.29-.9Z"/><path class="cls-3" d="M20.21,278.14a11.22,11.22,0,0,1,.17,1.28c0,3.8,0,7.6,0,11.4V292c5.74,1.2,10.41,3.63,12.88,9.12.22,0,.36,0,.44-.08,3-2.1,5.59-2.06,8.73-.12a12,12,0,0,1,4.09,4.73c.23.41.44.83.66,1.24L58,301.26c-1.63-2.89-.18-5.78.16-8.68.48-4.13,1.17-8.24,1.79-12.36q.59-3.89,1.2-7.76c.64-4,1.24-8.08,1.93-12.11,1-5.79,2-11.58,3.09-17.35,1.18-6.2,2.44-12.39,3.72-18.57,1.13-5.44,2.25-10.89,3.55-16.29.91-3.75,2.12-7.43,3.18-11.13.63-2.18,1.22-4.37,1.88-6.55a2.93,2.93,0,0,1,.71-1.23c2.45-2.32,4.73-4.91,8-6.15a3.55,3.55,0,0,1,3.7,1c1.07,1,.83,2.12.37,3.3-1.31,3.43-2.82,6.8-3.86,10.3-1.42,4.83-2.53,9.75-3.66,14.66-.79,3.42-1.5,6.87-2.05,10.35-.5,3.19-.87,6.43-1.06,9.66-.23,3.89-.24,7.79-.26,11.69a72.4,72.4,0,0,0,1.51,14.08,38.33,38.33,0,0,1,.39,4.15c.32,3.8.79,7.6.89,11.41a41.63,41.63,0,0,1-.75,6.73c-.49,3.42-1.39,6.81-1.5,10.24a42.5,42.5,0,0,0,3.19,16.77,38,38,0,0,0,6.73,10.47c2.76,3.29,5.7,6.45,8.75,9.48,2.45,2.43,5.15,4.63,7.79,6.86q4.74,4,9.58,7.9c4.09,3.28,8.14,6.65,12.41,9.69a144,144,0,0,0,13.23,8.54c5.26,3,11,4.7,16.87,6.27,1.56.42,3.13.8,5,1.29-.68-1-1.18-1.71-1.66-2.45a18.43,18.43,0,0,1-3.26-9.95c0-6.58,3.82-11.34,10.38-12.36a34.66,34.66,0,0,1,5.1-.07c.31,0,.61,0,.91,0a55.68,55.68,0,0,1-2-6.53c-.84-4.54.62-8.92,5.59-11a16.6,16.6,0,0,1,2.34-.9c4.59-1.16,8.52.75,12.31,2.88a31,31,0,0,1,4.6,3.6,7.79,7.79,0,0,1,1.13,1.6c-1.61-1.35-3.18-2.77-4.86-4a19.49,19.49,0,0,0-9.8-3.86,9.72,9.72,0,0,0-10.75,11.93,56.28,56.28,0,0,0,1.81,5.46c.15.44.34.86.61,1.52-1-.14-1.69-.28-2.43-.33-4.06-.32-7.86.37-10.89,3.3-3.23,3.13-4.09,7.05-3.29,11.36a18.36,18.36,0,0,0,4.38,8.94,2,2,0,0,1,.5,2.15,17.69,17.69,0,0,0,.25,10.51,9.45,9.45,0,0,1,.31,1.16c0,.1,0,.22-.12.47-.43-.15-.83-.28-1.21-.44-11-4.72-21.05-11-30.84-17.72-5.44-3.73-10.88-7.49-16-11.63-5.86-4.75-11.85-9.49-16.93-15-6.77-7.35-12.58-15.55-15.85-25.21-1.13-3.33-2.26-6.66-3.15-10.06a36.76,36.76,0,0,1-.12-18.86c1.43-5.51,1.18-11.09.49-16.68-.66-5.31-1.47-10.61-1.84-15.93a109.19,109.19,0,0,1,1.08-27c1.41-7.87,2.67-15.78,5.16-23.4,1.36-4.14,3-8.19,4.52-12.26.34-.92.59-1.78-.17-2.57a2.73,2.73,0,0,0-2.83-.87,2.52,2.52,0,0,0-1.77,2c-.64,2.1-1.51,4.13-2.3,6.18-3.08,8-4.8,16.31-6.46,24.68a123.73,123.73,0,0,0-2.36,28.73c.12,3.36.31,6.71.62,10.06a13.29,13.29,0,0,1-.68,4.94c-3.71,13.21-7.83,26.28-12.75,39.1a2.64,2.64,0,0,1-1.7,1.65A55.33,55.33,0,0,0,48,307.27c-.73.53-1.08.34-1.43-.43a11.78,11.78,0,0,0-4.82-5.79c-3-1.68-5.27-1.56-8,.54a6,6,0,0,1-.54.3c-.23-.38-.47-.73-.66-1.1-2.49-4.84-6.58-7.32-11.86-8.08-.31,0-.81-.46-.81-.71,0-4.55.09-9.11.15-13.66C20.08,278.27,20.16,278.21,20.21,278.14Z"/><path class="cls-6" d="M204.24,345.12c1.48.14,2.95.28,4.42.4,3.8.31,6.75,2.29,9.4,4.82.33.31,3.23,3.32,3.25,3.8.43,7.15-1.48,11.69-5.48,17.41a30.91,30.91,0,0,1-6.49,6c-7.69,5.13-12.55,8.1-21.53,9.75-1.95.37-6,.12-8.79,0-1,.14-4.64-1.91-5.3-2.58a15.46,15.46,0,0,1-2.87-17.05,37.59,37.59,0,0,1,15.18-17,33.91,33.91,0,0,1,16.65-5.52c.52,0,1,0,1.56,0Z"/><path class="cls-3" d="M248.61,336.19a12.08,12.08,0,0,1-1.81-8.32,6.94,6.94,0,0,1,4.8-5.73c1.56-.54,3.2-.85,4.9-1.3-.65-1.25-1.37-2.48-2-3.78a10.6,10.6,0,0,1-.92-6.69c.76-3.78,4.68-6.22,8.09-6.57,3.63-.38,6.83.84,9.87,2.66.46.28,1,.51,1.55.81,0-1.69-1.18-2.45-2.13-3.23-6-4.86-11.94-9.74-18.05-14.44-2.86-2.2-6-4-9-6-3.49-2.29-6.92-4.67-10.48-6.85-3.09-1.9-6.31-3.56-9.47-5.35-.78-.44-1.08-.07-1.47.57a88,88,0,0,1-5.24,8.26,30.17,30.17,0,0,1-6.23,6.38c-3.18,2.23-4.2,5.28-4.89,8.74-1,5-.22,9.89,1.32,14.66,1.63,5,4.73,9.24,7.88,13.4l2.17,2.84c.1.13.18.29.32.36,2.9,1.48,4,4.78,6.54,6.6s5,3.85,7.5,5.71c1.6,1.18,3.3,2.23,5,3.31a2.69,2.69,0,0,0,.79.21,14,14,0,0,0-1.05,1.13c-.62.83-1.19,1.69-1.9,2.69-.45-.23-1.16-.64-1.9-1-5.51-2.75-11.05-5.43-16.51-8.26a19.62,19.62,0,0,1-4.57-3.24c-5.05-4.95-10-10-15-15.06a27.76,27.76,0,0,1-3.6-3.68c-3.45-5.1-8.16-9-12.62-13.08-5.06-4.61-11.13-7.83-17.38-10.69-10.72-4.9-22-7.86-33.4-10.78-1.77-.46-3.55-.87-5.32-1.3a13.57,13.57,0,0,1,2.22.18c11.42,2.75,22.82,5.65,33.7,10.15a123.91,123.91,0,0,1,12,6.14c1.49.82,2.92.46,4.29.14a100.27,100.27,0,0,0,11.24-3.07,16.65,16.65,0,0,0,8.46-6.54,7.53,7.53,0,0,1,.71-.8c2.05-2.28,4.08-4.57,6.14-6.83a5,5,0,0,1,.94-.68c-1.45,1.79-2.86,3.6-4.34,5.36-.7.82-1.53,1.53-2.28,2.3-1.22,1.25-1.34,2.27-.42,3.23a2.57,2.57,0,0,0,3.67-.05c2.05-2.13,4.11-4.26,6-6.52a50.46,50.46,0,0,0,8.53-14.09c.35-.92.75-1,1.61-.58,9.62,4.23,18.39,9.9,27.2,15.58,10,6.46,19.19,13.93,28.31,21.51,1.07.89,1.17,2.08,1.34,3.51-.44-.19-.71-.3-1-.44-1.89-.94-3.72-2-5.68-2.82a10.38,10.38,0,0,0-10.15,1.3,7.89,7.89,0,0,0-2.45,9.58c.78,1.91,1.82,3.71,2.81,5.69-.59.07-1.16.13-1.73.21a21.34,21.34,0,0,0-2.12.37c-5.71,1.5-8,6.59-5.47,11.95.27.57.64,1.11.9,1.69C249,335.76,248.72,336,248.61,336.19Z"/><path class="cls-6" d="M133.9,150.9c.71-1.49,3.25-2,4.91-.87,2.64,1.71,5.34,3.34,7.87,5.2,5.58,4.09,11.08,8.29,16.6,12.47,3.49,2.63,6.69,5.72,10.77,7.46,4.69,2,9.48,3.72,14.65,4.09.82.06,1.64.26,2.46.39a3.16,3.16,0,0,0,3.87.76l19.16,2.26a15.3,15.3,0,0,0-1.3-1.07c-1.29-.85-2.64-1.6-3.87-2.52a2.57,2.57,0,0,1-.9-1.6,1.87,1.87,0,0,0-1.23-1.58,33,33,0,0,1-12.36-11c-4.33-6.35-8.44-12.85-12.67-19.26a35.69,35.69,0,0,0-3-4,2.89,2.89,0,0,1-.58-3.31,3,3,0,0,1,3.09-2c.27.33.54.65.8,1l.19.23.55.73.17.23.55.72.17.24.55.72.17.24q1.59,2.4,3.19,4.8l.16.26a2.62,2.62,0,0,0,.18.56c1.3,2.37,2.58,4.75,3.92,7.09.69,1.23,1.48,2.41,2.23,3.61l.16.25,2.22,3.36.17.25.33.46.16.24.53.73.19.24.56.71.17.23,1,1.22.9,1,4.08,4,.23.18,1,.78.24.19,1,.76.22.17.48.32.24.17.46.32.26.18.47.3.25.15.47.33.25.16.49.31.23.16,1,.57a2,2,0,0,1,.25.14,4.45,4.45,0,0,0,.93.67c2.84,1,5.66,2.08,8.54,3a28.83,28.83,0,0,0,4.07.7l.41.07,5.36.89.4,0,4,.82c1,1.1,1.9,1.2,3.64.42,1.35.05,2.7.15,4.06.15s1.59.9,1.83,1.85-.34,1.47-1.09,1.91a4.49,4.49,0,0,0-.75.7l-.62.61a1.13,1.13,0,0,0-.75,1.53v1.32a11.47,11.47,0,0,0,1.22,2.86c1.31,1.64,1.33,2.62-.91,3.8a7.12,7.12,0,0,1-5.9.23c-3.15-1.2-6.15-2.79-9.24-4.16-.89-.4-1.86-.64-2.79-1l-.64-.3-4.31-1.49a1.12,1.12,0,0,0-1.72-.44l-10.15-.64-.41,0-3.76-.21-.77,0c-.13-.08-.25-.22-.39-.23-1.61-.18-3.22-.34-4.84-.5l-4.7-.43-.42-.05a5.17,5.17,0,0,0-.75-.27c-3-.51-6-.89-8.92-1.53a51.76,51.76,0,0,1-15.2-6c-1-.56-2-1.06-2.93-1.59l-.25-.16-1.19-.79-.25-.18-1.67-1.26-.49-.4-.71-.56-.24-.19-1.19-1-.74-.64-1.18-1-1.7-1.6a2.29,2.29,0,0,0-.3-.5q-4.47-4.49-9-8.95a3.87,3.87,0,0,0-.79-.48l-1.46-1.34-1.2-1-.24-.19c-.87-1.17-2.15-1-3.36-1l0,0-.54-.72L138,155l-1.71-1.89-.23-.22-.94-.75h0Z"/><path class="cls-3" d="M166.76,187.42l-1.65,0-.49-.22h-1.2c-1.12-.48-2.23-1-3.39-1.44-3.62-1.23-7.28-2.35-10.9-3.6-3.28-1.13-6.59-2.2-9.74-3.61s-5.71-.37-8.54.77c-4.2,1.7-8.49,3.21-12.83,4.52a17,17,0,0,1-7.18.55,42.31,42.31,0,0,0-5-.06c-1.25,0-1.43-.62-1.66-1.76a12.35,12.35,0,0,1,0-5.92.46.46,0,0,0-.08-.35c-1.76-2.6-3.38-5.31-5.34-7.76-1.75-2.2-4.43-3.17-6.94-4.31-3.92-1.79-8.12-2.43-12.31-3.18-2.81-.51-5.61-1.12-8.4-1.71a2.29,2.29,0,0,1-1.08-.5c-2.23-2.12-5.57-2-7.86-4-.84-.72-1.72-1.39-2.7-2.17-.63.79-1.3,1.56-1.89,2.38-3.06,4.22-6.21,8.38-9.12,12.69a126.29,126.29,0,0,0-7.23,11.66c-2.83,5.32-5.38,10.79-7.8,16.31A98,98,0,0,0,30,205.46,72.38,72.38,0,0,0,28,212.92c-.67,3.3-1.09,6.65-1.57,10-.44,3.1-.8,6.21-1.22,9.32,0,.19-.23.36-.36.54.25-2.38.43-4.76.76-7.13.51-3.76,1-7.53,1.71-11.24.64-3.21,1.65-6.34,2.46-9.51,1.81-7,5.29-13.35,8.21-19.91a116.64,116.64,0,0,1,8.45-15.45c2.74-4.26,5.93-8.22,8.94-12.31,1.07-1.45,2.17-2.87,3.26-4.3.26-.34.55-.65.67-.81,1.92,1.26,3.66,2.5,5.51,3.57a9.21,9.21,0,0,0,3,1c3.42.59,6.85,1.14,10.29,1.56a61.58,61.58,0,0,0,22.5-1.42c2.09-.52,4.2-1,6.31-1.43a2,2,0,0,1,1.35.22,23.55,23.55,0,0,1,3.15,2.18,1.46,1.46,0,0,1,.25,1.31c-1.15,3-2.42,5.92-3.58,8.9-1.26,3.24-2.61,6.46-3.61,9.78-1.11,3.66.33,5.11,4.06,4.38,6.09-1.19,12.14-2.61,17.77-5.29a28.32,28.32,0,0,0,12.58-11.44,24.64,24.64,0,0,0,1.43-3.73c.39.33.75.6,1.07.91,3.71,3.64,7.39,7.31,11.14,10.92a59.06,59.06,0,0,0,23.61,14.25c4.52,1.4,9.28,2,13.94,3a124.47,124.47,0,0,0,19.06,1.91,1.59,1.59,0,0,1,1.75,1.49c1.46,6.56,3.1,13.07,3.74,19.78.06.67,0,1.35,0,2-.13-.5-.31-1-.39-1.49-.49-2.94-1-5.89-1.44-8.83-.52-2.48-1-5-1.58-7.43-.08-.32-.55-.64-.92-.79-3.56-1.44-7.13-2.84-10.71-4.24-.54-.21-1.11-.33-1.67-.5-2.33-.45-4.66-.89-7-1.35-4.63-.89-9.26-1.8-13.89-2.68a9.67,9.67,0,0,0-1.43,0l-1.21-.23-6-.5-.49-.22h-.47Z"/><path class="cls-5" d="M236.86,202.27l.95,0c.48.74,1.08.54,1.69.21l.71,0c1.37.78,1.43,2.23,1.64,3.51.87,5.3,1.63,10.62,2.46,15.93,0,.25.29.47.44.7l0,.47c.15,1.74.3,3.48.46,5.22,0,0,.14,0,.22.07l0,.48c-.08.09-.22.19-.21.27q.51,4.13,1,8.23c0,.06.21.1.31.14l.05.47c-.08.21-.27.44-.24.62.22,1.07-.44,1.26-1.26,1.55a28.67,28.67,0,0,0-4.05,1.89c-.42.23-.62.84-.92,1.28l-1.19,1.16c-1.27.31-1.61,1.46-2.06,2.42-.59,1.26-1.25,2.57-.62,4.05v1l.1.74a2.34,2.34,0,0,1,0,.26l-.26.25-.75-.15c-.31-.21-.62-.57-.94-.58a9.69,9.69,0,0,0-2.85.1c-1.54.38-3,1-4.64,1.53.17-1.57.36-3.22.52-4.87.48-5.21,1.18-10.42,1.36-15.65a102.29,102.29,0,0,0-.6-17.66,95.64,95.64,0,0,0-3.48-16.41c-.33-1-.57-2.08-.91-3.33a7.18,7.18,0,0,1,.79.29c2.36,1.24,4.74,2.43,7.06,3.74,1.5.84,3.36.93,4.64,2.23C236.42,202.5,236.69,202.34,236.86,202.27Z"/><path class="cls-3" d="M108.76,364.59c-.32.39-.4.53-.51.63-2.22,1.94-1.8,4.25,1,5.33.85.33,1.73.61,2.58,1a8,8,0,0,1,1,.62l-.07.34c-1.17.11-2.33.24-3.49.33-4.14.33-7.83,2.14-11.67,3.48a92.94,92.94,0,0,1-10.76,3.23c-5.8,1.24-13.17-2.05-16.13-6.95a13.65,13.65,0,0,1-1.7-6.89,3.9,3.9,0,0,1,.6-2c3-5,7.16-8,13.18-8.51a31.8,31.8,0,0,1,23.94,7.78Z"/><path class="cls-6" d="M158.31,66.8c-.26.24-.51,1-.78,1a25.26,25.26,0,0,1-4.17,0c-2.71-.32-5.42-.71-8.1-1.18a9.59,9.59,0,0,1-7-5.27,2,2,0,0,0-2-1.26,9.33,9.33,0,0,1-6.13-2.55c-.94-.91-1.8-1.92-2.66-2.91s-2-.46-3-.44c-2.06,0-4.11.34-6.17.38-.85,0-1.88,0-2.25-1.13a4.56,4.56,0,0,0,2.85-2l.75-.71,3.85-3.66,1.22-1.12,2.62-2.46.24-.19,1-.77.23-.19.72-.55.25-.16.47-.32.25-.17a26.66,26.66,0,0,1,2.36-1.49c1.73-.72,2.58-1.54,4.34-2.2.26,0,2.19,0,2.45,0l2.09-.17h.72a11.26,11.26,0,0,1,1.71-.19c.84.16.63.79.75,1.18a7.89,7.89,0,0,1,0,1.27,6.71,6.71,0,0,1,0,1.06c-.1.09-.49.19-.58.28L141,42.49l-.41.41a3.61,3.61,0,0,0-.19,1.64c.18,1.1.68,1.05,1.57,1.52l.45-.05,2.68-.45h1l1,0,.42,0,2.06,0,.64.06c1.65.37,3.19.54,4.86,1,.08,0,1.23.53,1.31.58,1.7,2.43,1.68,3.6.35,5.51-.08.06-1,.25-1,.31-1.34.32-3,1-4.31,1.26a18,18,0,0,1-1.8.16l-.52,0c-.75.32-1.72.44-2.47.76l-.4.42a4.44,4.44,0,0,0,0,2.45l.63.63a12.36,12.36,0,0,0,2.51.06c1.59.09,2.86-.26,4.43.47,1,.48,1.62.46,2.44,1.32.08.06.37.51.46.57.7.28,1.19,1.35,1.46,1.62l-.48-.59c.48.59.73.32.48.59-1,1-1.5,2.29-1.15,3.22.21.21.2.45.41.66S158.07,66.61,158.31,66.8Z"/><path class="cls-3" d="M236.86,202.27c-.17.07-.44.23-.49.18-1.28-1.3-3.14-1.39-4.64-2.23-2.32-1.31-4.7-2.5-7.06-3.74a7.18,7.18,0,0,0-.79-.29c.34,1.25.58,2.3.91,3.33a95.64,95.64,0,0,1,3.48,16.41,102.29,102.29,0,0,1,.6,17.66c-.18,5.23-.88,10.44-1.36,15.65-.16,1.65-.35,3.3-.52,4.87,1.61-.54,3.1-1.15,4.64-1.53a9.69,9.69,0,0,1,2.85-.1c.32,0,.63.37.94.58a39.57,39.57,0,0,0-4.63.18,5.55,5.55,0,0,0-4.84,4.53,38,38,0,0,0-.81,4.36c-.12,1-.53,1.29-1.47,1.16q-2.67-.39-5.35-.68c-.86-.08-1.06-.46-.91-1.26,2.2-11.72,2.51-23.57,2.6-35.44a112.87,112.87,0,0,0-3.44-28.47c-.29-1.16-.5-2.35-.74-3.52,0-.06,0-.14.17-.44a38.47,38.47,0,0,1,4.8,1.05c2,.71,3.94,1.69,5.9,2.59,2.9,1.32,5.8,2.64,8.68,4A8.79,8.79,0,0,1,236.86,202.27Z"/><path class="cls-6" d="M258.4,336.19c1.22-1.45,2.18-2.7,3.25-3.86,4-4.28,8.29-8.1,13.88-10.21a47,47,0,0,1,12.41-2.52c.22,0,.56,0,.68.1,1.32,1.4,3,2.48,3.23,4.7.75,6.76-1.63,12.41-6,17.32-1.83,2-3.9,3.89-5.87,5.81a5.67,5.67,0,0,1-.79.52,6.76,6.76,0,0,1-.15-1,25.89,25.89,0,0,1,0-4.31c.31-2.21-.84-3.79-2.07-5.24a4,4,0,0,0-2.72-1.14c-4.72-.13-9.43-.08-14.15-.1C259.6,336.26,259.18,336.22,258.4,336.19Z"/><path class="cls-1" d="M240.21,348.5h26.93v25.1h-3.56a5,5,0,0,0,2.47-3.64,4.32,4.32,0,0,0-1.51-3.85,4.16,4.16,0,0,0-5.9.54c-1.73,2.12-1.24,4.6,1.44,6.92H247.79c1.11-1.44,1.78-3,1.14-4.62a5.73,5.73,0,0,0-1.63-2.28,4,4,0,0,0-5.09.2c-1.82,1.58-1.92,3.48-.29,6.69h-1.71Zm16,5.52a4.23,4.23,0,0,0,4,4.46,4.35,4.35,0,1,0-4-4.46Zm-6.78.47a4.22,4.22,0,1,0-8.44,0,4.22,4.22,0,1,0,8.44,0Zm8.21,8.35a4.22,4.22,0,1,0-4.15,4.35A4.24,4.24,0,0,0,257.66,362.84Z"/><path class="cls-1" d="M109.54,177.34c1.38-3.35,2.64-6.45,3.92-9.55s2.57-6,3.73-9.08c.64-1.71,1.56-3.07,3.36-3.55a40.14,40.14,0,0,1,6.29-1.38c3.25-.32,7.41,2.83,8.27,6a5.31,5.31,0,0,1-1,4.43,22.86,22.86,0,0,1-10.41,8.93c-4.21,1.69-8.66,2.78-13,4.11A6.33,6.33,0,0,1,109.54,177.34Z"/><path class="cls-1" d="M223.12,156.9a4.25,4.25,0,0,1-.77.22,36.83,36.83,0,0,1-11.79-.82c-4.39-1.21-8.85-2.22-12.88-4.45a2.46,2.46,0,0,1-.93-.69c-.89-1.52-1.74-3.06-2.52-4.64a1.61,1.61,0,0,1,.09-1.21c2.23-5.23,9.18-7.18,14.27-4.1a20.94,20.94,0,0,1,5.67,4.9c2.41,3,5,5.92,7.52,8.88C222.25,155.55,222.62,156.19,223.12,156.9Z"/><path class="cls-3" d="M201.32,158.44c.84.19,1.33.27,1.8.4,4.3,1.24,8.58,2.6,13.1,2.74a59.71,59.71,0,0,0,6.69-.12,4.22,4.22,0,0,1,4.52,2.68c1.38,2.83,2.84,5.62,4.27,8.44a3.36,3.36,0,0,1,.37,1c.24,1.51-.12,1.9-1.62,1.6-3.29-.66-6.59-1.25-9.83-2.09-6.1-1.58-11-5.23-15.3-9.66-1.11-1.14-2.1-2.4-3.12-3.63A13.22,13.22,0,0,1,201.32,158.44Z"/><path class="cls-4" d="M46.53,349.66,46,349l-.43-.55-.29-.4-.41-.58-1-1.73c-.29-.74-.54-1.5-.89-2.21a24.77,24.77,0,0,1-2.53-13.87,24.34,24.34,0,0,1,3.11-9.82,25,25,0,0,1,3.21-4.59,28.77,28.77,0,0,1,8.11-6q3.76-1.93,7.54-3.82a3,3,0,0,1,.75-.15,1.92,1.92,0,0,1-.71.93c-2.36,1.95-4.73,3.89-7.06,5.88A21.42,21.42,0,0,0,53.75,314,45.06,45.06,0,0,0,50,318c-2.19,3-3.28,6.52-4.25,10.06a16.4,16.4,0,0,0,.19,9,47.91,47.91,0,0,0,2.17,6.45,41.61,41.61,0,0,0,3.93,7.22,70.22,70.22,0,0,0,5.7,6.28c.26.29.49.6.74.9a1.12,1.12,0,0,1-.84-.09c-3.52-2.05-7.06-4.05-9.84-7.12A7,7,0,0,0,46.53,349.66Z"/><path class="cls-3" d="M46.53,349.66a7,7,0,0,1,1.31.95c2.78,3.07,6.32,5.07,9.84,7.12a1.12,1.12,0,0,0,.84.09c-.25-.3-.48-.61-.74-.9a70.22,70.22,0,0,1-5.7-6.28,41.61,41.61,0,0,1-3.93-7.22A47.91,47.91,0,0,1,46,337a16.4,16.4,0,0,1-.19-9c1-3.54,2.06-7.06,4.25-10.06a45.06,45.06,0,0,1,3.71-4,21.42,21.42,0,0,1,1.67-1.86c2.33-2,4.7-3.93,7.06-5.88a1.92,1.92,0,0,0,.71-.93,3,3,0,0,0-.75.15q-3.78,1.89-7.54,3.82a28.77,28.77,0,0,0-8.11,6,25,25,0,0,0-3.21,4.59,24.34,24.34,0,0,0-3.11,9.82A24.77,24.77,0,0,0,43,343.55c.35.71.6,1.47.89,2.21-.2-.17-.46-.3-.58-.51a26,26,0,0,1,2.84-30c2.23-2.52,5.11-4.26,7.92-6.12,5.89-3.89,12.44-5.71,19.19-7.12a3.91,3.91,0,0,1,1.55-.11,1.47,1.47,0,0,1,1,.76c.47,1.31.8,2.68,1.18,4,.19.69,0,1-.78,1.13a47.63,47.63,0,0,0-22.1,9.25,18.24,18.24,0,0,0-6.85,12.13c-1.5,9.45,1.39,17.5,7.9,24.36,1.85,1.94,3.76,3.81,5.64,5.72.28.28.52.58.93,1-.33,0-.49,0-.58-.06-3.79-2.37-7.62-4.68-11.32-7.19A22.58,22.58,0,0,1,46.53,349.66Z"/><path class="cls-1" d="M200.17,340.74a66.58,66.58,0,0,0-6.78,1.66c-2.7,1-5.31,2.18-7.92,3.37-1.46.67-1.62.79-2.32-.67-1.31-2.72-2.56-5.49-3.62-8.33-.77-2.06-.8-4.25.95-5.92s4.11-2,6.5-1.26a16.9,16.9,0,0,1,7.15,4.24c2,1.92,3.73,4.05,5.56,6.11A4.46,4.46,0,0,1,200.17,340.74Z"/><path class="cls-1" d="M277.72,316.64a6.1,6.1,0,0,1-.85.37,36,36,0,0,0-11.49,5.54c-.61.43-1,.36-1.37-.23-1.43-2.21-2.88-4.41-4.3-6.64a6.45,6.45,0,0,1-.6-1.43c-1.31-4.12,1.54-6.22,4.9-5.62a18.55,18.55,0,0,1,5.76,2.53c2.51,1.48,4.86,3.23,7.27,4.88A7.71,7.71,0,0,1,277.72,316.64Z"/><path class="cls-1" d="M167.73,362.92c-3.13-3-3.63-9.45-1.15-12.59a7.22,7.22,0,0,1,4.75-2.51,15,15,0,0,1,8.22,1.62A47.72,47.72,0,0,0,167.73,362.92Z"/><path class="cls-1" d="M30.21,310.24c-2-.51-4-.86-6-1.56-3.92-1.41-3-.6-3.65-4.48a18.54,18.54,0,0,1,.14-6c.14-.83.61-.94,1.31-.64,2.84,1.22,5.27,2.87,6.34,6,.72,2.1,1.46,4.19,2.2,6.29Z"/><path class="cls-3" d="M102,44.11l-3.15-2.28a45.44,45.44,0,0,0-12.92-6.67,24,24,0,0,0-14.23-.07c-4.46,1.31-8.89,2.76-13.26,4.36A26.25,26.25,0,0,0,50,45.17a58.41,58.41,0,0,0-12.8,16.58,54.29,54.29,0,0,0-5.22,15.82,66,66,0,0,0-1.15,9.57A39.19,39.19,0,0,0,33.53,103c1.12,2.72,2,5.56,3.42,8.15a89.44,89.44,0,0,0,6.11,10.12c3.08,4.3,6.5,8.35,9.76,12.52a1.78,1.78,0,0,1,.19.55c-1.31-1.5-2.66-3-3.92-4.48-5-6.11-9.7-12.43-13-19.66-2.33-5.13-4.5-10.33-5.26-16a54.65,54.65,0,0,1,1.09-18.69,54.78,54.78,0,0,1,11.42-23.9c3.71-4.52,7.67-8.89,13-11.55,7.13-3.55,14.64-6,22.69-6.33a25,25,0,0,1,11,2.55,51,51,0,0,1,10.82,6.6A9,9,0,0,1,102,44.11Z"/><path class="cls-1" d="M242.23,259.46c-.29-3.41-1.12-6.58-.43-9.73.5-2.27,2.37-3.64,4.42-4.6.81-.37,1.38-.06,1.44,1,.14,2.51.3,5,.5,7.54a2.06,2.06,0,0,1-.92,1.93c-1.3,1-2.54,2.07-3.82,3.1C243.12,258.89,242.79,259.08,242.23,259.46Z"/><path class="cls-3" d="M120.7,281c.84-1.61,1.45-2,2.78-1.82-.25.11-.49.24-.75.34a2.06,2.06,0,0,0-1.46,2.22,2.11,2.11,0,0,0,1.88,1.9c3.89.91,7.8,1.72,11.66,2.7a162,162,0,0,1,22.47,7.23c6.57,2.75,13.07,5.74,18.39,10.61,4,3.69,7.8,7.67,11.68,11.53q6.15,6.13,12.28,12.3c.42.42.83.86,1.22,1.32,1.62,1.86,1.62,2.17-.07,4.51l-.83-1.05c1.36.24,1.23-1.09,2-1.74-1.49-1.46-2.91-2.85-4.32-4.26-2.92-2.9-5.86-5.78-8.73-8.73-3.09-3.17-6.06-6.46-9.17-9.6a62.43,62.43,0,0,0-19.32-13A160.05,160.05,0,0,0,134.94,287c-3.23-.83-6.46-1.67-9.69-2.48-.73-.19-1.51-.17-2.23-.37C121.22,283.6,120.73,282.89,120.7,281Z"/><path class="cls-3" d="M158.12,67.19l-.73-.58c.42.08.85.2,1.27.24a3.74,3.74,0,0,0,4.19-4.95,8.89,8.89,0,0,0-3.26-4.33l-.94-.77A22.39,22.39,0,0,0,161,54.18,20,20,0,0,0,162.33,51a.85.85,0,0,1,.4,0c3.94,1.86,8.05,3.42,11.77,5.65a64.93,64.93,0,0,1,24.22,25.5c3.35,6.25,6.45,12.62,8.17,19.53a37.85,37.85,0,0,1,.25,18.26c-.72,3-1.11,6-1.65,9a35.4,35.4,0,0,1,.27-4.38c.58-3.2,1.34-6.37,2-9.56a5.84,5.84,0,0,0,0-1.67c-.36-4.15,0-8.39-1.45-12.4a105.42,105.42,0,0,0-4.08-10.71,141.41,141.41,0,0,0-6.9-12.84,72,72,0,0,0-6-7.91c-4.47-5.47-10.16-9.53-16.12-13.16a97.13,97.13,0,0,0-9.94-4.7,3.21,3.21,0,0,0-1-.13,6.73,6.73,0,0,1-2.69,4.66c-.55.46-.26.75.18,1.12,1.53,1.29,3,2.62,3.4,4.76.6,2.91-1.05,5.06-4.05,5.08Z"/><path class="cls-6" d="M182.12,133.88a10.72,10.72,0,0,1-2-.71c-1.33-.8-2.59-1.71-3.88-2.58s-1.69-1.91-1.07-3a2.68,2.68,0,0,1,3.58-.9q3.42,2.05,6.75,4.26c1.18.78,1.21,1.93.21,2.68l-1.52-.19h-.33Z"/><path class="cls-1" d="M69,298.34q3.26-8.73,6.39-17.18c-.16,1-.3,2.16-.52,3.29a33.13,33.13,0,0,0-.37,11.66c.17,1.07-.18,1.39-1.2,1.49C71.84,297.76,70.4,298.09,69,298.34Z"/><path class="cls-1" d="M253.79,334.25a6.61,6.61,0,0,1-1.74-5.46,2.65,2.65,0,0,1,1.81-2.31,9.14,9.14,0,0,1,6.53.15Z"/><path class="cls-1" d="M237.81,262a13,13,0,0,1-7.8,1.24,41.93,41.93,0,0,1,1.21-5.15c.39-1.09,3.41-.92,4.26.23S237,260.76,237.81,262Z"/><path class="cls-3" d="M98.91,147.58c-1.77-2-3.66-3.87-5.29-6a83,83,0,0,1-9.09-15c-.42-.86-.81-1.73-1.18-2.62a2.54,2.54,0,0,1,1.34-3.66A2.87,2.87,0,0,1,88.45,122a64.19,64.19,0,0,0,7.79,14.1c2.69,3.69,5.83,7,8.77,10.54l.82,1c-1.07-1-2.22-1.89-3.21-3a77.07,77.07,0,0,1-14.37-22.22,2.6,2.6,0,0,0-2.58-1.92c-1.8,0-2.71,1.52-2,3.28a82.43,82.43,0,0,0,11.52,19.28C96.44,144.59,97.68,146.08,98.91,147.58Z"/><path class="cls-1" d="M35.54,310.55a9.24,9.24,0,0,1,1.68-5.62c.48-.67,1.06-.55,1.68-.2,1.92,1.09,2.69,2.94,3.47,5.16Z"/><path class="cls-1" d="M206,334.78l7.34,7c-2.53-.33-4.76-.61-7-.92a.75.75,0,0,1-.48-.3C205.15,339.51,205.16,336.19,206,334.78Z"/><path class="cls-3" d="M61.13,143.46a38.39,38.39,0,0,1,4.19,4.38c1.92,2.75,4.55,4,7.66,4.73A56.8,56.8,0,0,0,87.67,154a60.47,60.47,0,0,0,12.35-1.9c.77-.18,1.54-.38,2.58-.65-.55-.52-1-.88-1.36-1.3s-.95-1.12-1.42-1.68l3.61,3.18c-1.76.44-3.14.79-4.51,1.11a54.29,54.29,0,0,1-23.66.63,13.33,13.33,0,0,0-1.5-.41c-4.33-.33-7.33-2.75-9.77-6.12C63.12,145.7,62.09,144.6,61.13,143.46Z"/><path class="cls-3" d="M24.78,233.51c-.05,2.17,0,4.35-.17,6.51s-.61,4.39-.87,6.59q-1,8.49-1.89,17c-.37,3.47-.64,6.95-1,10.42-.12,1.13-.4,2.25-.6,3.38.24-3.26.44-6.51.75-9.76.42-4.27.91-8.54,1.4-12.81.56-4.87,1.16-9.73,1.71-14.6.2-1.78.31-3.57.47-5.35C24.62,234.43,24.71,234,24.78,233.51Z"/><path class="cls-3" d="M204.27,277.71a28.43,28.43,0,0,1,1.51-2.63,40.56,40.56,0,0,0,7-17.36c.51-3.26.72-6.56,1-9.85.2-2.21.33-4.44.51-6.66,0-.19.23-.36.35-.54-.06,1.7,0,3.42-.2,5.12-.49,4.63-.91,9.29-1.66,13.88-1.07,6.51-4.09,12.21-7.93,17.51A4.46,4.46,0,0,1,204.27,277.71Z"/><path class="cls-3" d="M184.22,133.45l1.52.19,5.37,7A16.75,16.75,0,0,1,206,135.05c-.18-1.86-.36-3.64-.54-5.43.41,2,.82,3.92,1.25,6a15.88,15.88,0,0,0-15.65,5.69c-.33-.43-.58-.72-.8-1-1.22-1.69-2.35-3.43-3.67-5A13,13,0,0,0,184.22,133.45Z"/><path class="cls-3" d="M133.9,150.9l1.19,1.22a.9.9,0,0,1-.34-.1c-5.12-3.86-10.53-2.91-16-.88a39.86,39.86,0,0,0-4.29,2.35c-.33.18-.92.34-1.14.18-2.37-1.75-4.69-3.57-7-5.38a1.52,1.52,0,0,1-.31-.49l2.26,1.66c1.68,1.26,3.34,2.56,5,3.77a1.23,1.23,0,0,0,1.12-.14,22.53,22.53,0,0,1,13-4.09A13.65,13.65,0,0,1,133.9,150.9Z"/><path class="cls-3" d="M164.65,177.3c1,.53,2,1,2.93,1.59a51.76,51.76,0,0,0,15.2,6c2.94.64,5.94,1,8.92,1.53a5.17,5.17,0,0,1,.75.27c-2.24-.28-4.5-.46-6.72-.84a55.12,55.12,0,0,1-20.11-7.71A9.17,9.17,0,0,1,164.65,177.3Z"/><path class="cls-3" d="M224.56,191c.93.31,1.9.55,2.79,1,3.09,1.37,6.09,3,9.24,4.16a7.12,7.12,0,0,0,5.9-.23c2.24-1.18,2.22-2.16.91-3.8a11.47,11.47,0,0,1-1.22-2.86c.77,1.23,1.52,2.47,2.3,3.69a1.43,1.43,0,0,1-.17,2,6.21,6.21,0,0,1-4.32,2,15.1,15.1,0,0,1-6.36-1.45c-2.9-1.32-5.77-2.71-8.64-4.08A1.92,1.92,0,0,1,224.56,191Z"/><path class="cls-3" d="M214.7,240.17a7.75,7.75,0,0,1-.17-1.27c.07-4.18.21-8.37.23-12.56,0-2.91-.16-5.82-.23-8.73a7.47,7.47,0,0,1,.17-1.14c.14,1.65.39,3.31.39,5,0,6-.13,12-.22,18.06A2.64,2.64,0,0,1,214.7,240.17Z"/><path class="cls-3" d="M244.75,222.68c-.15-.23-.4-.45-.44-.7-.83-5.31-1.59-10.63-2.46-15.93-.21-1.28-.27-2.73-1.64-3.51,1-.34,1.4.1,1.56,1,.91,5.5,1.86,11,2.77,16.51C244.68,220.93,244.68,221.81,244.75,222.68Z"/><path class="cls-3" d="M119,51.55a4.5,4.5,0,0,1-2.85,2c-2,.26-3.37-1.15-5-2a27.15,27.15,0,0,1-8.34-6.39c-.23-.27-.44-.55-.65-.83a8.44,8.44,0,0,1,1.54,1.22c2.09,2.57,4.9,4.14,7.7,5.75.59.33,1.16.69,1.73,1.06a3.72,3.72,0,0,0,4.84-.16C118.33,51.94,118.67,51.75,119,51.55Z"/><path class="cls-3" d="M243.55,185.8a4.49,4.49,0,0,1,.75-.7c.75-.44,1.33-1,1.09-1.91s-.56-1.84-1.83-1.85-2.71-.1-4.06-.15l-3.64-.42-4-.82c1.72.17,3.45.35,5.17.49q3.1.26,6.21.43a2.42,2.42,0,0,1,2.54,2.07,2.07,2.07,0,0,1-1.35,2.49C244.12,185.57,243.83,185.67,243.55,185.8Z"/><path class="cls-3" d="M207.74,188.17l10.15.64,1.72.44,4.31,1.49c-1.23-.29-2.45-.68-3.7-.85-2.88-.39-5.78-.63-8.66-1C210.28,188.73,209,188.42,207.74,188.17Z"/><path class="cls-1" d="M271.94,349.35c.07-1.9.28-3.6,1.87-4.82C274.49,347.37,274,348.74,271.94,349.35Z"/><path class="cls-6" d="M185.5,23c-2.31-.56-4.63-1.07-6.92-1.7a14.06,14.06,0,0,1-2.43-1.2c2.3.52,4.62,1,6.89,1.58A12.49,12.49,0,0,1,185.5,23Z"/><path class="cls-3" d="M145,159.54a3.87,3.87,0,0,1,.79.48q4.5,4.47,9,8.95a2.29,2.29,0,0,1,.3.5,3.21,3.21,0,0,1-.67-.4q-4.58-4.5-9.11-9A2,2,0,0,1,145,159.54Z"/><path class="cls-1" d="M248.6,341.83c0,1.18-.53,1.7-1.76,1.56a21.09,21.09,0,0,0-2.39,0C245.33,341.44,246,341.5,248.6,341.83Z"/><path class="cls-1" d="M274.53,364.77c-.78,1.42-1.43,2.59-2.09,3.76l-.23-.1v-3.94Z"/><path class="cls-3" d="M225.65,178.94a28.83,28.83,0,0,1-4.07-.7c-2.88-.9-5.7-2-8.54-3a4.45,4.45,0,0,1-.93-.67c2,.77,4,1.63,6.11,2.29s4.38,1.15,6.58,1.73A7.44,7.44,0,0,1,225.65,178.94Z"/><path class="cls-3" d="M194.21,156.7c-.75-1.2-1.54-2.38-2.23-3.61-1.34-2.34-2.62-4.72-3.92-7.09a2.62,2.62,0,0,1-.18-.56c.92,1.47,1.89,2.91,2.73,4.42C191.86,152.11,193,154.42,194.21,156.7Z"/><path class="cls-3" d="M192.87,186.72l4.7.43c1.62.16,3.23.32,4.84.5.14,0,.26.15.39.23-2.28-.17-4.57-.29-6.84-.52A30.27,30.27,0,0,1,192.87,186.72Z"/><path class="cls-3" d="M240.24,243.37c.3-.44.5-1.05.92-1.28a28.67,28.67,0,0,1,4.05-1.89c.82-.29,1.48-.48,1.26-1.55,0-.18.16-.41.24-.62a10.42,10.42,0,0,1,.25,1.74.94.94,0,0,1-.58.68,10.37,10.37,0,0,0-5.82,2.79A1,1,0,0,1,240.24,243.37Z"/><path class="cls-3" d="M246.66,237.56c-.1,0-.3-.08-.31-.14q-.54-4.11-1-8.23c0-.08.13-.18.21-.27.32,2.18.65,4.35,1,6.53C246.57,236.15,246.6,236.86,246.66,237.56Z"/><path class="cls-3" d="M53.2,134.58c1.7,1.93,3.4,3.85,5.09,5.78-1.13-1.19-2.29-2.35-3.39-3.57C54.28,136.1,53.76,135.32,53.2,134.58Z"/><path class="cls-3" d="M157.23,49.9"/><path class="cls-3" d="M236.37,251c-.63-1.48,0-2.79.62-4.05.45-1,.79-2.11,2.06-2.42-.73,1.31-1.54,2.58-2.15,3.94A12.22,12.22,0,0,0,236.37,251Z"/><path class="cls-3" d="M204.68,169.4l-4.08-4Z"/><path class="cls-3" d="M187.72,145.18q-1.6-2.4-3.19-4.8Q186.12,142.78,187.72,145.18Z"/><path class="cls-3" d="M123.6,47.17l-3.85,3.66Z"/><path class="cls-3" d="M231.42,179.9l-5.36-.89Z"/><path class="cls-3" d="M182.12,133.88l1.77-.43c-.25.12-.49.25-.74.36-1.43.63-1.67,1.47-1,3.46-.26-.33-.53-.65-.8-1C181.63,135.49,181.88,134.68,182.12,133.88Z"/><path class="cls-3" d="M245.47,228.44c-.08,0-.21,0-.22-.07-.16-1.74-.31-3.48-.46-5.22C245,224.92,245.24,226.68,245.47,228.44Z"/><path class="cls-3" d="M155.22,47l-5-1.45"/><path class="cls-3" d="M196.59,160.31,194.37,157Z"/><path class="cls-3" d="M203.57,187.92l3.76.21Z"/><path class="cls-3" d="M58.49,140.58l2.44,2.67Z"/><path class="cls-3" d="M127.44,43.6l-2.63,2.45Z"/><path class="cls-6" d="M282.5,313.6l2.18,1.62c-1.47.64-1.65.48-2.24-1.56Z"/><path class="cls-3" d="M141.07,42.48l3.34-1.5Z"/><path class="cls-3" d="M138.72,156c1.21,0,2.49-.16,3.36,1-1-.2-1.93-.39-2.89-.62C139,156.3,138.88,156.09,138.72,156Z"/><path class="cls-6" d="M172.71,19.74l-2.74,0Z"/><path class="cls-3" d="M145.17,45.56l-2.68.44Z"/><path class="cls-3" d="M136.27,153.09,138,155Z"/><path class="cls-3" d="M141.81,37.39l-2.09.17Z"/><path class="cls-3" d="M146.58,55.19l2.26-.94Z"/><path class="cls-3" d="M161.29,174.91l1.67,1.26Z"/><path class="cls-3" d="M149.57,45.5l-2,0Z"/><path class="cls-3" d="M239.5,202.52c-.61.33-1.21.53-1.69-.21Z"/><path class="cls-3" d="M242.18,187.94a1.13,1.13,0,0,1,.75-1.53Z"/><path class="cls-3" d="M158.66,172.74l1.19,1Z"/><path class="cls-3" d="M142.32,157.15l1.2,1Z"/><path class="cls-3" d="M156.74,171.07l1.18,1Z"/><path class="cls-3" d="M199.7,164.39l-1-1.22Z"/><path class="cls-3" d="M163.21,176.35l1.19.79Z"/><path class="cls-3" d="M128.65,42.63l-1,.77Z"/><path class="cls-3" d="M205.87,170.36l-1-.78Z"/><path class="cls-3" d="M157.46,61.91l-.8-.79Z"/><path class="cls-3" d="M207.09,171.31l-1-.76Z"/><path class="cls-3" d="M135.1,152.12l.94.75Z"/><path class="cls-4" d="M146.13,45.55l1,0"/><path class="cls-6" d="M175.34,20l-.85-.1Z"/><path class="cls-3" d="M211.86,174.45l-1-.57Z"/><path class="cls-3" d="M138.16,155.21l.54.72Z"/><path class="cls-3" d="M198.53,162.94l-.56-.71Z"/><path class="cls-3" d="M129.6,41.9l-.72.55Z"/><path class="cls-3" d="M160.09,174l.71.56Z"/><path class="cls-3" d="M197.78,162l-.53-.73Z"/><path class="cls-3" d="M184.36,140.14l-.55-.72Z"/><path class="cls-3" d="M182.92,138.23l-.55-.73Z"/><path class="cls-3" d="M183.64,139.18l-.55-.72Z"/><path class="cls-3" d="M236.47,252.7l-.1-.74Z"/><path class="cls-3" d="M45.56,348.47,46,349C45.85,348.84,45.7,348.66,45.56,348.47Z"/><path class="cls-3" d="M44.86,347.49l.41.58Z"/><path class="cls-6" d="M166.74,20.17l-.37.08Z"/><path class="cls-6" d="M165.06,20.62l-.38.1Z"/><path class="cls-3" d="M144.68,40.71l.23-.42Z"/><path class="cls-3" d="M130.32,41.42l-.47.31Z"/><path class="cls-3" d="M197.09,161l-.33-.46Z"/><path class="cls-3" d="M207.79,171.8l-.48-.32Z"/><path class="cls-3" d="M208.49,172.29,208,172Z"/><path class="cls-3" d="M209.22,172.77l-.47-.3Z"/><path class="cls-3" d="M209.94,173.25l-.47-.33Z"/><path class="cls-3" d="M210.68,173.72l-.49-.31Z"/><path class="cls-6" d="M167.94,19.94l-.38.06Z"/><path class="cls-3" d="M242.86,337.41l.65-.38Z"/><path class="cls-3" d="M241.93,338.19l.54-.51Z"/><path class="cls-3" d="M236.17,253.21l.26-.25Z"/><path class="cls-6" d="M282.44,313.66l-.18-.19.07-.07.17.2Z"/><path class="cls-2" d="M96.92,68.9c-.4,3.88-.77,7.86-1.25,11.82A2.4,2.4,0,0,1,92.76,83c-1.59-.25-2.15-1.24-2-3.08.39-4.62,1-9.24,1-13.86C91.66,58.3,88,52.12,82,47.37a42,42,0,0,0-6.09-3.8,11.84,11.84,0,0,0-3.51-1,2.52,2.52,0,0,1-2.24-2A2.13,2.13,0,0,1,72,38.23a5.57,5.57,0,0,1,2.81,0c10.86,4,18.49,11.17,21.43,22.7a16.2,16.2,0,0,1,.42,2.6C96.77,65.28,96.83,67,96.92,68.9Z"/><path class="cls-2" d="M133.12,111c3.28.18,7.27,2.23,10.31,6.09.82,1,1.56,2.12,2.31,3.21.91,1.34.83,2.52-.18,3.29a2.62,2.62,0,0,1-3.66-.43c-.83-1-1.52-2.16-2.32-3.2a10.69,10.69,0,0,0-7.24-4.48,6.2,6.2,0,0,0-5.46,1.82,12.22,12.22,0,0,0-3,5,2.52,2.52,0,0,1-3.54,1.59,2.1,2.1,0,0,1-1.33-2.52A13.83,13.83,0,0,1,133.12,111Z"/><path class="cls-2" d="M183,107.41a12.27,12.27,0,0,1,7.31,3.17c1.59,1.57,3,3.3,4.45,5a2.08,2.08,0,0,1-.08,3.18,2.62,2.62,0,0,1-3.59-.19c-1.13-1.24-2.15-2.58-3.25-3.84-1.72-2-3.85-3.23-6.54-2.67a7.1,7.1,0,0,0-5.52,5.11,7.27,7.27,0,0,0-.35,1.27c-.38,2.61-3.3,2.6-4.69,1.51a2.07,2.07,0,0,1-.47-2.7,12.14,12.14,0,0,0,.81-1.71A12.68,12.68,0,0,1,183,107.41Z"/><path class="cls-2" d="M177.23,151.26a30,30,0,0,1,3.7.81c1.53.55,2.09,1.69,1.65,2.85s-1.82,1.66-3.33,1.4a14.17,14.17,0,0,0-4.11-.15c-2.35.27-3.46,2.18-4.72,3.9a3.67,3.67,0,0,1-2.09,1.51,3.46,3.46,0,0,1-2.39-.93c-.77-.69-.47-1.69,0-2.54C168.46,153.79,172,151.27,177.23,151.26Z"/><path class="cls-6" d="M141.58,139.32c-1.71,0-2.47-1.4-3.55-2.19-3.38-2.49-6.69-5.09-10-7.64a2.09,2.09,0,0,1-1-2.37,2.19,2.19,0,0,1,2.11-1.65c1.74-.12,2.91,1,4.11,1.93,3.2,2.42,6.31,4.95,9.43,7.47,1.68,1.35,1.82,2.7.39,3.85A5.22,5.22,0,0,1,141.58,139.32Z"/><path class="cls-6" d="M195.11,130.67c-.1,2.26-2.28,3.15-4.08,1.9-2.18-1.52-4.25-3.2-6.43-4.73-1.65-1.15-3.38-2.18-5.09-3.22-1.38-.84-2-2.26-1.42-3.27a2.87,2.87,0,0,1,4-.85c3.39,2.36,6.74,4.79,10.09,7.21a23.4,23.4,0,0,1,2.4,1.94A3.43,3.43,0,0,1,195.11,130.67Z"/><path class="cls-2" d="M186.11,164.24c.45.07.81.09,1.16.17a2.29,2.29,0,0,1,1.92,2.15,2.38,2.38,0,0,1-2.06,2.18,15.45,15.45,0,0,1-1.67.13c-1.72.11-3,.75-3.4,2.61a2.4,2.4,0,0,1-3.06,1.6,2.29,2.29,0,0,1-1.69-3c.64-2.91,2.7-4.44,5.35-5.29A22.27,22.27,0,0,1,186.11,164.24Z"/><path class="cls-6" d="M123.74,130.79a12.94,12.94,0,0,1,2.34,1c2.06,1.37,4,2.88,6.07,4.24a1.93,1.93,0,0,1,1,2.33,2,2,0,0,1-2.11,1.47,5.88,5.88,0,0,1-2.43-.68c-2.2-1.35-4.31-2.84-6.46-4.26a1.94,1.94,0,0,1-.87-2.39A2.48,2.48,0,0,1,123.74,130.79Z"/><path class="cls-6" d="M197.53,129.26a8.45,8.45,0,0,1-1.58-.91c-1.65-1.5-3.3-3-4.81-4.64a2.35,2.35,0,0,1-.48-2,3.24,3.24,0,0,1,1.83-1.43c1.28-.42,2.32.36,3.2,1.18,1.28,1.2,2.51,2.46,3.72,3.72a2.27,2.27,0,0,1,.59,2.63A2.69,2.69,0,0,1,197.53,129.26Z"/><path class="cls-2" d="M195,180.4a3.16,3.16,0,0,1-3.87-.76,5.65,5.65,0,0,1,4.31-7.65,2.51,2.51,0,0,1,2.85,1.44,2.08,2.08,0,0,1-1.27,2.74,1.74,1.74,0,0,0-1.15,2.14C196,179,195.34,179.7,195,180.4Z"/><path class="cls-6" d="M142.21,125.42c1.23.74,2.49,1.44,3.69,2.24s2.2,1.56,3.24,2.41a1.75,1.75,0,0,1,.56,2.43,2.4,2.4,0,0,1-2.83,1.23,14.05,14.05,0,0,1-2.23-1.32c-1.2-.78-2.37-1.61-3.57-2.38s-1.88-2-1.39-3a2.14,2.14,0,0,1,2.35-1.26Z"/><path class="cls-4" d="M198,192.69c.56.17,1.13.29,1.67.5,3.58,1.4,7.15,2.8,10.71,4.24.37.15.84.47.92.79.58,2.47,1.06,4.95,1.58,7.43a17,17,0,0,1-1.83-2.08,25.16,25.16,0,0,0-12.6-10.41C198.23,193.09,198.11,192.85,198,192.69Z"/><path class="cls-5" d="M174.44,188.38l1.21.23Z"/><path class="cls-5" d="M166.76,187.42l.73.23Z"/><path class="cls-5" d="M164.62,187.15l.49.22Z"/><path class="cls-5" d="M168,187.66l.49.22Z"/><path class="cls-4" d="M235.86,180.77l3.64.42C237.76,182,236.89,181.87,235.86,180.77Z"/><path class="cls-4" d="M219.61,189.25l-1.72-.44A1.12,1.12,0,0,1,219.61,189.25Z"/><path class="cls-2" d="M256.23,354a4.22,4.22,0,1,1,4,4.46A4.28,4.28,0,0,1,256.23,354Z"/><path class="cls-2" d="M249.45,354.49a4.22,4.22,0,1,1-8.44,0,4.22,4.22,0,1,1,8.44,0Z"/><path class="cls-2" d="M257.66,362.84a4.24,4.24,0,0,1-4.15,4.35,4.34,4.34,0,1,1,4.15-4.35Z"/></svg>